{"glyphs":{"0":{"ha":392,"x_min":0,"x_max":0,"o":"m 222 0 b 201 1 215 1 208 1 b 114 42 165 1 139 17 b 61 131 89 67 72 99 b 28 436 19 231 10 333 b 51 531 33 468 39 501 b 88 610 61 558 72 585 b 93 617 90 613 90 615 b 126 656 108 626 115 643 b 135 668 128 660 132 664 b 174 682 144 681 157 683 b 257 664 201 678 228 668 b 322 613 290 658 308 639 b 333 576 329 600 332 589 b 347 522 338 558 343 540 b 361 450 351 499 358 475 b 371 390 364 431 369 411 b 376 265 376 349 381 307 b 358 131 375 219 369 175 b 313 46 350 99 336 69 b 288 18 303 36 296 28 b 222 0 269 0 249 -7 m 239 56 b 258 60 250 49 254 49 b 293 181 274 100 289 138 b 299 324 296 228 300 275 b 293 475 299 374 296 424 b 281 571 293 507 288 539 b 232 636 275 600 254 618 b 217 636 226 639 221 642 b 192 594 206 624 194 611 b 183 478 185 557 176 518 b 221 360 189 436 194 396 l 222 358 b 214 328 231 342 229 336 l 194 318 b 178 317 189 314 185 314 l 158 324 b 147 317 149 326 149 325 b 147 310 146 314 147 313 b 157 231 150 283 151 257 b 196 108 167 189 179 149 b 239 56 204 86 219 68 "},"1":{"ha":276,"x_min":0,"x_max":0,"o":"m 275 728 b 274 682 278 711 278 696 b 271 661 274 674 274 667 l 251 621 l 251 619 b 250 444 253 563 257 503 l 251 417 b 253 260 256 363 257 311 l 253 229 b 258 115 256 192 250 154 b 213 56 263 89 242 61 b 150 71 194 51 175 57 b 122 106 139 81 131 94 b 110 144 114 119 110 132 b 110 263 106 183 107 226 b 128 426 114 318 119 375 b 140 525 131 458 139 493 l 107 515 b 89 513 101 514 96 514 b 67 510 79 510 74 510 l 49 513 b 15 528 33 511 22 517 b 0 550 10 532 6 539 b 39 574 0 569 17 581 l 39 571 b 72 581 51 569 61 575 b 153 639 103 593 129 614 b 157 651 156 640 156 644 b 164 686 160 664 163 676 b 208 756 172 714 192 736 b 224 764 214 760 218 763 b 268 749 240 771 257 765 b 275 728 274 742 274 733 "},"2":{"ha":474,"x_min":0,"x_max":0,"o":"m 496 107 b 483 38 504 79 490 56 l 457 3 b 346 -32 438 -29 388 -44 b 214 32 304 -21 263 0 l 210 35 l 210 36 b 176 0 199 25 189 13 b 136 -35 165 -15 151 -28 b 104 -33 124 -39 113 -37 b 72 -31 94 -40 82 -39 b 51 -21 68 -26 60 -24 b 22 -1 39 -18 31 -8 b 11 10 22 1 13 11 b 1 42 3 22 -1 32 b 13 106 3 67 7 88 b 82 165 19 142 44 161 b 154 156 107 168 131 165 l 156 163 b 210 286 171 203 189 246 b 256 375 226 317 242 346 b 275 415 261 390 268 404 b 317 501 290 443 304 474 b 335 558 324 519 331 540 b 338 585 338 568 339 578 b 332 589 336 588 335 589 b 294 581 314 588 304 586 b 288 575 289 578 288 576 b 225 485 264 547 242 519 l 221 471 b 178 461 208 456 193 451 b 122 518 160 471 132 485 b 122 535 121 524 121 531 b 158 599 133 563 144 583 l 188 632 b 286 676 210 661 243 676 b 356 656 311 678 335 669 b 400 619 371 646 386 635 b 433 554 415 600 428 576 b 436 486 439 528 440 508 b 422 414 432 463 428 439 b 386 314 414 381 401 346 l 351 235 b 336 208 347 226 342 217 b 285 128 318 183 303 154 b 272 113 282 122 278 118 b 313 101 288 106 299 101 l 346 101 b 393 119 365 101 381 108 b 418 140 403 126 408 133 b 446 151 424 149 435 153 l 468 144 l 467 150 l 474 143 b 496 107 481 136 497 128 m 85 43 b 126 90 119 56 131 76 b 108 101 122 93 113 103 b 82 67 97 94 82 85 l 82 53 l 82 47 b 83 43 83 44 83 44 l 85 43 m 74 56 b 74 56 69 54 71 54 m 107 -31 b 108 -29 108 -31 108 -29 l 107 -31 "},"3":{"ha":401,"x_min":0,"x_max":0,"o":"m 379 601 b 392 510 390 575 393 544 b 363 415 392 479 383 451 b 344 379 354 406 349 393 b 322 349 338 367 328 358 b 322 340 319 344 319 343 b 346 242 335 310 347 275 l 346 239 b 343 121 357 201 356 164 b 326 81 338 110 331 96 b 313 57 325 72 319 65 b 294 26 307 46 300 35 b 201 -26 267 -4 233 -22 b 172 -26 189 -28 181 -28 b 167 -25 169 -26 167 -25 b 106 0 142 -25 124 -10 b 93 6 103 1 97 4 b 19 101 51 26 26 60 b 28 197 15 142 17 171 b 36 222 29 207 33 217 b 51 250 43 233 49 242 b 81 271 57 265 65 271 b 100 275 86 274 93 275 l 139 258 l 146 251 b 151 221 154 243 157 231 b 150 213 150 221 151 217 b 142 190 150 201 144 194 b 133 176 139 186 138 182 b 125 153 126 168 124 163 b 128 113 125 139 125 124 b 138 101 129 106 128 104 b 197 121 158 100 178 106 b 247 204 225 138 243 165 b 253 251 250 221 251 238 b 247 297 254 267 253 282 l 244 300 b 203 286 232 296 221 289 b 131 300 176 283 151 289 b 83 354 107 315 92 333 b 76 410 83 361 76 410 b 149 458 86 447 108 461 b 189 454 161 457 176 457 b 244 433 203 447 224 444 b 275 510 263 460 274 485 b 275 568 276 529 276 551 b 267 610 274 585 271 599 b 254 619 261 617 258 619 b 210 611 233 621 222 617 b 169 576 196 601 181 589 b 128 578 156 563 142 563 b 119 583 125 582 124 583 b 99 603 107 588 103 599 b 97 644 88 615 88 631 b 160 689 110 668 133 683 b 207 704 179 693 193 699 b 250 706 225 707 238 708 b 285 701 264 703 275 701 b 319 688 297 701 310 697 l 346 665 b 379 606 365 650 378 628 l 379 601 m 190 385 l 188 386 l 178 396 b 144 399 167 406 154 404 b 139 385 139 397 140 388 b 189 385 147 374 164 369 m 188 396 b 188 396 189 396 192 397 "},"4":{"ha":522,"x_min":0,"x_max":0,"o":"m 260 -24 b 233 -12 251 -24 244 -21 b 201 29 222 -3 214 8 b 186 157 188 69 182 114 l 182 154 l 185 160 b 129 135 165 150 149 142 b 110 124 124 133 117 131 b 39 146 88 103 50 114 b 25 182 32 157 28 169 b 25 229 21 196 21 208 b 53 318 36 260 44 286 b 97 479 69 374 85 429 l 100 501 l 131 661 l 140 692 b 167 706 143 706 151 710 b 214 660 186 700 203 685 b 225 606 224 642 225 624 b 207 443 228 547 219 494 b 183 303 200 397 194 349 b 171 263 179 286 175 275 l 208 251 b 244 360 253 238 238 329 b 239 381 244 372 244 378 b 231 406 231 388 228 396 b 246 414 232 413 239 417 b 324 356 278 415 311 390 l 346 294 l 349 282 l 372 263 l 385 264 b 454 281 415 267 436 274 b 472 293 461 285 468 286 b 497 299 479 299 485 301 l 519 283 b 521 254 526 275 526 265 b 500 225 515 243 508 233 b 488 203 493 217 489 210 b 435 164 474 183 458 171 b 365 158 413 158 389 160 b 335 157 357 157 343 157 l 343 154 l 331 157 b 296 14 314 103 301 57 l 296 -10 b 274 -24 294 -26 288 -31 b 260 -24 275 -25 268 -24 "},"5":{"ha":453,"x_min":0,"x_max":0,"o":"m 171 -21 b 147 -19 163 -22 154 -22 b 124 -14 139 -17 131 -15 b 50 47 88 -7 64 14 b 43 118 42 71 39 94 b 61 194 46 144 51 169 b 100 249 71 215 83 233 b 140 256 110 258 126 261 l 158 247 b 179 228 171 246 176 238 b 183 182 182 213 182 197 b 176 165 183 176 179 169 b 150 90 161 142 154 117 l 150 83 b 153 78 149 81 150 78 b 158 79 156 76 157 78 b 197 114 171 90 185 101 b 236 144 208 124 221 138 b 246 154 240 146 244 150 b 283 250 265 183 279 214 b 283 281 285 261 285 272 b 244 332 279 310 265 325 b 213 328 232 335 222 335 l 196 317 b 122 299 174 303 149 300 b 97 308 113 299 104 303 b 82 322 92 314 88 318 b 64 351 71 328 67 339 b 68 422 63 375 63 399 b 104 576 76 475 89 526 b 119 658 110 603 117 631 b 138 674 121 671 124 675 l 140 675 b 181 660 157 679 169 671 b 217 626 192 647 203 636 b 267 614 231 614 247 610 b 324 638 289 617 308 624 b 371 672 340 649 356 661 b 408 696 382 683 393 693 b 415 699 411 699 413 699 b 433 699 422 700 428 704 b 432 681 439 692 436 688 b 429 660 429 674 429 667 b 424 642 429 653 426 647 b 369 586 410 621 392 601 b 307 556 351 574 329 565 b 243 557 286 547 264 550 l 226 563 b 213 553 215 565 214 564 b 211 499 213 535 213 517 b 196 389 207 461 208 424 b 207 376 194 378 197 375 b 242 381 219 379 231 381 b 276 374 254 381 265 378 b 332 347 296 365 315 360 b 382 244 368 321 383 288 l 381 229 b 347 133 382 193 368 163 b 328 106 340 124 333 115 b 313 76 321 97 315 88 b 214 -12 294 29 263 1 b 171 -21 200 -15 185 -19 "},"6":{"ha":400,"x_min":0,"x_max":0,"o":"m 197 10 b 86 71 151 13 114 35 b 54 128 72 89 61 110 b 33 207 43 157 38 181 b 81 563 19 332 36 451 b 175 688 100 613 135 653 l 196 701 b 283 699 222 719 253 714 b 315 678 296 693 306 688 b 331 639 329 667 335 653 l 324 621 l 315 589 b 294 557 314 576 308 564 b 269 568 283 550 274 554 b 268 583 268 574 267 578 b 268 611 269 592 271 601 b 269 619 268 614 268 617 b 274 654 275 631 272 643 b 268 665 274 658 271 663 b 258 661 263 667 261 663 b 218 590 240 639 222 621 b 206 564 215 582 211 572 b 181 501 196 544 185 524 l 168 465 l 164 454 b 183 431 160 433 158 435 b 267 410 211 428 239 424 b 299 396 276 406 288 401 b 322 376 308 393 315 385 b 353 299 340 353 350 326 b 358 225 357 274 364 249 b 338 99 350 183 353 139 b 326 64 333 88 332 75 b 256 15 311 38 288 19 b 197 10 236 11 217 10 m 233 78 b 240 83 236 79 239 81 b 267 124 250 96 260 110 b 294 226 279 157 288 192 b 278 318 299 256 299 289 l 275 324 b 238 356 267 339 251 347 b 225 356 233 358 228 358 b 189 308 211 342 196 328 b 176 222 179 282 174 254 b 179 193 178 214 178 203 b 172 176 181 186 179 178 b 164 160 163 174 163 167 b 171 132 165 151 168 143 b 194 89 176 118 185 103 b 203 79 197 85 200 82 b 233 78 214 69 225 69 "},"7":{"ha":354,"x_min":0,"x_max":0,"o":"m 76 42 b 22 74 56 47 35 50 b 0 126 13 90 3 107 b 6 172 0 143 1 158 b 38 244 14 199 25 221 b 107 363 57 285 83 324 b 228 572 149 431 189 501 b 247 607 233 585 240 596 b 247 615 249 610 249 613 b 239 617 246 619 242 618 b 208 614 229 615 218 615 b 122 632 179 611 150 619 b 75 674 101 640 88 656 b 53 715 67 688 57 700 b 54 732 51 721 49 728 b 69 729 60 735 65 732 b 88 717 76 726 83 722 b 138 689 100 699 118 693 b 231 700 169 683 201 683 b 274 725 244 708 261 714 b 296 725 281 731 289 729 b 344 692 313 715 329 704 b 353 664 353 683 357 674 b 349 647 350 658 350 653 b 328 553 351 613 340 582 b 267 421 308 508 288 465 b 235 361 258 401 247 381 b 193 271 219 332 208 301 b 154 190 182 243 168 217 b 133 149 147 176 139 163 l 104 74 b 85 46 101 63 94 53 b 76 42 82 43 79 40 "},"8":{"ha":426,"x_min":0,"x_max":0,"o":"m 157 -18 b 78 7 128 -21 101 -15 b 69 14 75 11 72 14 b 44 44 57 21 50 33 b 32 192 25 94 25 143 b 82 297 36 219 79 292 b 126 354 94 318 110 338 b 157 381 135 363 146 372 b 156 400 167 389 167 392 b 113 443 140 413 125 426 b 118 617 68 501 76 571 b 163 651 131 631 146 642 b 188 656 171 657 179 658 l 207 653 b 244 632 221 650 233 642 b 247 611 253 624 253 618 b 228 586 242 603 236 594 b 194 531 214 571 204 551 b 188 458 183 508 183 483 b 194 444 189 453 192 450 b 211 444 200 438 204 436 b 246 496 222 461 236 476 l 271 551 b 289 628 282 576 285 601 b 274 664 292 640 282 651 l 271 667 b 274 686 263 675 263 683 b 311 688 286 689 299 689 b 351 674 324 686 338 681 b 376 647 364 669 372 658 b 386 619 382 638 385 628 b 381 535 399 588 389 561 b 356 476 374 515 368 496 b 308 411 343 453 328 431 b 286 385 299 403 292 393 b 289 364 279 375 279 372 b 356 269 319 338 342 306 b 365 133 374 224 376 178 b 344 69 360 111 354 90 b 322 39 338 58 329 50 b 254 -6 304 18 278 7 l 253 -7 b 204 -18 239 -18 224 -21 b 157 -18 189 -17 172 -17 m 161 60 b 204 79 175 64 193 65 b 214 90 207 85 211 86 b 242 126 226 100 235 113 b 256 182 249 144 253 164 b 254 271 258 211 261 240 b 239 311 251 285 247 297 b 207 318 228 332 225 332 b 147 208 183 299 165 274 b 143 82 139 167 139 125 b 147 68 143 76 146 71 b 161 60 149 63 154 58 "},"9":{"ha":342,"x_min":0,"x_max":0,"o":"m 151 21 b 117 22 138 21 128 19 b 107 24 113 24 108 25 b 69 24 94 17 82 22 b 58 36 63 25 58 29 b 56 53 60 43 58 49 b 26 154 33 85 29 119 b 28 197 24 168 26 183 b 39 210 28 206 31 208 b 115 169 71 211 96 196 b 119 151 119 164 121 157 b 121 133 119 146 121 139 b 131 128 122 125 125 124 b 146 147 139 133 143 140 b 183 239 163 176 174 207 b 201 308 190 261 196 286 b 192 322 204 321 201 324 b 151 315 178 318 165 315 b 104 322 135 315 119 318 b 14 404 63 336 31 361 b 4 446 8 418 4 432 b 1 529 1 475 0 503 b 44 639 3 572 17 610 b 128 713 71 667 100 689 b 150 715 135 718 142 718 b 179 708 158 711 168 708 b 199 699 186 708 193 704 b 250 664 213 681 232 674 b 268 653 256 660 261 657 b 283 629 274 647 281 639 b 303 618 288 619 292 617 b 331 615 311 619 321 619 b 340 593 340 611 346 604 b 333 542 333 576 333 558 b 322 386 332 490 329 438 b 304 300 318 357 311 328 b 290 217 296 272 293 246 l 276 153 b 274 143 276 150 274 146 b 233 65 263 115 251 89 b 176 26 218 46 200 31 b 151 21 165 25 157 22 m 119 368 b 143 368 128 358 133 358 b 154 382 147 371 151 376 b 197 464 169 408 185 436 b 210 497 203 474 207 486 b 225 551 214 515 217 535 b 228 575 228 560 228 567 b 206 633 225 596 218 617 b 188 633 197 643 194 644 b 147 581 172 617 161 597 b 107 507 131 558 121 532 b 100 465 101 494 100 479 b 100 410 99 447 97 429 b 119 368 100 393 110 381 "},"A":{"ha":574,"x_min":0,"x_max":0,"o":"m 510 -53 b 397 -50 472 -54 435 -57 b 290 46 344 -39 310 -6 b 269 53 285 61 285 60 b 199 40 247 43 222 42 b 108 54 168 40 136 43 b 15 165 56 72 26 113 b 1 288 6 206 1 246 b 35 471 1 350 14 411 b 118 664 58 538 82 603 b 274 854 161 733 207 804 b 413 878 314 886 361 899 b 450 863 425 872 438 868 b 469 869 461 857 465 860 b 485 900 475 881 479 890 b 507 914 489 910 497 915 b 575 903 531 913 554 913 b 590 875 590 896 593 892 b 553 729 582 825 568 776 b 494 532 532 664 511 599 b 465 424 486 496 472 460 b 433 164 449 338 439 251 b 431 99 433 142 431 121 b 440 50 431 82 435 67 b 464 18 443 36 453 26 b 485 22 474 10 479 13 b 515 97 497 46 507 72 b 572 238 532 146 544 194 b 603 288 582 254 592 271 b 643 286 617 308 629 307 b 653 214 660 263 660 240 b 585 17 633 146 610 82 b 557 -26 579 0 568 -14 b 510 -53 544 -42 531 -51 m 210 143 b 244 146 225 119 233 119 b 300 328 271 204 292 264 b 361 585 311 415 329 501 b 439 788 389 651 411 721 b 433 821 444 801 443 811 b 418 835 428 826 424 831 b 390 833 408 844 399 843 b 381 821 386 831 383 826 b 315 728 360 789 338 758 b 250 576 283 682 257 632 b 206 386 240 511 221 449 b 189 243 194 339 188 292 b 189 207 189 231 188 219 b 210 143 189 183 196 163 "},"Á":{"ha":574,"x_min":0,"x_max":0,"o":"m 338 938 b 292 942 317 922 307 925 b 289 986 276 958 275 969 b 374 1097 319 1019 343 1063 b 436 1126 392 1115 408 1131 b 489 1110 457 1128 474 1119 b 496 1050 508 1094 510 1069 b 451 1014 483 1038 468 1022 l 425 994 b 368 956 408 979 388 969 b 343 942 360 951 351 947 b 338 938 343 939 340 938 m 510 -53 b 397 -50 472 -54 435 -57 b 290 46 344 -39 310 -6 b 269 53 285 61 285 60 b 199 40 247 43 222 42 b 108 54 168 40 136 43 b 15 165 56 72 26 113 b 1 288 6 206 1 246 b 35 471 1 350 14 411 b 118 664 58 538 82 603 b 274 854 161 733 207 804 b 413 878 314 886 361 899 b 450 863 425 872 438 868 b 469 869 461 857 465 860 b 485 900 475 881 479 890 b 507 914 489 910 497 915 b 575 903 531 913 554 913 b 590 875 590 896 593 892 b 553 729 582 825 568 776 b 494 532 532 664 511 599 b 465 424 486 496 472 460 b 433 164 449 338 439 251 b 431 99 433 142 431 121 b 440 50 431 82 435 67 b 464 18 443 36 453 26 b 485 22 474 10 479 13 b 515 97 497 46 507 72 b 572 238 532 146 544 194 b 603 288 582 254 592 271 b 643 286 617 308 629 307 b 653 214 660 263 660 240 b 585 17 633 146 610 82 b 557 -26 579 0 568 -14 b 510 -53 544 -42 531 -51 m 210 143 b 244 146 225 119 233 119 b 300 328 271 204 292 264 b 361 585 311 415 329 501 b 439 788 389 651 411 721 b 433 821 444 801 443 811 b 418 835 428 826 424 831 b 390 833 408 844 399 843 b 381 821 386 831 383 826 b 315 728 360 789 338 758 b 250 576 283 682 257 632 b 206 386 240 511 221 449 b 189 243 194 339 188 292 b 189 207 189 231 188 219 b 210 143 189 183 196 163 "},"Ă":{"ha":574,"x_min":0,"x_max":0,"o":"m 469 976 b 382 1006 439 982 407 990 b 314 1076 356 1026 332 1049 l 307 1089 b 313 1121 303 1100 303 1111 l 322 1132 b 349 1131 332 1139 340 1139 b 350 1129 349 1131 350 1131 b 379 1081 357 1113 371 1099 b 415 1053 386 1063 399 1054 b 478 1071 436 1053 458 1058 b 519 1113 496 1081 511 1094 b 542 1150 525 1125 536 1136 b 556 1154 543 1157 549 1157 b 575 1142 561 1149 568 1147 b 585 1124 583 1138 586 1132 b 581 1101 585 1117 585 1108 b 561 1046 575 1083 572 1064 b 529 1011 554 1031 544 1018 b 508 993 521 1008 514 999 b 469 976 496 982 483 979 m 510 -53 b 397 -50 472 -54 435 -57 b 290 46 344 -39 310 -6 b 269 53 285 61 285 60 b 199 40 247 43 222 42 b 108 54 168 40 136 43 b 15 165 56 72 26 113 b 1 288 6 206 1 246 b 35 471 1 350 14 411 b 118 664 58 538 82 603 b 274 854 161 733 207 804 b 413 878 314 886 361 899 b 450 863 425 872 438 868 b 469 869 461 857 465 860 b 485 900 475 881 479 890 b 507 914 489 910 497 915 b 575 903 531 913 554 913 b 590 875 590 896 593 892 b 553 729 582 825 568 776 b 494 532 532 664 511 599 b 465 424 486 496 472 460 b 433 164 449 338 439 251 b 431 99 433 142 431 121 b 440 50 431 82 435 67 b 464 18 443 36 453 26 b 485 22 474 10 479 13 b 515 97 497 46 507 72 b 572 238 532 146 544 194 b 603 288 582 254 592 271 b 643 286 617 308 629 307 b 653 214 660 263 660 240 b 585 17 633 146 610 82 b 557 -26 579 0 568 -14 b 510 -53 544 -42 531 -51 m 210 143 b 244 146 225 119 233 119 b 300 328 271 204 292 264 b 361 585 311 415 329 501 b 439 788 389 651 411 721 b 433 821 444 801 443 811 b 418 835 428 826 424 831 b 390 833 408 844 399 843 b 381 821 386 831 383 826 b 315 728 360 789 338 758 b 250 576 283 682 257 632 b 206 386 240 511 221 449 b 189 243 194 339 188 292 b 189 207 189 231 188 219 b 210 143 189 183 196 163 "},"Â":{"ha":574,"x_min":0,"x_max":0,"o":"m 588 958 b 567 976 579 963 574 969 b 517 1046 546 997 532 1021 b 497 1071 510 1054 503 1063 b 481 1074 490 1081 489 1081 b 461 1054 474 1068 467 1061 b 392 992 449 1039 394 993 b 385 986 388 992 386 988 b 338 985 374 979 350 978 b 332 1004 331 988 329 994 b 342 1014 335 1007 338 1011 b 360 1040 346 1022 353 1032 b 428 1113 378 1068 404 1090 b 464 1150 440 1124 453 1136 b 490 1154 471 1157 481 1158 b 511 1143 497 1151 504 1147 b 581 1064 538 1119 560 1092 b 619 1018 593 1047 606 1033 b 640 990 628 1008 633 1000 b 635 967 647 979 644 974 b 622 958 629 964 626 963 b 588 958 613 950 599 950 m 510 -53 b 397 -50 472 -54 435 -57 b 290 46 344 -39 310 -6 b 269 53 285 61 285 60 b 199 40 247 43 222 42 b 108 54 168 40 136 43 b 15 165 56 72 26 113 b 1 288 6 206 1 246 b 35 471 1 350 14 411 b 118 664 58 538 82 603 b 274 854 161 733 207 804 b 413 878 314 886 361 899 b 450 863 425 872 438 868 b 469 869 461 857 465 860 b 485 900 475 881 479 890 b 507 914 489 910 497 915 b 575 903 531 913 554 913 b 590 875 590 896 593 892 b 553 729 582 825 568 776 b 494 532 532 664 511 599 b 465 424 486 496 472 460 b 433 164 449 338 439 251 b 431 99 433 142 431 121 b 440 50 431 82 435 67 b 464 18 443 36 453 26 b 485 22 474 10 479 13 b 515 97 497 46 507 72 b 572 238 532 146 544 194 b 603 288 582 254 592 271 b 643 286 617 308 629 307 b 653 214 660 263 660 240 b 585 17 633 146 610 82 b 557 -26 579 0 568 -14 b 510 -53 544 -42 531 -51 m 210 143 b 244 146 225 119 233 119 b 300 328 271 204 292 264 b 361 585 311 415 329 501 b 439 788 389 651 411 721 b 433 821 444 801 443 811 b 418 835 428 826 424 831 b 390 833 408 844 399 843 b 381 821 386 831 383 826 b 315 728 360 789 338 758 b 250 576 283 682 257 632 b 206 386 240 511 221 449 b 189 243 194 339 188 292 b 189 207 189 231 188 219 b 210 143 189 183 196 163 "},"Ä":{"ha":574,"x_min":0,"x_max":0,"o":"m 282 961 b 254 981 272 965 263 972 l 229 1006 b 232 1069 210 1025 211 1051 b 235 1071 233 1069 235 1071 b 267 1090 246 1078 253 1092 b 314 1072 283 1088 300 1082 b 336 1054 322 1067 329 1060 b 349 1026 346 1047 350 1038 b 311 963 347 999 333 978 b 282 961 301 957 292 957 m 500 953 b 446 978 479 954 458 958 b 432 992 442 983 436 986 b 429 1060 411 1011 411 1039 b 453 1079 436 1068 444 1074 b 472 1083 458 1083 465 1085 b 517 1064 489 1081 504 1075 b 531 1040 524 1058 529 1050 b 533 1000 533 1028 535 1015 b 532 981 532 996 532 988 b 500 953 529 963 518 953 m 510 -53 b 397 -50 472 -54 435 -57 b 290 46 344 -39 310 -6 b 269 53 285 61 285 60 b 199 40 247 43 222 42 b 108 54 168 40 136 43 b 15 165 56 72 26 113 b 1 288 6 206 1 246 b 35 471 1 350 14 411 b 118 664 58 538 82 603 b 274 854 161 733 207 804 b 413 878 314 886 361 899 b 450 863 425 872 438 868 b 469 869 461 857 465 860 b 485 900 475 881 479 890 b 507 914 489 910 497 915 b 575 903 531 913 554 913 b 590 875 590 896 593 892 b 553 729 582 825 568 776 b 494 532 532 664 511 599 b 465 424 486 496 472 460 b 433 164 449 338 439 251 b 431 99 433 142 431 121 b 440 50 431 82 435 67 b 464 18 443 36 453 26 b 485 22 474 10 479 13 b 515 97 497 46 507 72 b 572 238 532 146 544 194 b 603 288 582 254 592 271 b 643 286 617 308 629 307 b 653 214 660 263 660 240 b 585 17 633 146 610 82 b 557 -26 579 0 568 -14 b 510 -53 544 -42 531 -51 m 210 143 b 244 146 225 119 233 119 b 300 328 271 204 292 264 b 361 585 311 415 329 501 b 439 788 389 651 411 721 b 433 821 444 801 443 811 b 418 835 428 826 424 831 b 390 833 408 844 399 843 b 381 821 386 831 383 826 b 315 728 360 789 338 758 b 250 576 283 682 257 632 b 206 386 240 511 221 449 b 189 243 194 339 188 292 b 189 207 189 231 188 219 b 210 143 189 183 196 163 "},"À":{"ha":574,"x_min":0,"x_max":0,"o":"m 433 982 b 371 1006 408 983 388 992 b 294 1061 344 1024 318 1042 b 258 1103 281 1072 269 1089 b 254 1118 257 1107 254 1111 b 269 1176 251 1138 258 1158 b 290 1186 275 1185 281 1186 b 354 1146 315 1181 340 1176 b 357 1144 357 1146 357 1144 b 386 1103 372 1135 379 1118 b 413 1063 393 1089 401 1076 b 444 1010 426 1046 435 1028 b 449 1003 449 1007 449 1006 b 450 985 451 999 454 992 b 433 982 444 978 438 982 m 510 -53 b 397 -50 472 -54 435 -57 b 290 46 344 -39 310 -6 b 269 53 285 61 285 60 b 199 40 247 43 222 42 b 108 54 168 40 136 43 b 15 165 56 72 26 113 b 1 288 6 206 1 246 b 35 471 1 350 14 411 b 118 664 58 538 82 603 b 274 854 161 733 207 804 b 413 878 314 886 361 899 b 450 863 425 872 438 868 b 469 869 461 857 465 860 b 485 900 475 881 479 890 b 507 914 489 910 497 915 b 575 903 531 913 554 913 b 590 875 590 896 593 892 b 553 729 582 825 568 776 b 494 532 532 664 511 599 b 465 424 486 496 472 460 b 433 164 449 338 439 251 b 431 99 433 142 431 121 b 440 50 431 82 435 67 b 464 18 443 36 453 26 b 485 22 474 10 479 13 b 515 97 497 46 507 72 b 572 238 532 146 544 194 b 603 288 582 254 592 271 b 643 286 617 308 629 307 b 653 214 660 263 660 240 b 585 17 633 146 610 82 b 557 -26 579 0 568 -14 b 510 -53 544 -42 531 -51 m 210 143 b 244 146 225 119 233 119 b 300 328 271 204 292 264 b 361 585 311 415 329 501 b 439 788 389 651 411 721 b 433 821 444 801 443 811 b 418 835 428 826 424 831 b 390 833 408 844 399 843 b 381 821 386 831 383 826 b 315 728 360 789 338 758 b 250 576 283 682 257 632 b 206 386 240 511 221 449 b 189 243 194 339 188 292 b 189 207 189 231 188 219 b 210 143 189 183 196 163 "},"Ā":{"ha":574,"x_min":0,"x_max":0,"o":"m 356 985 b 281 986 331 985 306 988 b 253 989 271 985 263 986 b 219 1039 231 997 222 1018 l 219 1051 b 228 1057 219 1056 222 1060 b 271 1054 243 1053 258 1053 b 397 1061 314 1057 356 1060 l 589 1065 b 611 1064 596 1065 603 1065 b 625 1046 622 1063 626 1056 b 622 1031 625 1040 622 1036 b 603 1003 621 1018 617 1007 b 564 990 592 997 576 996 b 539 989 556 988 546 989 b 521 989 533 990 528 990 b 479 988 508 986 493 986 b 451 986 471 989 461 988 b 411 986 438 982 425 986 b 388 985 404 986 396 986 b 356 985 376 985 367 986 m 510 -53 b 397 -50 472 -54 435 -57 b 290 46 344 -39 310 -6 b 269 53 285 61 285 60 b 199 40 247 43 222 42 b 108 54 168 40 136 43 b 15 165 56 72 26 113 b 1 288 6 206 1 246 b 35 471 1 350 14 411 b 118 664 58 538 82 603 b 274 854 161 733 207 804 b 413 878 314 886 361 899 b 450 863 425 872 438 868 b 469 869 461 857 465 860 b 485 900 475 881 479 890 b 507 914 489 910 497 915 b 575 903 531 913 554 913 b 590 875 590 896 593 892 b 553 729 582 825 568 776 b 494 532 532 664 511 599 b 465 424 486 496 472 460 b 433 164 449 338 439 251 b 431 99 433 142 431 121 b 440 50 431 82 435 67 b 464 18 443 36 453 26 b 485 22 474 10 479 13 b 515 97 497 46 507 72 b 572 238 532 146 544 194 b 603 288 582 254 592 271 b 643 286 617 308 629 307 b 653 214 660 263 660 240 b 585 17 633 146 610 82 b 557 -26 579 0 568 -14 b 510 -53 544 -42 531 -51 m 210 143 b 244 146 225 119 233 119 b 300 328 271 204 292 264 b 361 585 311 415 329 501 b 439 788 389 651 411 721 b 433 821 444 801 443 811 b 418 835 428 826 424 831 b 390 833 408 844 399 843 b 381 821 386 831 383 826 b 315 728 360 789 338 758 b 250 576 283 682 257 632 b 206 386 240 511 221 449 b 189 243 194 339 188 292 b 189 207 189 231 188 219 b 210 143 189 183 196 163 "},"Ą":{"ha":574,"x_min":0,"x_max":0,"o":"m 643 286 b 653 214 660 263 660 240 b 585 17 633 146 610 82 b 557 -26 579 0 568 -14 b 510 -53 544 -42 531 -51 b 397 -50 472 -54 435 -57 b 290 46 344 -39 310 -6 b 269 53 285 61 285 60 b 229 43 257 47 243 44 b 231 40 229 42 231 42 b 236 21 233 33 236 28 b 231 1 238 15 236 7 b 219 -11 226 -1 222 -6 b 190 -19 211 -18 201 -25 b 181 -21 188 -18 183 -19 b 176 -32 178 -24 178 -29 b 193 -78 174 -50 181 -64 b 221 -81 197 -83 214 -85 b 225 -75 222 -79 225 -78 b 240 -58 226 -65 235 -62 b 253 -60 244 -56 250 -56 b 258 -78 256 -64 260 -71 b 250 -107 258 -87 256 -99 b 218 -132 240 -118 231 -126 b 154 -125 200 -143 171 -142 b 142 -114 151 -121 147 -118 b 131 -94 136 -108 132 -101 b 149 -21 126 -67 132 -42 b 174 6 156 -11 163 -1 b 179 21 178 10 181 15 b 178 33 178 25 178 29 l 178 40 b 108 54 154 42 129 46 b 15 165 56 72 26 113 b 1 288 6 206 1 246 b 35 471 1 350 14 411 b 118 664 58 538 82 603 b 274 854 161 733 207 804 b 413 878 314 886 361 899 b 450 863 425 872 438 868 b 469 869 461 857 465 860 b 485 900 475 881 479 890 b 507 914 489 910 497 915 b 575 903 531 913 554 913 b 590 875 590 896 593 892 b 553 729 582 825 568 776 b 494 532 532 664 511 599 b 465 424 486 496 472 460 b 433 164 449 338 439 251 b 431 99 433 142 431 121 b 440 50 431 82 435 67 b 464 18 443 36 453 26 b 485 22 474 10 479 13 b 515 97 497 46 507 72 b 572 238 532 146 544 194 b 603 288 582 254 592 271 b 643 286 617 308 629 307 m 361 585 b 439 788 389 651 411 721 b 433 821 444 801 443 811 b 418 835 428 826 424 831 b 390 833 408 844 399 843 b 381 821 386 831 383 826 b 315 728 360 789 338 758 b 250 576 283 682 257 632 b 206 386 240 511 221 449 b 189 243 194 339 188 292 b 189 207 189 231 188 219 b 210 143 189 183 196 163 b 244 146 225 119 233 119 b 300 328 271 204 292 264 b 361 585 311 415 329 501 "},"Å":{"ha":574,"x_min":0,"x_max":0,"o":"m 415 942 b 371 965 399 944 383 951 b 346 1001 360 976 350 988 b 356 1072 338 1026 340 1050 l 383 1101 b 401 1113 389 1107 394 1110 l 408 1115 b 435 1118 417 1121 425 1121 b 474 1093 450 1114 464 1106 b 481 1081 478 1090 481 1086 b 488 1054 483 1072 485 1063 b 490 1039 490 1049 490 1044 l 490 1025 b 474 971 493 1004 486 986 b 471 967 472 969 471 968 b 426 942 461 950 444 944 b 415 942 424 940 419 942 m 422 992 b 439 1001 429 993 435 996 b 447 1019 444 1007 446 1013 b 449 1024 447 1021 449 1022 b 447 1049 453 1032 451 1040 b 439 1057 446 1051 443 1056 b 433 1064 438 1058 435 1061 b 419 1071 429 1067 425 1069 b 411 1068 417 1072 413 1071 b 401 1063 408 1065 406 1064 l 394 1056 b 383 1036 390 1049 386 1043 b 388 1004 378 1026 379 1011 l 400 994 b 414 990 404 990 408 989 m 510 -53 b 397 -50 472 -54 435 -57 b 290 46 344 -39 310 -6 b 269 53 285 61 285 60 b 199 40 247 43 222 42 b 108 54 168 40 136 43 b 15 165 56 72 26 113 b 1 288 6 206 1 246 b 35 471 1 350 14 411 b 118 664 58 538 82 603 b 274 854 161 733 207 804 b 413 878 314 886 361 899 b 450 863 425 872 438 868 b 469 869 461 857 465 860 b 485 900 475 881 479 890 b 507 914 489 910 497 915 b 575 903 531 913 554 913 b 590 875 590 896 593 892 b 553 729 582 825 568 776 b 494 532 532 664 511 599 b 465 424 486 496 472 460 b 433 164 449 338 439 251 b 431 99 433 142 431 121 b 440 50 431 82 435 67 b 464 18 443 36 453 26 b 485 22 474 10 479 13 b 515 97 497 46 507 72 b 572 238 532 146 544 194 b 603 288 582 254 592 271 b 643 286 617 308 629 307 b 653 214 660 263 660 240 b 585 17 633 146 610 82 b 557 -26 579 0 568 -14 b 510 -53 544 -42 531 -51 m 210 143 b 244 146 225 119 233 119 b 300 328 271 204 292 264 b 361 585 311 415 329 501 b 439 788 389 651 411 721 b 433 821 444 801 443 811 b 418 835 428 826 424 831 b 390 833 408 844 399 843 b 381 821 386 831 383 826 b 315 728 360 789 338 758 b 250 576 283 682 257 632 b 206 386 240 511 221 449 b 189 243 194 339 188 292 b 189 207 189 231 188 219 b 210 143 189 183 196 163 "},"Ã":{"ha":574,"x_min":0,"x_max":0,"o":"m 200 926 b 179 936 193 922 185 928 b 175 963 174 942 172 953 b 176 982 174 968 172 975 b 193 1010 182 992 186 1003 b 215 1033 200 1018 207 1026 b 244 1047 225 1039 235 1043 b 275 1057 254 1051 264 1054 b 307 1058 285 1058 296 1058 b 339 1060 317 1058 328 1061 b 367 1051 349 1058 357 1053 b 394 1044 376 1049 386 1047 b 422 1036 404 1043 413 1039 l 451 1032 b 482 1024 461 1029 471 1024 b 513 1029 492 1024 503 1025 b 539 1046 522 1032 532 1039 b 542 1053 540 1047 540 1051 b 564 1049 547 1058 558 1056 b 567 1026 568 1043 569 1035 b 558 1000 565 1017 561 1007 b 546 974 554 990 551 981 b 524 956 539 967 532 961 b 499 943 515 950 507 946 b 469 940 489 942 479 942 b 442 939 461 940 451 938 b 414 946 432 940 422 943 b 386 956 404 949 394 953 b 357 965 376 960 367 961 b 328 974 347 968 338 972 b 299 976 318 976 308 976 b 269 978 289 978 279 979 b 240 968 260 975 250 974 b 235 964 239 967 236 967 b 218 946 229 960 224 953 b 200 929 213 940 204 936 b 200 926 199 929 200 926 m 510 -53 b 397 -50 472 -54 435 -57 b 290 46 344 -39 310 -6 b 269 53 285 61 285 60 b 199 40 247 43 222 42 b 108 54 168 40 136 43 b 15 165 56 72 26 113 b 1 288 6 206 1 246 b 35 471 1 350 14 411 b 118 664 58 538 82 603 b 274 854 161 733 207 804 b 413 878 314 886 361 899 b 450 863 425 872 438 868 b 469 869 461 857 465 860 b 485 900 475 881 479 890 b 507 914 489 910 497 915 b 575 903 531 913 554 913 b 590 875 590 896 593 892 b 553 729 582 825 568 776 b 494 532 532 664 511 599 b 465 424 486 496 472 460 b 433 164 449 338 439 251 b 431 99 433 142 431 121 b 440 50 431 82 435 67 b 464 18 443 36 453 26 b 485 22 474 10 479 13 b 515 97 497 46 507 72 b 572 238 532 146 544 194 b 603 288 582 254 592 271 b 643 286 617 308 629 307 b 653 214 660 263 660 240 b 585 17 633 146 610 82 b 557 -26 579 0 568 -14 b 510 -53 544 -42 531 -51 m 210 143 b 244 146 225 119 233 119 b 300 328 271 204 292 264 b 361 585 311 415 329 501 b 439 788 389 651 411 721 b 433 821 444 801 443 811 b 418 835 428 826 424 831 b 390 833 408 844 399 843 b 381 821 386 831 383 826 b 315 728 360 789 338 758 b 250 576 283 682 257 632 b 206 386 240 511 221 449 b 189 243 194 339 188 292 b 189 207 189 231 188 219 b 210 143 189 183 196 163 "},"Æ":{"ha":1140,"x_min":0,"x_max":0,"o":"m 1139 326 b 1138 292 1140 317 1143 304 b 1122 242 1131 278 1129 260 b 1107 203 1114 226 1107 217 b 1101 186 1107 196 1103 189 b 993 35 1082 154 1068 121 b 778 -96 925 -42 865 -93 b 751 -97 769 -97 760 -97 b 636 -72 708 -97 671 -89 b 560 -22 610 -58 583 -43 b 557 -26 560 -24 558 -25 b 510 -53 544 -42 531 -51 b 397 -50 472 -54 435 -57 b 290 46 344 -39 310 -6 b 269 53 285 61 285 60 b 199 40 247 43 222 42 b 108 54 168 40 136 43 b 15 165 56 72 26 113 b 1 288 6 206 1 246 b 35 471 1 350 14 411 b 118 664 58 538 82 603 b 274 854 161 733 207 804 b 413 878 314 886 361 899 b 450 863 425 872 438 868 b 469 869 461 857 465 860 b 485 900 475 881 479 890 b 507 914 489 910 497 915 b 575 903 531 913 554 913 b 590 875 590 896 593 892 b 553 729 582 825 568 776 b 494 532 532 664 511 599 b 465 424 486 496 472 460 b 433 164 449 338 439 251 b 431 99 433 142 431 121 b 440 50 431 82 435 67 b 464 18 443 36 453 26 b 485 22 474 10 479 13 b 504 67 492 36 499 51 b 489 128 499 86 493 107 b 510 275 485 172 490 218 b 539 349 518 301 526 325 b 601 418 554 376 575 399 l 657 458 b 681 674 628 529 625 608 b 789 774 711 711 742 761 b 863 825 844 788 851 803 b 894 861 869 843 885 854 b 949 858 913 875 936 874 b 946 804 961 846 961 818 b 925 778 936 794 931 786 l 981 739 b 996 624 1017 718 1024 656 b 924 597 976 601 950 592 b 876 674 893 606 889 650 b 871 683 875 676 874 676 l 872 685 l 814 640 b 779 549 785 618 779 583 b 778 490 779 538 779 503 b 914 464 825 496 854 489 b 954 411 936 456 950 436 b 954 365 956 397 957 381 b 910 322 950 342 932 324 b 757 353 847 318 799 328 b 747 342 751 356 751 344 b 704 290 717 317 728 319 b 679 242 693 276 686 260 b 657 136 669 207 661 172 b 671 68 654 113 660 89 b 751 -1 696 24 708 6 b 821 6 781 -4 788 -18 b 910 79 849 25 890 51 b 928 103 915 88 922 96 b 1051 275 954 133 1029 224 b 1082 328 1060 300 1060 311 b 1119 339 1096 338 1108 339 b 1139 326 1135 339 1136 340 m 361 585 b 439 788 389 651 411 721 b 433 821 444 801 443 811 b 418 835 428 826 424 831 b 390 833 408 844 399 843 b 381 821 386 831 383 826 b 315 728 360 789 338 758 b 250 576 283 682 257 632 b 206 386 240 511 221 449 b 189 243 194 339 188 292 b 189 207 189 231 188 219 b 210 143 189 183 196 163 b 244 146 225 119 233 119 b 300 328 271 204 292 264 b 361 585 311 415 329 501 m 908 697 b 914 672 908 689 910 682 l 917 674 b 932 690 925 676 929 681 b 926 708 933 697 931 704 b 915 704 926 707 924 706 l 913 703 l 908 700 m 803 419 b 799 411 806 421 801 410 b 833 399 808 404 818 400 b 846 403 836 399 840 400 b 861 424 851 408 857 414 l 863 426 b 857 428 860 428 858 428 b 803 419 836 424 824 432 "},"B":{"ha":646,"x_min":0,"x_max":0,"o":"m 710 322 b 757 297 722 319 743 342 b 718 208 746 268 742 268 b 701 179 713 194 719 214 b 681 142 683 144 700 169 b 629 83 661 114 675 133 b 556 11 588 39 574 22 b 525 -4 546 4 535 0 l 513 -19 b 478 -72 499 -36 490 -56 b 374 -151 450 -110 413 -131 b 342 -167 364 -157 353 -161 b 131 -169 272 -203 201 -200 b 94 -143 117 -162 106 -154 b 63 -119 85 -135 75 -125 b 50 -100 54 -115 51 -108 b 92 58 39 -40 57 11 b 103 94 100 69 103 81 b 114 379 108 189 113 283 l 114 411 b 101 432 114 421 110 428 b 43 517 64 447 44 475 b 60 651 42 563 42 608 b 204 764 86 715 136 751 b 257 769 225 768 246 769 b 374 744 304 769 340 764 b 450 635 415 719 443 685 b 438 494 457 588 456 540 b 415 453 431 479 424 465 b 421 438 408 444 411 440 b 464 424 436 433 450 429 b 533 374 485 414 517 390 b 574 131 569 338 582 218 b 619 182 589 143 603 160 l 671 292 b 683 314 676 303 679 310 b 710 322 688 318 696 325 m 214 676 b 208 657 207 671 204 665 b 233 511 229 611 233 561 l 233 486 b 235 460 233 478 235 469 b 253 451 236 444 239 443 b 351 564 297 479 328 518 b 361 679 371 600 369 640 b 333 706 357 693 347 704 b 214 676 290 710 250 701 m 425 382 b 333 368 393 388 363 386 b 308 356 326 363 317 358 b 246 353 288 349 268 339 b 239 347 242 356 239 353 l 239 338 l 242 338 b 233 61 242 311 251 218 b 228 22 233 49 231 35 b 258 24 235 22 244 24 b 290 26 275 24 279 24 b 342 38 301 29 319 32 b 407 53 364 43 390 46 b 432 61 415 57 422 58 b 486 246 468 114 486 175 b 454 367 486 251 464 358 b 425 382 446 374 436 381 m 150 -103 b 325 -37 213 -94 271 -71 b 296 -40 318 -37 321 -36 b 256 -47 264 -46 275 -40 b 226 -57 236 -54 240 -54 b 222 -58 225 -57 224 -58 b 208 -67 219 -62 215 -65 b 172 -67 196 -69 183 -69 b 136 -85 151 -61 144 -65 b 133 -100 133 -89 129 -94 b 150 -103 138 -106 144 -104 "},"C":{"ha":515,"x_min":0,"x_max":0,"o":"m 289 -54 b 194 -57 257 -58 226 -58 b 49 53 121 -54 76 -11 b 17 183 29 96 25 142 b 26 385 13 253 17 319 b 131 657 40 483 78 571 b 311 824 175 729 235 785 l 332 835 b 353 864 346 840 351 851 b 375 940 354 890 364 915 b 408 976 383 956 393 968 b 450 960 428 993 446 986 b 451 938 453 951 453 944 b 435 869 442 915 444 892 b 446 854 432 860 436 854 b 513 822 471 850 493 836 b 531 792 524 815 531 804 b 524 725 531 769 531 746 b 425 699 510 678 461 667 l 381 738 b 363 736 374 744 367 743 b 322 693 346 724 332 710 b 276 615 306 668 286 644 b 258 572 272 600 265 588 b 244 538 251 561 246 551 b 206 408 235 493 217 451 b 171 238 188 353 174 294 b 211 97 169 188 188 140 b 254 42 224 75 236 57 b 347 46 286 15 318 15 b 446 201 385 113 419 153 b 542 383 479 260 514 319 b 567 433 549 399 556 417 b 604 451 574 447 588 454 l 614 451 b 639 415 644 447 642 446 b 574 199 629 339 599 268 b 506 94 560 160 533 125 b 399 -19 479 49 444 7 b 289 -54 364 -40 326 -47 m 433 742 b 457 776 442 740 456 763 l 456 779 b 440 806 454 792 451 803 b 418 794 432 810 425 801 b 417 775 414 790 415 785 b 433 742 419 765 419 749 "},"Ć":{"ha":515,"x_min":0,"x_max":0,"o":"m 310 956 b 264 960 289 940 279 943 b 261 1004 249 976 247 988 b 346 1115 292 1038 315 1081 b 408 1144 364 1133 381 1149 b 461 1128 429 1146 446 1138 b 468 1068 481 1113 482 1088 b 424 1032 456 1056 440 1040 l 397 1013 b 340 974 381 997 360 988 b 315 960 332 969 324 965 b 310 956 315 957 313 956 m 289 -54 b 194 -57 257 -58 226 -58 b 49 53 121 -54 76 -11 b 17 183 29 96 25 142 b 26 385 13 253 17 319 b 131 657 40 483 78 571 b 311 824 175 729 235 785 l 332 835 b 353 864 346 840 351 851 b 375 940 354 890 364 915 b 408 976 383 956 393 968 b 450 960 428 993 446 986 b 451 938 453 951 453 944 b 435 869 442 915 444 892 b 446 854 432 860 436 854 b 513 822 471 850 493 836 b 531 792 524 815 531 804 b 524 725 531 769 531 746 b 425 699 510 678 461 667 l 381 738 b 363 736 374 744 367 743 b 322 693 346 724 332 710 b 276 615 306 668 286 644 b 258 572 272 600 265 588 b 244 538 251 561 246 551 b 206 408 235 493 217 451 b 171 238 188 353 174 294 b 211 97 169 188 188 140 b 254 42 224 75 236 57 b 347 46 286 15 318 15 b 446 201 385 113 419 153 b 542 383 479 260 514 319 b 567 433 549 399 556 417 b 604 451 574 447 588 454 l 614 451 b 639 415 644 447 642 446 b 574 199 629 339 599 268 b 506 94 560 160 533 125 b 399 -19 479 49 444 7 b 289 -54 364 -40 326 -47 m 433 742 b 457 776 442 740 456 763 l 456 779 b 440 806 454 792 451 803 b 418 794 432 810 425 801 b 417 775 414 790 415 785 b 433 742 419 765 419 749 "},"Č":{"ha":515,"x_min":0,"x_max":0,"o":"m 471 1192 b 506 1192 482 1200 496 1200 b 518 1183 510 1188 513 1186 b 524 1160 528 1176 531 1171 b 503 1132 517 1150 511 1142 b 464 1086 489 1117 476 1103 b 394 1007 443 1058 421 1031 b 374 996 388 1003 381 999 b 347 1000 364 992 354 993 b 311 1038 336 1014 324 1026 b 243 1110 288 1060 261 1082 b 225 1136 236 1118 229 1128 b 215 1146 221 1139 218 1143 b 221 1165 213 1156 214 1163 b 268 1164 233 1172 257 1171 b 275 1158 269 1163 271 1158 b 344 1096 278 1157 332 1111 b 364 1076 350 1089 357 1082 b 381 1079 372 1069 374 1069 b 400 1104 386 1088 393 1096 b 450 1174 415 1129 429 1153 b 471 1192 457 1181 463 1188 m 289 -54 b 194 -57 257 -58 226 -58 b 49 53 121 -54 76 -11 b 17 183 29 96 25 142 b 26 385 13 253 17 319 b 131 657 40 483 78 571 b 311 824 175 729 235 785 l 332 835 b 353 864 346 840 351 851 b 375 940 354 890 364 915 b 408 976 383 956 393 968 b 450 960 428 993 446 986 b 451 938 453 951 453 944 b 435 869 442 915 444 892 b 446 854 432 860 436 854 b 513 822 471 850 493 836 b 531 792 524 815 531 804 b 524 725 531 769 531 746 b 425 699 510 678 461 667 l 381 738 b 363 736 374 744 367 743 b 322 693 346 724 332 710 b 276 615 306 668 286 644 b 258 572 272 600 265 588 b 244 538 251 561 246 551 b 206 408 235 493 217 451 b 171 238 188 353 174 294 b 211 97 169 188 188 140 b 254 42 224 75 236 57 b 347 46 286 15 318 15 b 446 201 385 113 419 153 b 542 383 479 260 514 319 b 567 433 549 399 556 417 b 604 451 574 447 588 454 l 614 451 b 639 415 644 447 642 446 b 574 199 629 339 599 268 b 506 94 560 160 533 125 b 399 -19 479 49 444 7 b 289 -54 364 -40 326 -47 m 433 742 b 457 776 442 740 456 763 l 456 779 b 440 806 454 792 451 803 b 418 794 432 810 425 801 b 417 775 414 790 415 785 b 433 742 419 765 419 749 "},"Ç":{"ha":515,"x_min":0,"x_max":0,"o":"m 614 451 b 639 415 644 447 642 446 b 574 199 629 339 599 268 b 506 94 560 160 533 125 b 399 -19 479 49 444 7 b 289 -54 364 -40 326 -47 b 260 -57 279 -56 269 -57 l 260 -65 b 258 -78 260 -69 260 -74 b 264 -93 257 -83 260 -89 b 289 -119 275 -100 282 -110 b 307 -193 306 -140 311 -165 b 296 -212 306 -200 301 -207 b 283 -224 290 -217 286 -219 b 219 -231 267 -240 238 -242 b 188 -206 207 -225 197 -217 b 179 -176 182 -197 179 -186 b 185 -158 178 -169 182 -162 b 197 -157 188 -154 193 -154 b 213 -174 203 -161 211 -164 b 217 -179 213 -176 215 -178 b 244 -176 224 -183 240 -182 b 261 -131 257 -162 264 -149 b 257 -119 260 -128 260 -122 b 247 -118 254 -118 250 -117 b 218 -110 236 -124 226 -117 b 207 -97 215 -104 211 -100 b 201 -78 201 -92 200 -83 b 207 -58 201 -71 204 -65 l 207 -57 b 194 -57 203 -57 199 -57 b 49 53 121 -54 76 -11 b 17 183 29 96 25 142 b 26 385 13 253 17 319 b 131 657 40 483 78 571 b 311 824 175 729 235 785 l 332 835 b 353 864 346 840 351 851 b 375 940 354 890 364 915 b 408 976 383 956 393 968 b 450 960 428 993 446 986 b 451 938 453 951 453 944 b 435 869 442 915 444 892 b 446 854 432 860 436 854 b 513 822 471 850 493 836 b 531 792 524 815 531 804 b 524 725 531 769 531 746 b 425 699 510 678 461 667 l 381 738 b 363 736 374 744 367 743 b 322 693 346 724 332 710 b 276 615 306 668 286 644 b 258 572 272 600 265 588 b 244 538 251 561 246 551 b 206 408 235 493 217 451 b 171 238 188 353 174 294 b 211 97 169 188 188 140 b 254 42 224 75 236 57 b 347 46 286 15 318 15 b 446 201 385 113 419 153 b 542 383 479 260 514 319 b 567 433 549 399 556 417 b 604 451 574 447 588 454 l 614 451 m 418 794 b 417 775 414 790 415 785 b 433 742 419 765 419 749 b 457 776 442 740 456 763 l 456 779 b 440 806 454 792 451 803 b 418 794 432 810 425 801 "},"Ċ":{"ha":515,"x_min":0,"x_max":0,"o":"m 361 1018 b 307 1043 340 1019 319 1024 b 293 1057 303 1049 297 1051 b 290 1125 272 1076 272 1104 b 314 1144 297 1133 306 1139 b 333 1149 319 1149 326 1150 b 378 1129 350 1146 365 1140 b 392 1106 385 1124 390 1115 b 394 1065 394 1093 396 1081 b 393 1046 393 1061 393 1053 b 361 1018 390 1028 379 1018 m 289 -54 b 194 -57 257 -58 226 -58 b 49 53 121 -54 76 -11 b 17 183 29 96 25 142 b 26 385 13 253 17 319 b 131 657 40 483 78 571 b 311 824 175 729 235 785 l 332 835 b 353 864 346 840 351 851 b 375 940 354 890 364 915 b 408 976 383 956 393 968 b 450 960 428 993 446 986 b 451 938 453 951 453 944 b 435 869 442 915 444 892 b 446 854 432 860 436 854 b 513 822 471 850 493 836 b 531 792 524 815 531 804 b 524 725 531 769 531 746 b 425 699 510 678 461 667 l 381 738 b 363 736 374 744 367 743 b 322 693 346 724 332 710 b 276 615 306 668 286 644 b 258 572 272 600 265 588 b 244 538 251 561 246 551 b 206 408 235 493 217 451 b 171 238 188 353 174 294 b 211 97 169 188 188 140 b 254 42 224 75 236 57 b 347 46 286 15 318 15 b 446 201 385 113 419 153 b 542 383 479 260 514 319 b 567 433 549 399 556 417 b 604 451 574 447 588 454 l 614 451 b 639 415 644 447 642 446 b 574 199 629 339 599 268 b 506 94 560 160 533 125 b 399 -19 479 49 444 7 b 289 -54 364 -40 326 -47 m 433 742 b 457 776 442 740 456 763 l 456 779 b 440 806 454 792 451 803 b 418 794 432 810 425 801 b 417 775 414 790 415 785 b 433 742 419 765 419 749 "},"D":{"ha":776,"x_min":0,"x_max":0,"o":"m 876 290 b 869 269 878 283 875 275 l 856 254 l 844 240 l 829 226 l 815 214 l 800 201 l 786 189 b 772 175 781 185 776 181 l 756 164 l 740 153 l 724 142 l 708 131 l 692 121 l 674 111 b 656 101 668 107 661 106 b 638 92 650 97 643 96 b 626 86 633 90 631 88 l 614 53 b 569 -7 603 31 586 11 b 526 -56 554 -22 538 -37 b 472 -111 513 -79 494 -97 b 443 -147 460 -119 451 -133 b 410 -179 435 -160 422 -169 b 343 -215 388 -193 368 -207 b 261 -232 315 -225 289 -232 b 129 -196 214 -231 169 -222 b 57 -82 88 -168 68 -128 b 54 -69 56 -78 56 -74 b 51 -53 53 -65 51 -58 b 53 -32 50 -46 50 -39 b 60 -15 54 -25 56 -19 b 61 -10 60 -12 61 -11 b 69 4 64 -4 67 0 l 85 17 b 101 26 90 21 94 24 b 118 36 107 31 111 33 l 153 49 l 190 60 b 208 64 196 61 203 61 l 214 65 b 214 92 214 74 214 83 b 213 110 214 97 213 103 l 213 124 b 199 286 214 179 207 232 b 179 589 183 386 175 488 b 153 607 179 614 178 615 b 89 585 132 600 111 590 b 8 613 56 575 28 585 l -8 633 b 0 657 -18 644 -14 654 b 26 668 10 658 17 664 b 142 714 63 686 100 707 b 532 617 286 740 418 713 b 619 488 572 582 599 536 b 658 342 640 442 649 392 b 654 232 664 306 658 269 b 647 186 654 226 651 208 l 706 224 l 742 254 b 790 303 746 257 786 299 b 803 315 794 307 800 311 l 817 328 b 840 335 824 333 832 335 b 867 311 847 333 860 317 b 876 290 871 306 875 297 m 304 611 b 306 579 303 601 303 590 b 315 450 317 536 315 493 b 317 360 315 419 313 389 b 332 194 324 306 324 250 b 335 88 332 181 332 126 l 353 92 l 372 97 b 390 103 378 97 385 101 b 408 106 396 104 403 106 b 428 110 415 108 422 110 b 447 115 435 113 440 114 l 465 121 b 485 125 471 122 478 122 b 501 131 490 126 497 128 b 521 135 508 132 515 132 b 542 139 528 138 535 138 b 551 203 550 160 554 182 l 553 208 b 564 336 563 250 561 292 b 539 471 564 381 553 426 b 418 597 518 532 479 575 b 378 614 404 601 390 608 b 321 626 360 622 340 625 b 304 611 308 628 304 624 m 360 -43 b 449 24 393 -25 421 0 l 431 21 b 410 17 424 18 417 18 l 390 13 l 371 10 b 351 8 365 8 358 8 b 333 7 346 7 339 6 b 335 -11 333 0 333 -6 b 335 -29 335 -17 333 -22 b 336 -53 335 -37 329 -49 b 360 -43 343 -57 351 -47 m 163 8 b 164 8 163 8 164 8 m 171 -92 b 179 -86 174 -92 178 -89 b 200 -15 188 -64 194 -39 l 189 -19 b 178 -24 185 -21 181 -21 b 169 -29 175 -24 172 -26 l 167 -29 b 161 -36 164 -31 163 -33 b 157 -37 160 -36 158 -37 b 153 -43 156 -39 154 -40 b 151 -46 151 -43 150 -44 b 150 -49 150 -47 150 -47 b 147 -51 149 -49 149 -50 l 147 -53 b 146 -54 147 -51 147 -51 l 147 -57 b 149 -56 147 -57 147 -56 b 147 -58 147 -57 147 -57 b 146 -58 147 -57 146 -56 l 146 -62 l 146 -64 b 151 -69 147 -67 150 -68 b 153 -74 151 -71 153 -72 l 153 -75 b 168 -92 161 -79 167 -85 b 171 -100 169 -94 169 -97 b 171 -92 174 -99 172 -96 "},"Ð":{"ha":776,"x_min":0,"x_max":0,"o":"m 876 290 b 869 269 878 283 875 275 l 856 254 l 844 240 l 829 226 l 815 214 l 800 201 l 786 189 b 772 175 781 185 776 181 l 756 164 l 740 153 l 724 142 l 708 131 l 692 121 l 674 111 b 656 101 668 107 661 106 b 638 92 650 97 643 96 b 626 86 633 90 631 88 l 614 53 b 569 -7 603 31 586 11 b 526 -56 554 -22 538 -37 b 472 -111 513 -79 494 -97 b 443 -147 460 -119 451 -133 b 410 -179 435 -160 422 -169 b 343 -215 388 -193 368 -207 b 261 -232 315 -225 289 -232 b 129 -196 214 -231 169 -222 b 57 -82 88 -168 68 -128 b 54 -69 56 -78 56 -74 b 51 -53 53 -65 51 -58 b 53 -32 50 -46 50 -39 b 60 -15 54 -25 56 -19 b 61 -10 60 -12 61 -11 b 69 4 64 -4 67 0 l 85 17 b 101 26 90 21 94 24 b 118 36 107 31 111 33 l 153 49 l 190 60 b 208 64 196 61 203 61 l 214 65 b 214 92 214 74 214 83 b 213 110 214 97 213 103 l 213 124 b 199 286 214 179 207 232 l 199 288 b 197 288 199 288 197 288 b 156 288 183 286 169 289 b 54 289 122 288 89 290 b 18 293 43 288 31 289 b -28 360 -11 306 -22 332 b -26 375 -28 364 -28 371 b -15 383 -26 382 -22 386 b 43 381 6 378 25 379 b 186 388 90 385 139 386 b 179 589 179 454 176 522 b 153 607 179 614 178 615 b 89 585 132 600 111 590 b 8 613 56 575 28 585 l -8 633 b 0 657 -18 644 -14 654 b 26 668 10 658 17 664 b 142 714 63 686 100 707 b 532 617 286 740 418 713 b 619 488 572 582 599 536 b 658 342 640 442 649 392 b 654 232 664 306 658 269 b 647 186 654 226 651 208 l 706 224 l 742 254 b 790 303 746 257 786 299 b 803 315 794 307 800 311 l 817 328 b 840 335 824 333 832 335 b 867 311 847 333 860 317 b 876 290 871 306 875 297 m 304 611 b 306 579 303 601 303 590 b 315 450 317 536 315 493 b 314 392 315 431 314 411 l 467 396 b 494 394 475 396 485 396 b 513 368 510 392 517 382 b 510 350 513 363 511 354 b 483 311 508 332 501 318 b 433 296 468 306 450 301 b 400 294 422 290 410 293 b 376 293 392 296 383 296 b 324 290 358 289 340 289 b 332 194 325 258 328 226 b 335 88 332 181 332 126 l 353 92 l 372 97 b 390 103 378 97 385 101 b 408 106 396 104 403 106 b 428 110 415 108 422 110 b 447 115 435 113 440 114 l 465 121 b 485 125 471 122 478 122 b 501 131 490 126 497 128 b 521 135 508 132 515 132 b 542 139 528 138 535 138 b 551 203 550 160 554 182 l 553 208 b 564 336 563 250 561 292 b 539 471 564 381 553 426 b 418 597 518 532 479 575 b 378 614 404 601 390 608 b 321 626 360 622 340 625 b 304 611 308 628 304 624 m 360 -43 b 449 24 393 -25 421 0 l 431 21 b 410 17 424 18 417 18 l 390 13 l 371 10 b 351 8 365 8 358 8 b 333 7 346 7 339 6 b 335 -11 333 0 333 -6 b 335 -29 335 -17 333 -22 b 336 -53 335 -37 329 -49 b 360 -43 343 -57 351 -47 m 163 8 b 164 8 163 8 164 8 m 171 -92 b 179 -86 174 -92 178 -89 b 200 -15 188 -64 194 -39 l 189 -19 b 178 -24 185 -21 181 -21 b 169 -29 175 -24 172 -26 l 167 -29 b 161 -36 164 -31 163 -33 b 157 -37 160 -36 158 -37 b 153 -43 156 -39 154 -40 b 151 -46 151 -43 150 -44 b 150 -49 150 -47 150 -47 b 147 -51 149 -49 149 -50 l 147 -53 b 146 -54 147 -51 147 -51 l 147 -57 b 149 -56 147 -57 147 -56 b 147 -58 147 -57 147 -57 b 146 -58 147 -57 146 -56 l 146 -62 l 146 -64 b 151 -69 147 -67 150 -68 b 153 -74 151 -71 153 -72 l 153 -75 b 168 -92 161 -79 167 -85 b 171 -100 169 -94 169 -97 b 171 -92 174 -99 172 -96 "},"Ď":{"ha":776,"x_min":0,"x_max":0,"o":"m 125 964 b 115 974 121 967 118 971 b 121 993 113 983 114 990 b 168 992 133 1000 157 999 b 175 986 169 990 171 986 b 244 924 178 985 232 939 b 264 904 250 917 257 910 b 281 907 272 897 274 897 b 300 932 286 915 293 924 b 350 1001 315 957 329 981 b 371 1019 357 1008 363 1015 b 406 1019 382 1028 396 1028 b 418 1011 410 1015 413 1014 b 424 988 428 1004 431 999 b 403 960 417 978 411 969 b 364 914 389 944 376 931 b 294 835 343 886 321 858 b 274 824 288 831 281 826 b 247 828 264 819 254 821 b 211 865 236 842 224 854 b 143 938 188 888 161 910 b 125 964 136 946 129 956 m 876 290 b 869 269 878 283 875 275 l 856 254 l 844 240 l 829 226 l 815 214 l 800 201 l 786 189 b 772 175 781 185 776 181 l 756 164 l 740 153 l 724 142 l 708 131 l 692 121 l 674 111 b 656 101 668 107 661 106 b 638 92 650 97 643 96 b 626 86 633 90 631 88 l 614 53 b 569 -7 603 31 586 11 b 526 -56 554 -22 538 -37 b 472 -111 513 -79 494 -97 b 443 -147 460 -119 451 -133 b 410 -179 435 -160 422 -169 b 343 -215 388 -193 368 -207 b 261 -232 315 -225 289 -232 b 129 -196 214 -231 169 -222 b 57 -82 88 -168 68 -128 b 54 -69 56 -78 56 -74 b 51 -53 53 -65 51 -58 b 53 -32 50 -46 50 -39 b 60 -15 54 -25 56 -19 b 61 -10 60 -12 61 -11 b 69 4 64 -4 67 0 l 85 17 b 101 26 90 21 94 24 b 118 36 107 31 111 33 l 153 49 l 190 60 b 208 64 196 61 203 61 l 214 65 b 214 92 214 74 214 83 b 213 110 214 97 213 103 l 213 124 b 199 286 214 179 207 232 b 179 589 183 386 175 488 b 153 607 179 614 178 615 b 89 585 132 600 111 590 b 8 613 56 575 28 585 l -8 633 b 0 657 -18 644 -14 654 b 26 668 10 658 17 664 b 142 714 63 686 100 707 b 532 617 286 740 418 713 b 619 488 572 582 599 536 b 658 342 640 442 649 392 b 654 232 664 306 658 269 b 647 186 654 226 651 208 l 706 224 l 742 254 b 790 303 746 257 786 299 b 803 315 794 307 800 311 l 817 328 b 840 335 824 333 832 335 b 867 311 847 333 860 317 b 876 290 871 306 875 297 m 304 611 b 306 579 303 601 303 590 b 315 450 317 536 315 493 b 317 360 315 419 313 389 b 332 194 324 306 324 250 b 335 88 332 181 332 126 l 353 92 l 372 97 b 390 103 378 97 385 101 b 408 106 396 104 403 106 b 428 110 415 108 422 110 b 447 115 435 113 440 114 l 465 121 b 485 125 471 122 478 122 b 501 131 490 126 497 128 b 521 135 508 132 515 132 b 542 139 528 138 535 138 b 551 203 550 160 554 182 l 553 208 b 564 336 563 250 561 292 b 539 471 564 381 553 426 b 418 597 518 532 479 575 b 378 614 404 601 390 608 b 321 626 360 622 340 625 b 304 611 308 628 304 624 m 360 -43 b 449 24 393 -25 421 0 l 431 21 b 410 17 424 18 417 18 l 390 13 l 371 10 b 351 8 365 8 358 8 b 333 7 346 7 339 6 b 335 -11 333 0 333 -6 b 335 -29 335 -17 333 -22 b 336 -53 335 -37 329 -49 b 360 -43 343 -57 351 -47 m 163 8 b 164 8 163 8 164 8 m 171 -92 b 179 -86 174 -92 178 -89 b 200 -15 188 -64 194 -39 l 189 -19 b 178 -24 185 -21 181 -21 b 169 -29 175 -24 172 -26 l 167 -29 b 161 -36 164 -31 163 -33 b 157 -37 160 -36 158 -37 b 153 -43 156 -39 154 -40 b 151 -46 151 -43 150 -44 b 150 -49 150 -47 150 -47 b 147 -51 149 -49 149 -50 l 147 -53 b 146 -54 147 -51 147 -51 l 147 -57 b 149 -56 147 -57 147 -56 b 147 -58 147 -57 147 -57 b 146 -58 147 -57 146 -56 l 146 -62 l 146 -64 b 151 -69 147 -67 150 -68 b 153 -74 151 -71 153 -72 l 153 -75 b 168 -92 161 -79 167 -85 b 171 -100 169 -94 169 -97 b 171 -92 174 -99 172 -96 "},"Đ":{"ha":776,"x_min":0,"x_max":0,"o":"m 876 290 b 869 269 878 283 875 275 l 856 254 l 844 240 l 829 226 l 815 214 l 800 201 l 786 189 b 772 175 781 185 776 181 l 756 164 l 740 153 l 724 142 l 708 131 l 692 121 l 674 111 b 656 101 668 107 661 106 b 638 92 650 97 643 96 b 626 86 633 90 631 88 l 614 53 b 569 -7 603 31 586 11 b 526 -56 554 -22 538 -37 b 472 -111 513 -79 494 -97 b 443 -147 460 -119 451 -133 b 410 -179 435 -160 422 -169 b 343 -215 388 -193 368 -207 b 261 -232 315 -225 289 -232 b 129 -196 214 -231 169 -222 b 57 -82 88 -168 68 -128 b 54 -69 56 -78 56 -74 b 51 -53 53 -65 51 -58 b 53 -32 50 -46 50 -39 b 60 -15 54 -25 56 -19 b 61 -10 60 -12 61 -11 b 69 4 64 -4 67 0 l 85 17 b 101 26 90 21 94 24 b 118 36 107 31 111 33 l 153 49 l 190 60 b 208 64 196 61 203 61 l 214 65 b 214 92 214 74 214 83 b 213 110 214 97 213 103 l 213 124 b 199 286 214 179 207 232 l 199 288 b 197 288 199 288 197 288 b 156 288 183 286 169 289 b 54 289 122 288 89 290 b 18 293 43 288 31 289 b -28 360 -11 306 -22 332 b -26 375 -28 364 -28 371 b -15 383 -26 382 -22 386 b 43 381 6 378 25 379 b 186 388 90 385 139 386 b 179 589 179 454 176 522 b 153 607 179 614 178 615 b 89 585 132 600 111 590 b 8 613 56 575 28 585 l -8 633 b 0 657 -18 644 -14 654 b 26 668 10 658 17 664 b 142 714 63 686 100 707 b 532 617 286 740 418 713 b 619 488 572 582 599 536 b 658 342 640 442 649 392 b 654 232 664 306 658 269 b 647 186 654 226 651 208 l 706 224 l 742 254 b 790 303 746 257 786 299 b 803 315 794 307 800 311 l 817 328 b 840 335 824 333 832 335 b 867 311 847 333 860 317 b 876 290 871 306 875 297 m 304 611 b 306 579 303 601 303 590 b 315 450 317 536 315 493 b 314 392 315 431 314 411 l 467 396 b 494 394 475 396 485 396 b 513 368 510 392 517 382 b 510 350 513 363 511 354 b 483 311 508 332 501 318 b 433 296 468 306 450 301 b 400 294 422 290 410 293 b 376 293 392 296 383 296 b 324 290 358 289 340 289 b 332 194 325 258 328 226 b 335 88 332 181 332 126 l 353 92 l 372 97 b 390 103 378 97 385 101 b 408 106 396 104 403 106 b 428 110 415 108 422 110 b 447 115 435 113 440 114 l 465 121 b 485 125 471 122 478 122 b 501 131 490 126 497 128 b 521 135 508 132 515 132 b 542 139 528 138 535 138 b 551 203 550 160 554 182 l 553 208 b 564 336 563 250 561 292 b 539 471 564 381 553 426 b 418 597 518 532 479 575 b 378 614 404 601 390 608 b 321 626 360 622 340 625 b 304 611 308 628 304 624 m 360 -43 b 449 24 393 -25 421 0 l 431 21 b 410 17 424 18 417 18 l 390 13 l 371 10 b 351 8 365 8 358 8 b 333 7 346 7 339 6 b 335 -11 333 0 333 -6 b 335 -29 335 -17 333 -22 b 336 -53 335 -37 329 -49 b 360 -43 343 -57 351 -47 m 163 8 b 164 8 163 8 164 8 m 171 -92 b 179 -86 174 -92 178 -89 b 200 -15 188 -64 194 -39 l 189 -19 b 178 -24 185 -21 181 -21 b 169 -29 175 -24 172 -26 l 167 -29 b 161 -36 164 -31 163 -33 b 157 -37 160 -36 158 -37 b 153 -43 156 -39 154 -40 b 151 -46 151 -43 150 -44 b 150 -49 150 -47 150 -47 b 147 -51 149 -49 149 -50 l 147 -53 b 146 -54 147 -51 147 -51 l 147 -57 b 149 -56 147 -57 147 -56 b 147 -58 147 -57 147 -57 b 146 -58 147 -57 146 -56 l 146 -62 l 146 -64 b 151 -69 147 -67 150 -68 b 153 -74 151 -71 153 -72 l 153 -75 b 168 -92 161 -79 167 -85 b 171 -100 169 -94 169 -97 b 171 -92 174 -99 172 -96 "},"E":{"ha":539,"x_min":0,"x_max":0,"o":"m 651 374 b 650 339 653 364 656 351 b 635 289 643 325 642 307 b 619 250 626 274 619 264 b 614 233 619 243 615 236 b 506 82 594 201 581 168 b 290 -49 438 6 378 -46 b 264 -50 282 -50 272 -50 b 149 -25 221 -50 183 -42 b 49 51 113 -6 75 15 b 18 111 36 69 25 88 b 1 175 13 131 6 153 b 22 322 -3 219 3 265 b 51 396 31 349 39 372 b 114 465 67 424 88 446 l 169 506 b 193 721 140 576 138 656 b 301 821 224 758 254 808 b 375 872 357 835 364 850 b 407 908 382 890 397 901 b 461 906 425 922 449 921 b 458 851 474 893 474 865 b 438 825 449 842 443 833 l 493 786 b 508 671 529 765 536 703 b 436 644 489 649 463 639 b 389 721 406 653 401 697 b 383 731 388 724 386 724 l 385 732 l 326 688 b 292 596 297 665 292 631 b 290 538 292 585 292 550 b 426 511 338 543 367 536 b 467 458 449 503 463 483 b 467 413 468 444 469 428 b 422 369 463 389 444 371 b 269 400 360 365 311 375 b 260 389 264 403 264 392 b 217 338 229 364 240 367 b 192 289 206 324 199 307 b 169 183 182 254 174 219 b 183 115 167 160 172 136 b 264 46 208 71 221 53 b 333 53 293 43 300 29 b 422 126 361 72 403 99 b 440 150 428 135 435 143 b 564 322 467 181 542 271 b 594 375 572 347 572 358 b 632 386 608 385 621 386 b 651 374 647 386 649 388 m 421 744 b 426 719 421 736 422 729 l 429 721 b 444 738 438 724 442 728 b 439 756 446 744 443 751 b 428 751 439 754 436 753 l 425 750 l 421 747 m 315 467 b 311 458 318 468 314 457 b 346 446 321 451 331 447 b 358 450 349 446 353 447 b 374 471 364 456 369 461 l 375 474 b 369 475 372 475 371 475 b 315 467 349 471 336 479 "},"É":{"ha":539,"x_min":0,"x_max":0,"o":"m 358 933 b 313 938 338 918 328 921 b 310 982 297 954 296 965 b 394 1093 340 1015 364 1058 b 457 1122 413 1111 429 1126 b 510 1106 478 1124 494 1115 b 517 1046 529 1090 531 1065 b 472 1010 504 1033 489 1018 l 446 990 b 389 951 429 975 408 965 b 364 938 381 947 372 943 b 358 933 364 935 361 933 m 651 374 b 650 339 653 364 656 351 b 635 289 643 325 642 307 b 619 250 626 274 619 264 b 614 233 619 243 615 236 b 506 82 594 201 581 168 b 290 -49 438 6 378 -46 b 264 -50 282 -50 272 -50 b 149 -25 221 -50 183 -42 b 49 51 113 -6 75 15 b 18 111 36 69 25 88 b 1 175 13 131 6 153 b 22 322 -3 219 3 265 b 51 396 31 349 39 372 b 114 465 67 424 88 446 l 169 506 b 193 721 140 576 138 656 b 301 821 224 758 254 808 b 375 872 357 835 364 850 b 407 908 382 890 397 901 b 461 906 425 922 449 921 b 458 851 474 893 474 865 b 438 825 449 842 443 833 l 493 786 b 508 671 529 765 536 703 b 436 644 489 649 463 639 b 389 721 406 653 401 697 b 383 731 388 724 386 724 l 385 732 l 326 688 b 292 596 297 665 292 631 b 290 538 292 585 292 550 b 426 511 338 543 367 536 b 467 458 449 503 463 483 b 467 413 468 444 469 428 b 422 369 463 389 444 371 b 269 400 360 365 311 375 b 260 389 264 403 264 392 b 217 338 229 364 240 367 b 192 289 206 324 199 307 b 169 183 182 254 174 219 b 183 115 167 160 172 136 b 264 46 208 71 221 53 b 333 53 293 43 300 29 b 422 126 361 72 403 99 b 440 150 428 135 435 143 b 564 322 467 181 542 271 b 594 375 572 347 572 358 b 632 386 608 385 621 386 b 651 374 647 386 649 388 m 421 744 b 426 719 421 736 422 729 l 429 721 b 444 738 438 724 442 728 b 439 756 446 744 443 751 b 428 751 439 754 436 753 l 425 750 l 421 747 m 315 467 b 311 458 318 468 314 457 b 346 446 321 451 331 447 b 358 450 349 446 353 447 b 374 471 364 456 369 461 l 375 474 b 369 475 372 475 371 475 b 315 467 349 471 336 479 "},"Ě":{"ha":539,"x_min":0,"x_max":0,"o":"m 193 1028 b 183 1038 189 1031 186 1035 b 189 1057 181 1047 182 1054 b 236 1056 201 1064 225 1063 b 243 1050 238 1054 239 1050 b 313 988 246 1049 300 1003 b 332 968 318 981 325 974 b 349 971 340 961 342 961 b 368 996 354 979 361 988 b 418 1065 383 1021 397 1044 b 439 1083 425 1072 431 1079 b 474 1083 450 1092 464 1092 b 486 1075 478 1079 481 1078 b 492 1051 496 1068 499 1063 b 471 1024 485 1042 479 1033 b 432 978 457 1008 444 994 b 363 899 411 950 389 922 b 342 888 356 894 349 890 b 315 892 332 883 322 885 b 279 929 304 906 292 918 b 211 1001 256 951 229 974 b 193 1028 204 1010 197 1019 m 651 374 b 650 339 653 364 656 351 b 635 289 643 325 642 307 b 619 250 626 274 619 264 b 614 233 619 243 615 236 b 506 82 594 201 581 168 b 290 -49 438 6 378 -46 b 264 -50 282 -50 272 -50 b 149 -25 221 -50 183 -42 b 49 51 113 -6 75 15 b 18 111 36 69 25 88 b 1 175 13 131 6 153 b 22 322 -3 219 3 265 b 51 396 31 349 39 372 b 114 465 67 424 88 446 l 169 506 b 193 721 140 576 138 656 b 301 821 224 758 254 808 b 375 872 357 835 364 850 b 407 908 382 890 397 901 b 461 906 425 922 449 921 b 458 851 474 893 474 865 b 438 825 449 842 443 833 l 493 786 b 508 671 529 765 536 703 b 436 644 489 649 463 639 b 389 721 406 653 401 697 b 383 731 388 724 386 724 l 385 732 l 326 688 b 292 596 297 665 292 631 b 290 538 292 585 292 550 b 426 511 338 543 367 536 b 467 458 449 503 463 483 b 467 413 468 444 469 428 b 422 369 463 389 444 371 b 269 400 360 365 311 375 b 260 389 264 403 264 392 b 217 338 229 364 240 367 b 192 289 206 324 199 307 b 169 183 182 254 174 219 b 183 115 167 160 172 136 b 264 46 208 71 221 53 b 333 53 293 43 300 29 b 422 126 361 72 403 99 b 440 150 428 135 435 143 b 564 322 467 181 542 271 b 594 375 572 347 572 358 b 632 386 608 385 621 386 b 651 374 647 386 649 388 m 421 744 b 426 719 421 736 422 729 l 429 721 b 444 738 438 724 442 728 b 439 756 446 744 443 751 b 428 751 439 754 436 753 l 425 750 l 421 747 m 315 467 b 311 458 318 468 314 457 b 346 446 321 451 331 447 b 358 450 349 446 353 447 b 374 471 364 456 369 461 l 375 474 b 369 475 372 475 371 475 b 315 467 349 471 336 479 "},"Ê":{"ha":539,"x_min":0,"x_max":0,"o":"m 263 960 b 257 979 256 963 254 969 b 267 989 260 982 263 986 b 285 1015 271 997 278 1007 b 353 1088 303 1043 329 1065 b 389 1125 365 1099 378 1111 b 415 1129 396 1132 406 1133 b 436 1118 422 1126 429 1122 b 506 1039 463 1094 485 1067 b 544 993 518 1022 531 1008 b 565 965 553 983 558 975 b 560 942 572 954 569 949 b 547 933 554 939 551 938 b 513 933 538 925 524 925 b 492 951 504 938 499 944 b 442 1021 471 972 457 996 b 422 1046 435 1029 428 1038 b 406 1049 415 1056 414 1056 b 386 1029 399 1043 392 1036 b 317 967 374 1014 319 968 b 310 961 313 967 311 963 b 263 960 299 954 275 953 m 651 374 b 650 339 653 364 656 351 b 635 289 643 325 642 307 b 619 250 626 274 619 264 b 614 233 619 243 615 236 b 506 82 594 201 581 168 b 290 -49 438 6 378 -46 b 264 -50 282 -50 272 -50 b 149 -25 221 -50 183 -42 b 49 51 113 -6 75 15 b 18 111 36 69 25 88 b 1 175 13 131 6 153 b 22 322 -3 219 3 265 b 51 396 31 349 39 372 b 114 465 67 424 88 446 l 169 506 b 193 721 140 576 138 656 b 301 821 224 758 254 808 b 375 872 357 835 364 850 b 407 908 382 890 397 901 b 461 906 425 922 449 921 b 458 851 474 893 474 865 b 438 825 449 842 443 833 l 493 786 b 508 671 529 765 536 703 b 436 644 489 649 463 639 b 389 721 406 653 401 697 b 383 731 388 724 386 724 l 385 732 l 326 688 b 292 596 297 665 292 631 b 290 538 292 585 292 550 b 426 511 338 543 367 536 b 467 458 449 503 463 483 b 467 413 468 444 469 428 b 422 369 463 389 444 371 b 269 400 360 365 311 375 b 260 389 264 403 264 392 b 217 338 229 364 240 367 b 192 289 206 324 199 307 b 169 183 182 254 174 219 b 183 115 167 160 172 136 b 264 46 208 71 221 53 b 333 53 293 43 300 29 b 422 126 361 72 403 99 b 440 150 428 135 435 143 b 564 322 467 181 542 271 b 594 375 572 347 572 358 b 632 386 608 385 621 386 b 651 374 647 386 649 388 m 421 744 b 426 719 421 736 422 729 l 429 721 b 444 738 438 724 442 728 b 439 756 446 744 443 751 b 428 751 439 754 436 753 l 425 750 l 421 747 m 315 467 b 311 458 318 468 314 457 b 346 446 321 451 331 447 b 358 450 349 446 353 447 b 374 471 364 456 369 461 l 375 474 b 369 475 372 475 371 475 b 315 467 349 471 336 479 "},"Ë":{"ha":539,"x_min":0,"x_max":0,"o":"m 286 1010 b 289 1074 267 1029 268 1056 b 292 1075 290 1074 292 1075 b 324 1094 303 1082 310 1096 b 371 1076 340 1092 357 1086 b 393 1058 379 1071 386 1064 b 406 1031 403 1051 407 1042 b 368 967 404 1003 390 982 b 339 965 358 961 349 961 b 311 985 329 969 319 976 m 489 996 b 486 1064 468 1015 468 1043 b 510 1083 493 1072 501 1078 b 529 1088 515 1088 522 1089 b 574 1068 546 1085 561 1079 b 588 1044 581 1063 586 1054 b 590 1004 590 1032 592 1019 b 589 985 589 1000 589 992 b 557 957 586 967 575 957 b 503 982 536 958 515 963 b 489 996 499 988 493 990 m 651 374 b 650 339 653 364 656 351 b 635 289 643 325 642 307 b 619 250 626 274 619 264 b 614 233 619 243 615 236 b 506 82 594 201 581 168 b 290 -49 438 6 378 -46 b 264 -50 282 -50 272 -50 b 149 -25 221 -50 183 -42 b 49 51 113 -6 75 15 b 18 111 36 69 25 88 b 1 175 13 131 6 153 b 22 322 -3 219 3 265 b 51 396 31 349 39 372 b 114 465 67 424 88 446 l 169 506 b 193 721 140 576 138 656 b 301 821 224 758 254 808 b 375 872 357 835 364 850 b 407 908 382 890 397 901 b 461 906 425 922 449 921 b 458 851 474 893 474 865 b 438 825 449 842 443 833 l 493 786 b 508 671 529 765 536 703 b 436 644 489 649 463 639 b 389 721 406 653 401 697 b 383 731 388 724 386 724 l 385 732 l 326 688 b 292 596 297 665 292 631 b 290 538 292 585 292 550 b 426 511 338 543 367 536 b 467 458 449 503 463 483 b 467 413 468 444 469 428 b 422 369 463 389 444 371 b 269 400 360 365 311 375 b 260 389 264 403 264 392 b 217 338 229 364 240 367 b 192 289 206 324 199 307 b 169 183 182 254 174 219 b 183 115 167 160 172 136 b 264 46 208 71 221 53 b 333 53 293 43 300 29 b 422 126 361 72 403 99 b 440 150 428 135 435 143 b 564 322 467 181 542 271 b 594 375 572 347 572 358 b 632 386 608 385 621 386 b 651 374 647 386 649 388 m 421 744 b 426 719 421 736 422 729 l 429 721 b 444 738 438 724 442 728 b 439 756 446 744 443 751 b 428 751 439 754 436 753 l 425 750 l 421 747 m 315 467 b 311 458 318 468 314 457 b 346 446 321 451 331 447 b 358 450 349 446 353 447 b 374 471 364 456 369 461 l 375 474 b 369 475 372 475 371 475 b 315 467 349 471 336 479 "},"Ė":{"ha":539,"x_min":0,"x_max":0,"o":"m 268 964 b 265 1032 247 983 247 1011 b 289 1051 272 1040 281 1046 b 308 1056 294 1056 301 1057 b 353 1036 325 1053 340 1047 b 367 1013 360 1031 365 1022 b 369 972 369 1000 371 988 b 368 953 368 968 368 960 b 336 925 365 935 354 925 b 282 950 315 926 294 931 b 268 964 278 956 272 958 m 651 374 b 650 339 653 364 656 351 b 635 289 643 325 642 307 b 619 250 626 274 619 264 b 614 233 619 243 615 236 b 506 82 594 201 581 168 b 290 -49 438 6 378 -46 b 264 -50 282 -50 272 -50 b 149 -25 221 -50 183 -42 b 49 51 113 -6 75 15 b 18 111 36 69 25 88 b 1 175 13 131 6 153 b 22 322 -3 219 3 265 b 51 396 31 349 39 372 b 114 465 67 424 88 446 l 169 506 b 193 721 140 576 138 656 b 301 821 224 758 254 808 b 375 872 357 835 364 850 b 407 908 382 890 397 901 b 461 906 425 922 449 921 b 458 851 474 893 474 865 b 438 825 449 842 443 833 l 493 786 b 508 671 529 765 536 703 b 436 644 489 649 463 639 b 389 721 406 653 401 697 b 383 731 388 724 386 724 l 385 732 l 326 688 b 292 596 297 665 292 631 b 290 538 292 585 292 550 b 426 511 338 543 367 536 b 467 458 449 503 463 483 b 467 413 468 444 469 428 b 422 369 463 389 444 371 b 269 400 360 365 311 375 b 260 389 264 403 264 392 b 217 338 229 364 240 367 b 192 289 206 324 199 307 b 169 183 182 254 174 219 b 183 115 167 160 172 136 b 264 46 208 71 221 53 b 333 53 293 43 300 29 b 422 126 361 72 403 99 b 440 150 428 135 435 143 b 564 322 467 181 542 271 b 594 375 572 347 572 358 b 632 386 608 385 621 386 b 651 374 647 386 649 388 m 421 744 b 426 719 421 736 422 729 l 429 721 b 444 738 438 724 442 728 b 439 756 446 744 443 751 b 428 751 439 754 436 753 l 425 750 l 421 747 m 315 467 b 311 458 318 468 314 457 b 346 446 321 451 331 447 b 358 450 349 446 353 447 b 374 471 364 456 369 461 l 375 474 b 369 475 372 475 371 475 b 315 467 349 471 336 479 "},"È":{"ha":539,"x_min":0,"x_max":0,"o":"m 229 1056 b 225 1071 228 1060 225 1064 b 240 1129 222 1090 229 1111 b 261 1139 246 1138 251 1139 b 325 1099 286 1133 311 1129 b 328 1097 328 1099 328 1097 b 357 1056 343 1088 350 1071 b 383 1015 364 1042 372 1029 b 415 963 397 999 406 981 b 419 956 419 960 419 958 b 421 938 422 951 425 944 b 404 935 415 931 408 935 b 342 958 379 936 358 944 b 265 1014 315 976 289 994 b 229 1056 251 1025 240 1042 m 651 374 b 650 339 653 364 656 351 b 635 289 643 325 642 307 b 619 250 626 274 619 264 b 614 233 619 243 615 236 b 506 82 594 201 581 168 b 290 -49 438 6 378 -46 b 264 -50 282 -50 272 -50 b 149 -25 221 -50 183 -42 b 49 51 113 -6 75 15 b 18 111 36 69 25 88 b 1 175 13 131 6 153 b 22 322 -3 219 3 265 b 51 396 31 349 39 372 b 114 465 67 424 88 446 l 169 506 b 193 721 140 576 138 656 b 301 821 224 758 254 808 b 375 872 357 835 364 850 b 407 908 382 890 397 901 b 461 906 425 922 449 921 b 458 851 474 893 474 865 b 438 825 449 842 443 833 l 493 786 b 508 671 529 765 536 703 b 436 644 489 649 463 639 b 389 721 406 653 401 697 b 383 731 388 724 386 724 l 385 732 l 326 688 b 292 596 297 665 292 631 b 290 538 292 585 292 550 b 426 511 338 543 367 536 b 467 458 449 503 463 483 b 467 413 468 444 469 428 b 422 369 463 389 444 371 b 269 400 360 365 311 375 b 260 389 264 403 264 392 b 217 338 229 364 240 367 b 192 289 206 324 199 307 b 169 183 182 254 174 219 b 183 115 167 160 172 136 b 264 46 208 71 221 53 b 333 53 293 43 300 29 b 422 126 361 72 403 99 b 440 150 428 135 435 143 b 564 322 467 181 542 271 b 594 375 572 347 572 358 b 632 386 608 385 621 386 b 651 374 647 386 649 388 m 421 744 b 426 719 421 736 422 729 l 429 721 b 444 738 438 724 442 728 b 439 756 446 744 443 751 b 428 751 439 754 436 753 l 425 750 l 421 747 m 315 467 b 311 458 318 468 314 457 b 346 446 321 451 331 447 b 358 450 349 446 353 447 b 374 471 364 456 369 461 l 375 474 b 369 475 372 475 371 475 b 315 467 349 471 336 479 "},"Ē":{"ha":539,"x_min":0,"x_max":0,"o":"m 215 976 b 182 1026 193 985 185 1006 l 182 1039 b 190 1044 182 1043 185 1047 b 233 1042 206 1040 221 1040 b 360 1049 276 1044 318 1047 l 551 1053 b 574 1051 558 1053 565 1053 b 588 1033 585 1050 589 1043 b 585 1018 588 1028 585 1024 b 565 990 583 1006 579 994 b 526 978 554 985 539 983 b 501 976 518 975 508 976 b 483 976 496 978 490 978 b 442 975 471 974 456 974 b 414 974 433 976 424 975 b 374 974 400 969 388 974 b 350 972 367 974 358 974 b 318 972 339 972 329 974 b 243 974 293 972 268 975 b 215 976 233 972 225 974 m 651 374 b 650 339 653 364 656 351 b 635 289 643 325 642 307 b 619 250 626 274 619 264 b 614 233 619 243 615 236 b 506 82 594 201 581 168 b 290 -49 438 6 378 -46 b 264 -50 282 -50 272 -50 b 149 -25 221 -50 183 -42 b 49 51 113 -6 75 15 b 18 111 36 69 25 88 b 1 175 13 131 6 153 b 22 322 -3 219 3 265 b 51 396 31 349 39 372 b 114 465 67 424 88 446 l 169 506 b 193 721 140 576 138 656 b 301 821 224 758 254 808 b 375 872 357 835 364 850 b 407 908 382 890 397 901 b 461 906 425 922 449 921 b 458 851 474 893 474 865 b 438 825 449 842 443 833 l 493 786 b 508 671 529 765 536 703 b 436 644 489 649 463 639 b 389 721 406 653 401 697 b 383 731 388 724 386 724 l 385 732 l 326 688 b 292 596 297 665 292 631 b 290 538 292 585 292 550 b 426 511 338 543 367 536 b 467 458 449 503 463 483 b 467 413 468 444 469 428 b 422 369 463 389 444 371 b 269 400 360 365 311 375 b 260 389 264 403 264 392 b 217 338 229 364 240 367 b 192 289 206 324 199 307 b 169 183 182 254 174 219 b 183 115 167 160 172 136 b 264 46 208 71 221 53 b 333 53 293 43 300 29 b 422 126 361 72 403 99 b 440 150 428 135 435 143 b 564 322 467 181 542 271 b 594 375 572 347 572 358 b 632 386 608 385 621 386 b 651 374 647 386 649 388 m 421 744 b 426 719 421 736 422 729 l 429 721 b 444 738 438 724 442 728 b 439 756 446 744 443 751 b 428 751 439 754 436 753 l 425 750 l 421 747 m 315 467 b 311 458 318 468 314 457 b 346 446 321 451 331 447 b 358 450 349 446 353 447 b 374 471 364 456 369 461 l 375 474 b 369 475 372 475 371 475 b 315 467 349 471 336 479 "},"Ę":{"ha":539,"x_min":0,"x_max":0,"o":"m 651 374 b 650 339 653 364 656 351 b 635 289 643 325 642 307 b 619 250 626 274 619 264 b 614 233 619 243 615 236 b 506 82 594 201 581 168 b 290 -49 438 6 378 -46 b 264 -50 282 -50 272 -50 l 263 -50 b 257 -69 264 -56 263 -64 b 246 -82 253 -72 249 -76 b 217 -90 238 -89 228 -96 b 207 -92 214 -89 210 -90 b 203 -103 204 -94 204 -100 b 219 -149 200 -121 207 -135 b 247 -151 224 -154 240 -156 b 251 -146 249 -150 251 -149 b 267 -129 253 -136 261 -133 b 279 -131 271 -126 276 -126 b 285 -149 282 -135 286 -142 b 276 -178 285 -158 282 -169 b 244 -203 267 -189 257 -197 b 181 -196 226 -214 197 -212 b 168 -185 178 -192 174 -189 b 157 -165 163 -179 158 -172 b 175 -92 153 -137 158 -112 b 200 -65 182 -82 189 -72 b 206 -50 204 -61 207 -56 l 204 -44 b 149 -25 185 -40 167 -33 b 49 51 113 -6 75 15 b 18 111 36 69 25 88 b 1 175 13 131 6 153 b 22 322 -3 219 3 265 b 51 396 31 349 39 372 b 114 465 67 424 88 446 l 169 506 b 193 721 140 576 138 656 b 301 821 224 758 254 808 b 375 872 357 835 364 850 b 407 908 382 890 397 901 b 461 906 425 922 449 921 b 458 851 474 893 474 865 b 438 825 449 842 443 833 l 493 786 b 508 671 529 765 536 703 b 436 644 489 649 463 639 b 389 721 406 653 401 697 b 383 731 388 724 386 724 l 385 732 l 326 688 b 292 596 297 665 292 631 b 290 538 292 585 292 550 b 426 511 338 543 367 536 b 467 458 449 503 463 483 b 467 413 468 444 469 428 b 422 369 463 389 444 371 b 269 400 360 365 311 375 b 260 389 264 403 264 392 b 217 338 229 364 240 367 b 192 289 206 324 199 307 b 169 183 182 254 174 219 b 183 115 167 160 172 136 b 264 46 208 71 221 53 b 333 53 293 43 300 29 b 422 126 361 72 403 99 b 440 150 428 135 435 143 b 564 322 467 181 542 271 b 594 375 572 347 572 358 b 632 386 608 385 621 386 b 651 374 647 386 649 388 m 421 744 b 426 719 421 736 422 729 l 429 721 b 444 738 438 724 442 728 b 439 756 446 744 443 751 b 428 751 439 754 436 753 l 425 750 l 421 747 m 315 467 b 311 458 318 468 314 457 b 346 446 321 451 331 447 b 358 450 349 446 353 447 b 374 471 364 456 369 461 l 375 474 b 369 475 372 475 371 475 b 315 467 349 471 336 479 "},"F":{"ha":394,"x_min":0,"x_max":0,"o":"m 238 -162 b 153 -150 208 -168 179 -167 b 136 -122 142 -144 138 -133 b 122 -28 132 -90 128 -60 l 122 29 b 113 36 122 33 117 38 b 76 122 29 14 33 93 b 85 143 85 126 89 132 l 75 315 b 89 661 71 399 58 583 b 157 782 107 706 129 744 b 203 806 169 799 185 806 b 304 814 236 810 269 813 b 383 785 336 814 364 807 b 410 765 393 776 401 771 b 451 688 435 746 447 719 b 421 550 456 640 439 594 b 358 533 411 521 385 519 b 328 588 333 544 326 563 b 333 679 329 618 336 649 b 325 714 332 690 329 703 b 310 719 324 724 318 726 b 264 664 290 703 278 685 b 240 618 258 649 249 632 b 208 528 221 590 218 557 b 207 367 189 478 211 419 b 204 178 200 308 182 236 b 235 147 214 156 207 135 b 275 161 242 149 267 156 b 347 182 304 182 315 168 b 428 224 358 188 403 194 b 456 258 433 231 447 263 b 488 188 467 250 524 246 b 239 79 435 103 319 96 b 235 42 235 79 235 46 b 244 -8 236 24 240 8 b 261 -103 250 -40 257 -71 b 263 -133 263 -112 264 -124 b 238 -162 261 -150 253 -158 "},"G":{"ha":465,"x_min":0,"x_max":0,"o":"m 289 -251 b 197 -236 251 -269 222 -260 l 171 -211 b 164 -46 144 -186 143 -97 b 171 -28 167 -40 168 -33 b 161 -10 175 -17 172 -12 b 114 7 144 -6 129 -6 b -17 186 35 76 -1 124 b -10 396 -33 257 -21 326 b 90 604 7 488 26 549 b 164 651 119 631 165 635 b 165 692 163 669 161 674 b 175 713 168 699 171 706 b 238 731 190 735 213 742 b 247 717 244 728 247 724 b 240 686 247 706 247 696 b 233 671 238 682 235 676 b 240 661 231 665 232 661 b 264 660 247 661 256 660 b 358 639 297 660 328 649 b 394 596 379 632 390 618 b 389 519 400 569 400 544 b 371 500 385 511 379 504 b 338 488 360 494 349 489 b 217 521 294 486 251 490 b 199 518 208 531 204 525 b 151 426 179 489 164 458 b 124 275 131 378 122 326 b 156 110 125 218 133 163 b 197 60 164 88 179 74 b 210 61 203 56 206 57 b 260 171 232 94 257 128 b 254 224 261 189 261 207 b 247 272 249 240 247 256 b 311 314 247 307 279 333 b 351 256 344 293 353 281 b 364 154 350 242 358 165 b 375 156 368 149 374 153 b 453 256 394 181 431 197 b 481 303 464 286 478 296 b 560 289 513 325 571 329 b 450 114 535 197 522 167 l 388 69 b 401 -25 367 54 401 0 b 400 -86 401 -46 400 -65 b 388 -153 401 -110 396 -132 b 289 -251 372 -197 331 -232 m 274 538 b 289 538 279 536 285 536 b 329 589 306 542 329 572 b 297 611 329 608 317 618 b 254 585 282 604 268 596 b 253 553 238 571 236 568 b 274 538 258 546 265 542 m 250 -151 b 281 -93 265 -135 269 -112 b 299 -18 293 -69 300 -44 b 299 -1 299 -12 300 -7 b 294 18 299 6 300 14 b 279 8 289 21 285 11 b 274 6 276 8 275 6 b 242 -28 258 -1 250 -14 b 217 -125 226 -58 221 -92 b 225 -150 215 -135 219 -143 b 250 -151 235 -164 238 -164 "},"Ğ":{"ha":465,"x_min":0,"x_max":0,"o":"m 165 821 b 78 850 135 826 103 835 b 10 921 51 871 28 893 l 3 933 b 8 965 -1 944 -1 956 l 18 976 b 44 975 28 983 36 983 b 46 974 44 975 46 975 b 75 925 53 957 67 943 b 111 897 82 907 94 899 b 174 915 132 897 154 903 b 215 957 192 925 207 939 b 238 994 221 969 232 981 b 251 999 239 1001 244 1001 b 271 986 257 993 264 992 b 281 968 279 982 282 976 b 276 946 281 961 281 953 b 257 890 271 928 268 908 b 225 856 250 875 240 863 b 204 838 217 853 210 843 b 165 821 192 826 179 824 m 289 -251 b 197 -236 251 -269 222 -260 l 171 -211 b 164 -46 144 -186 143 -97 b 171 -28 167 -40 168 -33 b 161 -10 175 -17 172 -12 b 114 7 144 -6 129 -6 b -17 186 35 76 -1 124 b -10 396 -33 257 -21 326 b 90 604 7 488 26 549 b 164 651 119 631 165 635 b 165 692 163 669 161 674 b 175 713 168 699 171 706 b 238 731 190 735 213 742 b 247 717 244 728 247 724 b 240 686 247 706 247 696 b 233 671 238 682 235 676 b 240 661 231 665 232 661 b 264 660 247 661 256 660 b 358 639 297 660 328 649 b 394 596 379 632 390 618 b 389 519 400 569 400 544 b 371 500 385 511 379 504 b 338 488 360 494 349 489 b 217 521 294 486 251 490 b 199 518 208 531 204 525 b 151 426 179 489 164 458 b 124 275 131 378 122 326 b 156 110 125 218 133 163 b 197 60 164 88 179 74 b 210 61 203 56 206 57 b 260 171 232 94 257 128 b 254 224 261 189 261 207 b 247 272 249 240 247 256 b 311 314 247 307 279 333 b 351 256 344 293 353 281 b 364 154 350 242 358 165 b 375 156 368 149 374 153 b 453 256 394 181 431 197 b 481 303 464 286 478 296 b 560 289 513 325 571 329 b 450 114 535 197 522 167 l 388 69 b 401 -25 367 54 401 0 b 400 -86 401 -46 400 -65 b 388 -153 401 -110 396 -132 b 289 -251 372 -197 331 -232 m 274 538 b 289 538 279 536 285 536 b 329 589 306 542 329 572 b 297 611 329 608 317 618 b 254 585 282 604 268 596 b 253 553 238 571 236 568 b 274 538 258 546 265 542 m 250 -151 b 281 -93 265 -135 269 -112 b 299 -18 293 -69 300 -44 b 299 -1 299 -12 300 -7 b 294 18 299 6 300 14 b 279 8 289 21 285 11 b 274 6 276 8 275 6 b 242 -28 258 -1 250 -14 b 217 -125 226 -58 221 -92 b 225 -150 215 -135 219 -143 b 250 -151 235 -164 238 -164 "},"Ģ":{"ha":465,"x_min":0,"x_max":0,"o":"m 289 -251 b 197 -236 251 -269 222 -260 l 171 -211 b 164 -46 144 -186 143 -97 b 171 -28 167 -40 168 -33 b 161 -10 175 -17 172 -12 b 114 7 144 -6 129 -6 b -17 186 35 76 -1 124 b -10 396 -33 257 -21 326 b 90 604 7 488 26 549 b 164 651 119 631 165 635 b 165 692 163 669 161 674 b 175 713 168 699 171 706 b 238 731 190 735 213 742 b 247 717 244 728 247 724 b 240 686 247 706 247 696 b 233 671 238 682 235 676 b 240 661 231 665 232 661 b 264 660 247 661 256 660 b 358 639 297 660 328 649 b 394 596 379 632 390 618 b 389 519 400 569 400 544 b 371 500 385 511 379 504 b 338 488 360 494 349 489 b 217 521 294 486 251 490 b 199 518 208 531 204 525 b 151 426 179 489 164 458 b 124 275 131 378 122 326 b 156 110 125 218 133 163 b 197 60 164 88 179 74 b 210 61 203 56 206 57 b 260 171 232 94 257 128 b 254 224 261 189 261 207 b 247 272 249 240 247 256 b 311 314 247 307 279 333 b 351 256 344 293 353 281 b 364 154 350 242 358 165 b 375 156 368 149 374 153 b 453 256 394 181 431 197 b 481 303 464 286 478 296 b 560 289 513 325 571 329 b 450 114 535 197 522 167 l 388 69 b 401 -25 367 54 401 0 b 400 -86 401 -46 400 -65 b 388 -153 401 -110 396 -132 b 289 -251 372 -197 331 -232 m 274 538 b 289 538 279 536 285 536 b 329 589 306 542 329 572 b 297 611 329 608 317 618 b 254 585 282 604 268 596 b 253 553 238 571 236 568 b 274 538 258 546 265 542 m 250 -151 b 281 -93 265 -135 269 -112 b 299 -18 293 -69 300 -44 b 299 -1 299 -12 300 -7 b 294 18 299 6 300 14 b 279 8 289 21 285 11 b 274 6 276 8 275 6 b 242 -28 258 -1 250 -14 b 217 -125 226 -58 221 -92 b 225 -150 215 -135 219 -143 b 250 -151 235 -164 238 -164 m 92 -221 b 78 -212 88 -222 81 -221 b 78 -197 75 -210 75 -203 b 86 -192 81 -197 82 -196 b 81 -183 89 -189 88 -186 b 49 -140 60 -179 46 -164 b 68 -115 49 -128 57 -117 l 89 -110 b 124 -143 104 -106 119 -132 b 129 -165 125 -149 129 -157 b 108 -212 129 -183 121 -200 b 92 -221 103 -218 99 -221 "},"Ġ":{"ha":465,"x_min":0,"x_max":0,"o":"m 257 796 b 203 821 236 797 215 801 b 189 835 199 826 193 829 b 186 903 168 854 168 882 b 210 922 193 911 201 917 b 229 926 215 926 222 928 b 274 907 246 924 261 918 b 288 883 281 901 286 893 b 290 843 290 871 292 858 b 289 824 289 839 289 831 b 257 796 286 806 275 796 m 289 -251 b 197 -236 251 -269 222 -260 l 171 -211 b 164 -46 144 -186 143 -97 b 171 -28 167 -40 168 -33 b 161 -10 175 -17 172 -12 b 114 7 144 -6 129 -6 b -17 186 35 76 -1 124 b -10 396 -33 257 -21 326 b 90 604 7 488 26 549 b 164 651 119 631 165 635 b 165 692 163 669 161 674 b 175 713 168 699 171 706 b 238 731 190 735 213 742 b 247 717 244 728 247 724 b 240 686 247 706 247 696 b 233 671 238 682 235 676 b 240 661 231 665 232 661 b 264 660 247 661 256 660 b 358 639 297 660 328 649 b 394 596 379 632 390 618 b 389 519 400 569 400 544 b 371 500 385 511 379 504 b 338 488 360 494 349 489 b 217 521 294 486 251 490 b 199 518 208 531 204 525 b 151 426 179 489 164 458 b 124 275 131 378 122 326 b 156 110 125 218 133 163 b 197 60 164 88 179 74 b 210 61 203 56 206 57 b 260 171 232 94 257 128 b 254 224 261 189 261 207 b 247 272 249 240 247 256 b 311 314 247 307 279 333 b 351 256 344 293 353 281 b 364 154 350 242 358 165 b 375 156 368 149 374 153 b 453 256 394 181 431 197 b 481 303 464 286 478 296 b 560 289 513 325 571 329 b 450 114 535 197 522 167 l 388 69 b 401 -25 367 54 401 0 b 400 -86 401 -46 400 -65 b 388 -153 401 -110 396 -132 b 289 -251 372 -197 331 -232 m 274 538 b 289 538 279 536 285 536 b 329 589 306 542 329 572 b 297 611 329 608 317 618 b 254 585 282 604 268 596 b 253 553 238 571 236 568 b 274 538 258 546 265 542 m 250 -151 b 281 -93 265 -135 269 -112 b 299 -18 293 -69 300 -44 b 299 -1 299 -12 300 -7 b 294 18 299 6 300 14 b 279 8 289 21 285 11 b 274 6 276 8 275 6 b 242 -28 258 -1 250 -14 b 217 -125 226 -58 221 -92 b 225 -150 215 -135 219 -143 b 250 -151 235 -164 238 -164 "},"H":{"ha":614,"x_min":0,"x_max":0,"o":"m 479 -100 b 457 -99 472 -99 464 -99 b 414 -89 442 -100 428 -96 b 378 -42 393 -79 382 -64 b 357 175 365 31 363 103 b 354 232 356 193 356 213 b 338 249 354 244 350 249 b 225 240 300 246 263 247 b 199 211 206 236 199 231 b 197 96 200 172 197 135 b 200 81 197 90 199 86 b 188 35 204 63 200 47 l 168 14 b 163 10 167 13 165 10 b 83 10 136 4 110 -10 b 63 21 78 14 69 18 b 36 63 46 29 36 42 b 31 224 35 115 31 169 b 15 250 32 236 26 244 l 7 257 b 11 283 -3 267 -1 279 b 32 317 26 290 32 300 b 56 604 26 414 42 508 b 82 849 68 685 75 767 b 97 867 83 861 85 865 b 179 851 126 869 156 867 b 235 776 206 835 226 810 b 238 586 253 714 251 650 b 231 471 231 549 229 510 b 228 410 232 450 231 431 b 218 350 224 390 224 369 b 231 336 214 340 219 335 b 310 342 257 338 283 340 b 332 343 317 342 325 343 b 354 365 351 344 354 346 b 358 499 354 411 354 456 b 375 711 361 571 364 642 b 399 815 381 746 386 782 b 411 846 401 826 406 836 b 444 854 418 861 431 864 b 474 824 456 847 465 836 b 528 629 514 765 531 700 b 528 549 526 603 524 575 b 533 467 533 521 533 494 b 531 433 533 456 532 444 b 533 393 529 419 526 406 b 533 385 535 390 535 388 b 536 299 528 356 535 328 b 536 235 538 278 539 256 b 535 218 535 229 535 224 b 543 104 542 181 543 143 b 549 74 543 93 547 83 b 557 6 554 50 550 28 b 568 -28 561 -6 564 -18 b 557 -68 575 -47 572 -56 b 544 -83 551 -72 547 -76 b 529 -97 543 -92 538 -94 b 479 -100 513 -103 496 -103 "},"Ħ":{"ha":614,"x_min":0,"x_max":0,"o":"m 568 -28 b 557 -68 575 -47 572 -56 b 544 -83 551 -72 547 -76 b 529 -97 543 -92 538 -94 b 479 -100 513 -103 496 -103 b 457 -99 472 -99 464 -99 b 414 -89 442 -100 428 -96 b 378 -42 393 -79 382 -64 b 357 175 365 31 363 103 b 354 232 356 193 356 213 b 338 249 354 244 350 249 b 225 240 300 246 263 247 b 199 211 206 236 199 231 b 197 96 200 172 197 135 b 200 81 197 90 199 86 b 188 35 204 63 200 47 l 168 14 b 163 10 167 13 165 10 b 83 10 136 4 110 -10 b 63 21 78 14 69 18 b 36 63 46 29 36 42 b 31 224 35 115 31 169 b 15 250 32 236 26 244 l 7 257 b 11 283 -3 267 -1 279 b 32 317 26 290 32 300 b 36 453 29 363 32 407 b 0 514 14 467 4 490 b 1 529 0 518 0 525 b 13 538 1 536 6 540 b 46 533 24 535 35 533 b 56 604 49 557 53 581 b 82 849 68 685 75 767 b 97 867 83 861 85 865 b 179 851 126 869 156 867 b 235 776 206 835 226 810 b 238 586 253 714 251 650 b 232 543 235 572 233 557 l 240 543 l 360 546 b 375 711 363 603 367 657 b 399 815 381 746 386 782 b 411 846 401 826 406 836 b 444 854 418 861 431 864 b 474 824 456 847 465 836 b 528 629 514 765 531 700 b 528 549 526 603 524 575 l 528 547 b 540 522 539 543 544 535 b 538 504 540 517 539 508 b 533 486 538 497 536 492 l 533 467 b 531 433 533 456 532 444 b 533 393 529 419 526 406 b 533 385 535 390 535 388 b 536 299 528 356 535 328 b 536 235 538 278 539 256 b 535 218 535 229 535 224 b 543 104 542 181 543 143 b 549 74 543 93 547 83 b 557 6 554 50 550 28 b 568 -28 561 -6 564 -18 m 332 343 b 354 365 351 344 354 346 b 356 444 354 392 354 418 l 349 444 b 310 443 336 447 324 446 b 257 443 293 439 275 443 b 231 442 249 443 240 443 b 228 410 231 432 229 421 b 218 350 224 390 224 369 b 231 336 214 340 219 335 b 310 342 257 338 283 340 b 332 343 317 342 325 343 "},"I":{"ha":408,"x_min":0,"x_max":0,"o":"m 78 -122 b 36 -87 54 -122 40 -111 b 35 -71 35 -82 35 -76 b 67 -33 36 -43 36 -39 b 104 18 110 -26 110 -26 b 88 340 92 125 82 232 b 111 569 92 417 101 493 b 125 725 117 621 121 672 b 107 739 126 743 125 744 b 61 724 92 735 76 728 b 13 742 35 714 28 717 b 0 783 6 754 -1 768 b 21 807 1 799 6 806 b 56 813 32 810 44 811 b 214 839 110 814 160 835 b 318 846 249 842 283 850 b 349 822 333 843 343 836 b 369 789 353 810 361 800 b 363 754 379 775 376 765 b 317 742 349 744 333 740 b 286 706 290 743 281 732 b 311 557 297 657 308 608 b 315 415 314 510 313 463 b 314 224 319 351 315 288 b 308 118 313 188 315 153 b 308 26 303 88 308 57 b 331 7 308 11 315 6 b 389 -25 357 8 375 -1 b 403 -44 392 -32 399 -37 b 394 -76 413 -57 408 -69 b 218 -114 335 -104 272 -111 b 101 -121 172 -112 136 -115 b 78 -122 93 -122 85 -122 "},"Í":{"ha":408,"x_min":0,"x_max":0,"o":"m 190 904 b 144 908 169 889 160 892 b 142 953 129 925 128 936 b 226 1064 172 986 196 1029 b 289 1093 244 1082 261 1097 b 342 1076 310 1094 326 1086 b 349 1017 361 1061 363 1036 b 304 981 336 1004 321 989 l 278 961 b 221 922 261 946 240 936 b 196 908 213 918 204 914 b 190 904 196 906 193 904 m 78 -122 b 36 -87 54 -122 40 -111 b 35 -71 35 -82 35 -76 b 67 -33 36 -43 36 -39 b 104 18 110 -26 110 -26 b 88 340 92 125 82 232 b 111 569 92 417 101 493 b 125 725 117 621 121 672 b 107 739 126 743 125 744 b 61 724 92 735 76 728 b 13 742 35 714 28 717 b 0 783 6 754 -1 768 b 21 807 1 799 6 806 b 56 813 32 810 44 811 b 214 839 110 814 160 835 b 318 846 249 842 283 850 b 349 822 333 843 343 836 b 369 789 353 810 361 800 b 363 754 379 775 376 765 b 317 742 349 744 333 740 b 286 706 290 743 281 732 b 311 557 297 657 308 608 b 315 415 314 510 313 463 b 314 224 319 351 315 288 b 308 118 313 188 315 153 b 308 26 303 88 308 57 b 331 7 308 11 315 6 b 389 -25 357 8 375 -1 b 403 -44 392 -32 399 -37 b 394 -76 413 -57 408 -69 b 218 -114 335 -104 272 -111 b 101 -121 172 -112 136 -115 b 78 -122 93 -122 85 -122 "},"Î":{"ha":408,"x_min":0,"x_max":0,"o":"m 336 892 b 315 910 328 896 322 903 b 265 979 294 931 281 954 b 246 1004 258 988 251 996 b 229 1007 239 1014 238 1014 b 210 988 222 1001 215 994 b 140 925 197 972 143 926 b 133 919 136 925 135 921 b 86 918 122 913 99 911 b 81 938 79 921 78 928 b 90 947 83 940 86 944 b 108 974 94 956 101 965 b 176 1046 126 1001 153 1024 b 213 1083 189 1057 201 1069 b 239 1088 219 1090 229 1092 b 260 1076 246 1085 253 1081 b 329 997 286 1053 308 1025 b 368 951 342 981 354 967 b 389 924 376 942 382 933 b 383 900 396 913 393 907 b 371 892 378 897 375 896 b 336 892 361 883 347 883 m 78 -122 b 36 -87 54 -122 40 -111 b 35 -71 35 -82 35 -76 b 67 -33 36 -43 36 -39 b 104 18 110 -26 110 -26 b 88 340 92 125 82 232 b 111 569 92 417 101 493 b 125 725 117 621 121 672 b 107 739 126 743 125 744 b 61 724 92 735 76 728 b 13 742 35 714 28 717 b 0 783 6 754 -1 768 b 21 807 1 799 6 806 b 56 813 32 810 44 811 b 214 839 110 814 160 835 b 318 846 249 842 283 850 b 349 822 333 843 343 836 b 369 789 353 810 361 800 b 363 754 379 775 376 765 b 317 742 349 744 333 740 b 286 706 290 743 281 732 b 311 557 297 657 308 608 b 315 415 314 510 313 463 b 314 224 319 351 315 288 b 308 118 313 188 315 153 b 308 26 303 88 308 57 b 331 7 308 11 315 6 b 389 -25 357 8 375 -1 b 403 -44 392 -32 399 -37 b 394 -76 413 -57 408 -69 b 218 -114 335 -104 272 -111 b 101 -121 172 -112 136 -115 b 78 -122 93 -122 85 -122 "},"Ï":{"ha":408,"x_min":0,"x_max":0,"o":"m 93 915 b 65 935 83 919 74 926 l 40 960 b 43 1024 21 979 22 1006 b 46 1025 44 1024 46 1025 b 78 1044 57 1032 64 1046 b 125 1026 94 1042 111 1036 b 147 1008 133 1021 140 1014 b 160 981 157 1001 161 992 b 122 917 158 953 144 932 b 93 915 113 911 103 911 m 311 907 b 257 932 290 908 269 913 b 243 946 253 938 247 940 b 240 1014 222 965 222 993 b 264 1033 247 1022 256 1028 b 283 1038 269 1038 276 1039 b 328 1018 300 1035 315 1029 b 342 994 335 1013 340 1004 b 344 954 344 982 346 969 b 343 935 343 950 343 942 b 311 907 340 917 329 907 m 78 -122 b 36 -87 54 -122 40 -111 b 35 -71 35 -82 35 -76 b 67 -33 36 -43 36 -39 b 104 18 110 -26 110 -26 b 88 340 92 125 82 232 b 111 569 92 417 101 493 b 125 725 117 621 121 672 b 107 739 126 743 125 744 b 61 724 92 735 76 728 b 13 742 35 714 28 717 b 0 783 6 754 -1 768 b 21 807 1 799 6 806 b 56 813 32 810 44 811 b 214 839 110 814 160 835 b 318 846 249 842 283 850 b 349 822 333 843 343 836 b 369 789 353 810 361 800 b 363 754 379 775 376 765 b 317 742 349 744 333 740 b 286 706 290 743 281 732 b 311 557 297 657 308 608 b 315 415 314 510 313 463 b 314 224 319 351 315 288 b 308 118 313 188 315 153 b 308 26 303 88 308 57 b 331 7 308 11 315 6 b 389 -25 357 8 375 -1 b 403 -44 392 -32 399 -37 b 394 -76 413 -57 408 -69 b 218 -114 335 -104 272 -111 b 101 -121 172 -112 136 -115 b 78 -122 93 -122 85 -122 "},"İ":{"ha":408,"x_min":0,"x_max":0,"o":"m 196 908 b 142 933 175 910 154 914 b 128 947 138 939 132 942 b 125 1015 107 967 107 994 b 149 1035 132 1024 140 1029 b 168 1039 154 1039 161 1040 b 213 1019 185 1036 200 1031 b 226 996 219 1014 225 1006 b 229 956 229 983 231 971 b 228 936 228 951 228 943 b 196 908 225 918 214 908 m 78 -122 b 36 -87 54 -122 40 -111 b 35 -71 35 -82 35 -76 b 67 -33 36 -43 36 -39 b 104 18 110 -26 110 -26 b 88 340 92 125 82 232 b 111 569 92 417 101 493 b 125 725 117 621 121 672 b 107 739 126 743 125 744 b 61 724 92 735 76 728 b 13 742 35 714 28 717 b 0 783 6 754 -1 768 b 21 807 1 799 6 806 b 56 813 32 810 44 811 b 214 839 110 814 160 835 b 318 846 249 842 283 850 b 349 822 333 843 343 836 b 369 789 353 810 361 800 b 363 754 379 775 376 765 b 317 742 349 744 333 740 b 286 706 290 743 281 732 b 311 557 297 657 308 608 b 315 415 314 510 313 463 b 314 224 319 351 315 288 b 308 118 313 188 315 153 b 308 26 303 88 308 57 b 331 7 308 11 315 6 b 389 -25 357 8 375 -1 b 403 -44 392 -32 399 -37 b 394 -76 413 -57 408 -69 b 218 -114 335 -104 272 -111 b 101 -121 172 -112 136 -115 b 78 -122 93 -122 85 -122 "},"Ì":{"ha":408,"x_min":0,"x_max":0,"o":"m 258 925 b 196 949 233 926 213 935 b 119 1004 169 967 143 985 b 83 1046 106 1015 94 1032 b 79 1061 82 1050 79 1054 b 94 1119 76 1081 83 1101 b 115 1129 100 1128 106 1129 b 179 1089 140 1124 165 1119 b 182 1088 182 1089 182 1088 b 211 1046 197 1078 204 1061 b 238 1006 218 1032 226 1019 b 269 953 251 989 260 971 b 274 946 274 950 274 949 b 275 928 276 942 279 935 b 258 925 269 921 263 925 m 78 -122 b 36 -87 54 -122 40 -111 b 35 -71 35 -82 35 -76 b 67 -33 36 -43 36 -39 b 104 18 110 -26 110 -26 b 88 340 92 125 82 232 b 111 569 92 417 101 493 b 125 725 117 621 121 672 b 107 739 126 743 125 744 b 61 724 92 735 76 728 b 13 742 35 714 28 717 b 0 783 6 754 -1 768 b 21 807 1 799 6 806 b 56 813 32 810 44 811 b 214 839 110 814 160 835 b 318 846 249 842 283 850 b 349 822 333 843 343 836 b 369 789 353 810 361 800 b 363 754 379 775 376 765 b 317 742 349 744 333 740 b 286 706 290 743 281 732 b 311 557 297 657 308 608 b 315 415 314 510 313 463 b 314 224 319 351 315 288 b 308 118 313 188 315 153 b 308 26 303 88 308 57 b 331 7 308 11 315 6 b 389 -25 357 8 375 -1 b 403 -44 392 -32 399 -37 b 394 -76 413 -57 408 -69 b 218 -114 335 -104 272 -111 b 101 -121 172 -112 136 -115 b 78 -122 93 -122 85 -122 "},"Ī":{"ha":408,"x_min":0,"x_max":0,"o":"m 136 883 b 61 885 111 883 86 886 b 33 888 51 883 43 885 b 0 938 11 896 3 917 l 0 950 b 8 956 0 954 3 958 b 51 953 24 951 39 951 b 178 960 94 956 136 958 l 369 964 b 392 963 376 964 383 964 b 406 944 403 961 407 954 b 403 929 406 939 403 935 b 383 901 401 917 397 906 b 344 889 372 896 357 894 b 319 888 336 886 326 888 b 301 888 314 889 308 889 b 260 886 289 885 274 885 b 232 885 251 888 242 886 b 192 885 218 881 206 885 b 168 883 185 885 176 885 b 136 883 157 883 147 885 m 78 -122 b 36 -87 54 -122 40 -111 b 35 -71 35 -82 35 -76 b 67 -33 36 -43 36 -39 b 104 18 110 -26 110 -26 b 88 340 92 125 82 232 b 111 569 92 417 101 493 b 125 725 117 621 121 672 b 107 739 126 743 125 744 b 61 724 92 735 76 728 b 13 742 35 714 28 717 b 0 783 6 754 -1 768 b 21 807 1 799 6 806 b 56 813 32 810 44 811 b 214 839 110 814 160 835 b 318 846 249 842 283 850 b 349 822 333 843 343 836 b 369 789 353 810 361 800 b 363 754 379 775 376 765 b 317 742 349 744 333 740 b 286 706 290 743 281 732 b 311 557 297 657 308 608 b 315 415 314 510 313 463 b 314 224 319 351 315 288 b 308 118 313 188 315 153 b 308 26 303 88 308 57 b 331 7 308 11 315 6 b 389 -25 357 8 375 -1 b 403 -44 392 -32 399 -37 b 394 -76 413 -57 408 -69 b 218 -114 335 -104 272 -111 b 101 -121 172 -112 136 -115 b 78 -122 93 -122 85 -122 "},"Į":{"ha":408,"x_min":0,"x_max":0,"o":"m 403 -44 b 394 -76 413 -57 408 -69 b 221 -114 336 -104 275 -111 b 226 -132 224 -119 226 -125 b 221 -151 228 -137 226 -146 b 210 -164 217 -154 213 -158 b 181 -172 201 -171 192 -178 b 171 -174 178 -171 174 -172 b 167 -185 168 -176 168 -182 b 183 -231 164 -203 171 -217 b 211 -233 188 -236 204 -237 b 215 -228 213 -232 215 -231 b 231 -211 217 -218 225 -215 b 243 -212 235 -208 240 -208 b 249 -231 246 -217 250 -224 b 240 -260 249 -240 246 -251 b 208 -285 231 -271 221 -279 b 144 -278 190 -296 161 -294 b 132 -267 142 -274 138 -271 b 121 -247 126 -261 122 -254 b 139 -174 117 -219 122 -194 b 164 -147 146 -164 153 -154 b 169 -132 168 -143 171 -137 b 168 -119 168 -128 168 -124 l 168 -114 b 101 -121 144 -115 122 -118 b 78 -122 93 -122 85 -122 b 36 -87 54 -122 40 -111 b 35 -71 35 -82 35 -76 b 67 -33 36 -43 36 -39 b 104 18 110 -26 110 -26 b 88 340 92 125 82 232 b 111 569 92 417 101 493 b 125 725 117 621 121 672 b 107 739 126 743 125 744 b 61 724 92 735 76 728 b 13 742 35 714 28 717 b 0 783 6 754 -1 768 b 21 807 1 799 6 806 b 56 813 32 810 44 811 b 214 839 110 814 160 835 b 318 846 249 842 283 850 b 349 822 333 843 343 836 b 369 789 353 810 361 800 b 363 754 379 775 376 765 b 317 742 349 744 333 740 b 286 706 290 743 281 732 b 311 557 297 657 308 608 b 315 415 314 510 313 463 b 314 224 319 351 315 288 b 308 118 313 188 315 153 b 308 26 303 88 308 57 b 331 7 308 11 315 6 b 389 -25 357 8 375 -1 b 403 -44 392 -32 399 -37 "},"J":{"ha":422,"x_min":0,"x_max":0,"o":"m 114 -104 b 33 53 54 -67 39 -10 b 33 175 31 93 31 135 b 103 346 36 239 57 297 b 122 354 108 351 114 354 b 144 332 138 354 144 347 b 131 285 144 315 139 299 b 108 96 99 224 100 160 b 124 3 113 65 118 33 b 132 -21 125 -6 126 -14 b 140 -31 135 -25 135 -32 b 146 -19 144 -29 144 -24 b 164 100 156 19 164 60 l 164 190 b 154 539 167 307 161 422 b 140 679 151 585 144 632 b 118 696 139 696 133 700 b 35 682 90 686 63 689 b -17 721 7 674 -12 692 b -18 744 -18 729 -18 736 b 21 789 -18 772 -7 782 b 114 794 51 796 83 793 b 138 814 129 796 136 800 b 165 835 142 835 144 838 b 240 807 192 831 218 822 b 283 794 254 797 267 793 b 314 789 293 796 306 797 b 304 732 335 768 329 753 b 296 708 296 724 293 719 b 329 583 306 665 319 625 b 346 394 342 521 354 458 b 356 314 342 367 349 340 b 360 151 369 260 368 206 b 324 6 353 101 344 51 b 268 -89 308 -28 294 -61 b 114 -104 229 -131 161 -135 "},"K":{"ha":501,"x_min":0,"x_max":0,"o":"m 382 -164 b 347 -151 371 -158 360 -154 b 307 -114 328 -146 315 -131 b 281 -58 297 -96 288 -78 b 229 46 267 -22 249 13 b 175 174 207 86 192 131 b 168 200 172 182 169 192 b 163 210 167 204 168 210 b 158 199 158 210 160 203 b 157 188 158 194 158 192 b 140 43 150 139 144 92 b 129 -40 138 15 131 -12 b 124 -50 129 -44 128 -50 b 76 -53 108 -54 93 -67 b 53 -40 69 -47 61 -44 b 29 -32 46 -36 38 -32 b 14 -17 17 -32 14 -29 b 8 -6 14 -12 14 -8 b 1 8 1 -3 0 3 b 10 79 7 31 7 56 b 25 190 15 117 22 153 b 47 461 32 281 47 369 b 68 665 47 529 58 597 b 76 731 72 686 74 708 b 103 792 78 753 89 774 b 132 800 110 800 114 801 b 167 796 143 800 156 797 b 182 786 175 796 179 792 b 190 754 186 775 189 765 b 192 651 194 721 197 686 b 182 538 186 614 185 576 b 183 528 181 535 179 531 b 192 533 188 526 189 531 b 322 647 235 572 279 610 b 419 675 351 672 383 676 b 453 654 433 675 444 667 b 453 631 457 647 457 639 b 433 604 449 621 442 611 b 371 547 413 585 393 567 b 289 493 346 526 317 511 b 246 467 275 483 260 475 b 239 446 235 460 235 458 b 240 444 239 446 240 446 b 251 383 240 424 253 406 b 254 368 250 378 251 372 b 303 261 272 333 290 299 b 347 172 314 231 332 201 b 400 54 365 133 383 94 b 443 -25 411 26 426 0 b 467 -62 453 -37 460 -50 b 443 -135 482 -89 471 -122 b 410 -160 431 -140 421 -150 b 382 -164 400 -169 393 -171 "},"Ķ":{"ha":501,"x_min":0,"x_max":0,"o":"m 382 -164 b 347 -151 371 -158 360 -154 b 307 -114 328 -146 315 -131 b 281 -58 297 -96 288 -78 b 229 46 267 -22 249 13 b 175 174 207 86 192 131 b 168 200 172 182 169 192 b 163 210 167 204 168 210 b 158 199 158 210 160 203 b 157 188 158 194 158 192 b 140 43 150 139 144 92 b 129 -40 138 15 131 -12 b 124 -50 129 -44 128 -50 b 76 -53 108 -54 93 -67 b 53 -40 69 -47 61 -44 b 29 -32 46 -36 38 -32 b 14 -17 17 -32 14 -29 b 8 -6 14 -12 14 -8 b 1 8 1 -3 0 3 b 10 79 7 31 7 56 b 25 190 15 117 22 153 b 47 461 32 281 47 369 b 68 665 47 529 58 597 b 76 731 72 686 74 708 b 103 792 78 753 89 774 b 132 800 110 800 114 801 b 167 796 143 800 156 797 b 182 786 175 796 179 792 b 190 754 186 775 189 765 b 192 651 194 721 197 686 b 182 538 186 614 185 576 b 183 528 181 535 179 531 b 192 533 188 526 189 531 b 322 647 235 572 279 610 b 419 675 351 672 383 676 b 453 654 433 675 444 667 b 453 631 457 647 457 639 b 433 604 449 621 442 611 b 371 547 413 585 393 567 b 289 493 346 526 317 511 b 246 467 275 483 260 475 b 239 446 235 460 235 458 b 240 444 239 446 240 446 b 251 383 240 424 253 406 b 254 368 250 378 251 372 b 303 261 272 333 290 299 b 347 172 314 231 332 201 b 400 54 365 133 383 94 b 443 -25 411 26 426 0 b 467 -62 453 -37 460 -50 b 443 -135 482 -89 471 -122 b 410 -160 431 -140 421 -150 b 382 -164 400 -169 393 -171 m 192 -233 b 178 -225 188 -235 181 -233 b 178 -210 175 -222 175 -215 b 186 -204 181 -210 182 -208 b 181 -196 189 -201 188 -199 b 149 -153 160 -192 146 -176 b 168 -128 149 -140 157 -129 l 189 -122 b 224 -156 204 -118 219 -144 b 229 -178 225 -161 229 -169 b 208 -225 229 -196 221 -212 b 192 -233 203 -231 199 -233 "},"L":{"ha":410,"x_min":0,"x_max":0,"o":"m 158 -178 b 125 -176 149 -179 139 -179 b 40 -157 97 -179 69 -164 b 18 -129 26 -154 17 -143 b 7 -43 21 -100 14 -72 b 0 35 0 -18 0 8 b 6 335 0 135 6 235 b 29 546 6 406 18 475 b 58 765 40 618 50 692 b 89 792 61 785 69 793 b 154 757 117 792 140 782 b 181 722 161 743 172 733 b 219 642 199 699 217 675 b 226 613 219 632 224 622 b 232 536 236 588 240 563 b 228 508 229 528 229 518 b 224 376 225 464 222 421 b 225 199 225 317 229 258 b 224 38 219 144 219 90 b 231 -40 225 11 232 -14 b 250 -56 231 -53 236 -56 b 332 -43 278 -54 304 -47 b 425 -37 363 -40 393 -36 b 488 -62 449 -39 468 -50 b 489 -82 494 -67 494 -75 b 457 -106 481 -92 472 -103 b 321 -139 413 -117 367 -129 b 238 -160 293 -144 265 -151 b 158 -178 213 -168 186 -175 "},"Ĺ":{"ha":410,"x_min":0,"x_max":0,"o":"m 232 850 b 186 854 211 835 201 838 b 183 899 171 871 169 882 b 268 1010 214 932 238 975 b 331 1039 286 1028 303 1043 b 383 1022 351 1040 368 1032 b 390 963 403 1007 404 982 b 346 926 378 950 363 935 l 319 907 b 263 868 303 892 282 882 b 238 854 254 864 246 860 b 232 850 238 851 235 850 m 158 -178 b 125 -176 149 -179 139 -179 b 40 -157 97 -179 69 -164 b 18 -129 26 -154 17 -143 b 7 -43 21 -100 14 -72 b 0 35 0 -18 0 8 b 6 335 0 135 6 235 b 29 546 6 406 18 475 b 58 765 40 618 50 692 b 89 792 61 785 69 793 b 154 757 117 792 140 782 b 181 722 161 743 172 733 b 219 642 199 699 217 675 b 226 613 219 632 224 622 b 232 536 236 588 240 563 b 228 508 229 528 229 518 b 224 376 225 464 222 421 b 225 199 225 317 229 258 b 224 38 219 144 219 90 b 231 -40 225 11 232 -14 b 250 -56 231 -53 236 -56 b 332 -43 278 -54 304 -47 b 425 -37 363 -40 393 -36 b 488 -62 449 -39 468 -50 b 489 -82 494 -67 494 -75 b 457 -106 481 -92 472 -103 b 321 -139 413 -117 367 -129 b 238 -160 293 -144 265 -151 b 158 -178 213 -168 186 -175 "},"Ľ":{"ha":410,"x_min":0,"x_max":0,"o":"m 158 -178 b 125 -176 149 -179 139 -179 b 40 -157 97 -179 69 -164 b 18 -129 26 -154 17 -143 b 7 -43 21 -100 14 -72 b 0 35 0 -18 0 8 b 6 335 0 135 6 235 b 29 546 6 406 18 475 b 58 765 40 618 50 692 b 89 792 61 785 69 793 b 154 757 117 792 140 782 b 181 722 161 743 172 733 b 219 642 199 699 217 675 b 226 613 219 632 224 622 b 232 536 236 588 240 563 b 228 508 229 528 229 518 b 224 376 225 464 222 421 b 225 199 225 317 229 258 b 224 38 219 144 219 90 b 231 -40 225 11 232 -14 b 250 -56 231 -53 236 -56 b 332 -43 278 -54 304 -47 b 425 -37 363 -40 393 -36 b 488 -62 449 -39 468 -50 b 489 -82 494 -67 494 -75 b 457 -106 481 -92 472 -103 b 321 -139 413 -117 367 -129 b 238 -160 293 -144 265 -151 b 158 -178 213 -168 186 -175 m 344 760 b 385 721 363 765 381 733 b 392 694 388 714 392 704 b 367 638 392 672 382 653 b 347 628 361 632 356 628 b 331 638 342 626 335 628 b 331 656 328 642 328 650 b 340 663 335 656 336 658 b 335 672 344 667 342 669 b 296 724 310 678 293 696 b 319 754 296 739 306 751 l 344 760 "},"Ļ":{"ha":410,"x_min":0,"x_max":0,"o":"m 488 -62 b 489 -82 494 -67 494 -75 b 457 -106 481 -92 472 -103 b 321 -139 413 -117 367 -129 b 238 -160 293 -144 265 -151 b 158 -178 213 -168 186 -175 b 125 -176 149 -179 139 -179 b 40 -157 97 -179 69 -164 b 18 -129 26 -154 17 -143 b 18 -112 18 -124 19 -118 b 0 -74 6 -106 -3 -92 b 10 -53 0 -65 4 -58 b 7 -43 8 -50 8 -46 b 0 35 0 -18 0 8 b 6 335 0 135 6 235 b 29 546 6 406 18 475 b 58 765 40 618 50 692 b 89 792 61 785 69 793 b 154 757 117 792 140 782 b 181 722 161 743 172 733 b 219 642 199 699 217 675 b 226 613 219 632 224 622 b 232 536 236 588 240 563 b 228 508 229 528 229 518 b 224 376 225 464 222 421 b 225 199 225 317 229 258 b 224 38 219 144 219 90 b 231 -40 225 11 232 -14 b 250 -56 231 -53 236 -56 b 332 -43 278 -54 304 -47 b 425 -37 363 -40 393 -36 b 488 -62 449 -39 468 -50 "},"Ł":{"ha":410,"x_min":0,"x_max":0,"o":"m 488 -62 b 489 -82 494 -67 494 -75 b 457 -106 481 -92 472 -103 b 321 -139 413 -117 367 -129 b 238 -160 293 -144 265 -151 b 158 -178 213 -168 186 -175 b 125 -176 149 -179 139 -179 b 40 -157 97 -179 69 -164 b 18 -129 26 -154 17 -143 b 7 -43 21 -100 14 -72 b 0 25 1 -21 0 1 b -72 -32 -25 -8 -62 -56 l -100 31 b -25 176 -118 68 -50 135 l 4 225 b 6 335 4 261 6 299 b 29 546 6 406 18 475 b 58 765 40 618 50 692 b 89 792 61 785 69 793 b 154 757 117 792 140 782 b 181 722 161 743 172 733 b 219 642 199 699 217 675 b 226 613 219 632 224 622 l 226 611 b 243 636 232 619 238 628 b 272 681 253 650 261 665 b 290 693 278 685 283 690 b 338 671 308 699 333 688 b 336 643 340 664 340 653 b 319 592 328 626 325 610 b 308 558 318 582 313 571 b 224 399 282 506 256 450 l 224 376 b 225 199 225 317 229 258 b 224 38 219 144 219 90 b 231 -40 225 11 232 -14 b 250 -56 231 -53 236 -56 b 332 -43 278 -54 304 -47 b 425 -37 363 -40 393 -36 b 488 -62 449 -39 468 -50 "},"M":{"ha":744,"x_min":0,"x_max":0,"o":"m 106 -82 b 40 -54 82 -76 61 -65 b 31 -39 33 -51 32 -46 b 28 67 24 -8 28 22 b 43 265 24 125 39 194 b 54 432 46 321 53 376 b 74 597 57 488 65 542 b 89 740 79 644 79 692 l 96 779 b 114 794 99 788 104 794 b 140 793 124 793 132 794 b 186 783 156 789 171 786 b 232 751 206 779 221 767 b 267 600 254 719 261 639 b 271 593 268 597 268 593 b 278 601 275 593 276 599 b 382 793 300 653 346 749 b 419 810 392 804 403 811 b 461 808 433 808 447 808 b 496 779 486 807 492 803 b 478 529 506 729 488 578 b 476 522 478 528 476 525 b 478 514 476 519 475 515 b 485 519 482 514 483 517 b 503 543 490 528 497 535 b 558 644 510 553 532 600 b 579 676 564 653 572 671 b 628 686 593 689 610 690 b 681 671 646 682 664 681 b 703 635 694 661 704 651 b 700 599 703 622 704 610 b 681 463 690 554 686 508 b 669 282 674 403 665 343 b 672 138 671 235 674 185 b 674 -4 669 90 671 43 b 663 -39 674 -17 672 -29 b 656 -56 657 -44 656 -50 b 633 -69 653 -69 643 -69 b 526 -28 592 -69 560 -49 b 504 13 513 -18 506 -6 b 494 72 501 32 493 51 l 503 261 b 518 424 506 315 514 369 b 515 435 519 426 522 432 l 511 425 b 485 367 503 406 493 388 b 449 318 476 349 461 333 b 414 313 439 307 425 308 b 372 333 400 318 386 326 b 349 371 357 342 347 354 b 375 600 365 535 371 567 b 378 625 376 608 376 618 b 375 635 378 629 379 635 b 368 629 371 638 369 632 b 350 592 363 617 356 604 b 260 233 322 517 274 311 b 214 8 247 157 222 85 b 156 -81 210 -33 182 -56 b 106 -82 143 -92 122 -86 "},"N":{"ha":613,"x_min":0,"x_max":0,"o":"m 21 -50 b 0 -26 6 -50 0 -42 b 19 179 -1 43 8 111 b 114 528 39 299 71 414 b 151 640 128 564 139 603 b 190 717 161 667 175 693 b 221 746 197 729 207 742 b 281 729 249 754 267 751 b 294 703 286 721 292 713 b 333 525 314 646 329 586 b 368 344 338 464 356 404 b 421 151 382 279 403 215 b 426 140 422 147 422 140 b 431 153 431 140 429 149 b 460 650 449 265 461 597 b 454 765 460 688 454 726 b 463 831 454 788 463 808 b 471 839 464 835 467 839 b 525 849 489 842 506 851 b 549 826 538 846 544 839 b 563 528 581 728 569 628 b 561 421 560 493 561 457 b 550 181 563 340 571 260 b 518 75 542 144 529 110 b 497 53 515 63 507 56 b 478 47 490 50 483 47 b 322 97 421 49 364 50 b 283 183 299 121 293 154 b 238 435 257 265 247 350 b 231 486 236 451 233 469 b 228 494 231 489 231 493 b 222 488 222 496 222 490 l 215 454 b 192 247 207 385 197 317 b 179 140 188 213 182 176 b 135 -24 172 83 150 31 b 110 -44 132 -36 121 -42 b 21 -50 81 -51 51 -51 "},"Ń":{"ha":613,"x_min":0,"x_max":0,"o":"m 335 865 b 289 869 314 850 304 853 b 286 914 274 886 272 897 b 371 1025 317 947 340 990 b 433 1054 389 1043 406 1058 b 486 1038 454 1056 471 1047 b 493 978 506 1022 507 997 b 449 942 481 965 465 950 l 422 922 b 365 883 406 907 385 897 b 340 869 357 879 349 875 b 335 865 340 867 338 865 m 21 -50 b 0 -26 6 -50 0 -42 b 19 179 -1 43 8 111 b 114 528 39 299 71 414 b 151 640 128 564 139 603 b 190 717 161 667 175 693 b 221 746 197 729 207 742 b 281 729 249 754 267 751 b 294 703 286 721 292 713 b 333 525 314 646 329 586 b 368 344 338 464 356 404 b 421 151 382 279 403 215 b 426 140 422 147 422 140 b 431 153 431 140 429 149 b 460 650 449 265 461 597 b 454 765 460 688 454 726 b 463 831 454 788 463 808 b 471 839 464 835 467 839 b 525 849 489 842 506 851 b 549 826 538 846 544 839 b 563 528 581 728 569 628 b 561 421 560 493 561 457 b 550 181 563 340 571 260 b 518 75 542 144 529 110 b 497 53 515 63 507 56 b 478 47 490 50 483 47 b 322 97 421 49 364 50 b 283 183 299 121 293 154 b 238 435 257 265 247 350 b 231 486 236 451 233 469 b 228 494 231 489 231 493 b 222 488 222 496 222 490 l 215 454 b 192 247 207 385 197 317 b 179 140 188 213 182 176 b 135 -24 172 83 150 31 b 110 -44 132 -36 121 -42 b 21 -50 81 -51 51 -51 "},"Ň":{"ha":613,"x_min":0,"x_max":0,"o":"m 451 1021 b 486 1021 463 1029 476 1029 b 499 1013 490 1017 493 1015 b 504 989 508 1006 511 1000 b 483 961 497 979 492 971 b 444 915 469 946 457 932 b 375 836 424 888 401 860 b 354 825 368 832 361 828 b 328 829 344 821 335 822 b 292 867 317 843 304 856 b 224 939 268 889 242 911 b 206 965 217 947 210 957 b 196 975 201 968 199 972 b 201 994 193 985 194 992 b 249 993 214 1001 238 1000 b 256 988 250 992 251 988 b 325 925 258 986 313 940 b 344 906 331 918 338 911 b 361 908 353 899 354 899 b 381 933 367 917 374 925 b 431 1003 396 958 410 982 b 451 1021 438 1010 443 1017 m 21 -50 b 0 -26 6 -50 0 -42 b 19 179 -1 43 8 111 b 114 528 39 299 71 414 b 151 640 128 564 139 603 b 190 717 161 667 175 693 b 221 746 197 729 207 742 b 281 729 249 754 267 751 b 294 703 286 721 292 713 b 333 525 314 646 329 586 b 368 344 338 464 356 404 b 421 151 382 279 403 215 b 426 140 422 147 422 140 b 431 153 431 140 429 149 b 460 650 449 265 461 597 b 454 765 460 688 454 726 b 463 831 454 788 463 808 b 471 839 464 835 467 839 b 525 849 489 842 506 851 b 549 826 538 846 544 839 b 563 528 581 728 569 628 b 561 421 560 493 561 457 b 550 181 563 340 571 260 b 518 75 542 144 529 110 b 497 53 515 63 507 56 b 478 47 490 50 483 47 b 322 97 421 49 364 50 b 283 183 299 121 293 154 b 238 435 257 265 247 350 b 231 486 236 451 233 469 b 228 494 231 489 231 493 b 222 488 222 496 222 490 l 215 454 b 192 247 207 385 197 317 b 179 140 188 213 182 176 b 135 -24 172 83 150 31 b 110 -44 132 -36 121 -42 b 21 -50 81 -51 51 -51 "},"Ņ":{"ha":613,"x_min":0,"x_max":0,"o":"m 21 -50 b 0 -26 6 -50 0 -42 b 19 179 -1 43 8 111 b 114 528 39 299 71 414 b 151 640 128 564 139 603 b 190 717 161 667 175 693 b 221 746 197 729 207 742 b 281 729 249 754 267 751 b 294 703 286 721 292 713 b 333 525 314 646 329 586 b 368 344 338 464 356 404 b 421 151 382 279 403 215 b 426 140 422 147 422 140 b 431 153 431 140 429 149 b 460 650 449 265 461 597 b 454 765 460 688 454 726 b 463 831 454 788 463 808 b 471 839 464 835 467 839 b 525 849 489 842 506 851 b 549 826 538 846 544 839 b 563 528 581 728 569 628 b 561 421 560 493 561 457 b 550 181 563 340 571 260 b 518 75 542 144 529 110 b 497 53 515 63 507 56 b 478 47 490 50 483 47 b 322 97 421 49 364 50 b 283 183 299 121 293 154 b 238 435 257 265 247 350 b 231 486 236 451 233 469 b 228 494 231 489 231 493 b 222 488 222 496 222 490 l 215 454 b 192 247 207 385 197 317 b 179 140 188 213 182 176 b 135 -24 172 83 150 31 b 110 -44 132 -36 121 -42 b 21 -50 81 -51 51 -51 m 279 -154 b 265 -146 275 -156 268 -154 b 265 -131 263 -143 263 -136 b 274 -125 268 -131 269 -129 b 268 -117 276 -122 275 -119 b 236 -74 247 -112 233 -97 b 256 -49 236 -61 244 -50 l 276 -43 b 311 -76 292 -39 307 -65 b 317 -99 313 -82 317 -90 b 296 -146 317 -117 308 -133 b 279 -154 290 -151 286 -154 "},"Ñ":{"ha":613,"x_min":0,"x_max":0,"o":"m 161 872 b 140 882 154 868 146 874 b 136 908 135 888 133 899 b 138 928 135 914 133 921 b 154 956 143 938 147 949 b 176 979 161 964 168 972 b 206 993 186 985 196 989 b 236 1003 215 997 225 1000 b 268 1004 246 1004 257 1004 b 300 1006 278 1004 289 1007 b 328 997 310 1004 318 999 b 356 990 338 994 347 993 b 383 982 365 989 374 985 l 413 978 b 443 969 422 975 432 969 b 474 975 453 969 464 971 b 500 992 483 978 493 985 b 503 999 501 993 501 997 b 525 994 508 1004 519 1001 b 528 972 529 989 531 981 b 519 946 526 963 522 953 b 507 919 515 936 513 926 b 485 901 500 913 493 907 b 460 889 476 896 468 892 b 431 886 450 888 440 888 b 403 885 422 886 413 883 b 375 892 393 886 383 889 b 347 901 365 894 356 899 b 318 911 338 906 328 907 b 289 919 308 914 299 918 b 260 922 279 922 269 922 b 231 924 250 924 240 925 b 201 914 221 921 211 919 b 196 910 200 913 197 913 b 179 892 190 906 185 899 b 161 875 174 886 165 882 b 161 872 160 875 161 872 m 21 -50 b 0 -26 6 -50 0 -42 b 19 179 -1 43 8 111 b 114 528 39 299 71 414 b 151 640 128 564 139 603 b 190 717 161 667 175 693 b 221 746 197 729 207 742 b 281 729 249 754 267 751 b 294 703 286 721 292 713 b 333 525 314 646 329 586 b 368 344 338 464 356 404 b 421 151 382 279 403 215 b 426 140 422 147 422 140 b 431 153 431 140 429 149 b 460 650 449 265 461 597 b 454 765 460 688 454 726 b 463 831 454 788 463 808 b 471 839 464 835 467 839 b 525 849 489 842 506 851 b 549 826 538 846 544 839 b 563 528 581 728 569 628 b 561 421 560 493 561 457 b 550 181 563 340 571 260 b 518 75 542 144 529 110 b 497 53 515 63 507 56 b 478 47 490 50 483 47 b 322 97 421 49 364 50 b 283 183 299 121 293 154 b 238 435 257 265 247 350 b 231 486 236 451 233 469 b 228 494 231 489 231 493 b 222 488 222 496 222 490 l 215 454 b 192 247 207 385 197 317 b 179 140 188 213 182 176 b 135 -24 172 83 150 31 b 110 -44 132 -36 121 -42 b 21 -50 81 -51 51 -51 "},"O":{"ha":683,"x_min":0,"x_max":0,"o":"m 226 -200 b 153 -172 199 -196 175 -187 b 78 -68 131 -154 85 -94 b 36 85 61 0 51 13 b 40 201 29 121 36 165 b 85 419 49 279 75 354 b 188 597 96 492 136 546 b 256 633 207 617 229 628 b 283 656 269 636 278 643 b 335 722 294 683 313 704 l 339 725 b 442 750 365 764 404 757 b 518 726 468 744 494 736 b 568 672 542 715 561 699 b 588 600 574 649 586 626 l 588 599 b 615 415 599 538 608 476 b 617 390 618 411 619 392 b 622 281 621 354 622 317 l 622 193 l 647 197 b 688 246 661 200 682 233 b 751 315 714 301 744 315 b 776 275 774 315 783 281 b 774 267 775 271 774 269 b 761 224 781 253 765 232 b 653 117 742 183 688 131 l 600 96 b 578 28 603 121 588 46 b 544 -39 574 4 558 -18 b 461 -132 522 -74 494 -104 b 368 -179 433 -156 401 -167 b 226 -200 321 -196 275 -208 m 419 219 b 443 229 435 211 439 213 b 500 533 460 315 499 446 b 493 583 500 550 500 567 b 489 606 489 590 488 597 b 467 665 490 629 479 647 b 446 667 460 672 453 674 b 428 651 439 663 433 657 b 378 557 400 626 388 590 b 364 457 367 519 364 481 b 368 331 365 401 364 368 b 419 219 375 276 393 233 m 319 -111 b 372 -51 344 -97 363 -78 b 421 132 404 26 394 53 b 411 151 425 142 421 149 b 393 157 406 154 397 154 b 239 346 318 182 272 267 l 232 350 b 229 344 231 349 229 347 b 219 299 225 331 222 314 b 190 118 206 239 189 182 b 226 -21 192 57 197 31 b 276 -103 242 -50 258 -76 b 319 -111 289 -122 300 -124 "},"Ó":{"ha":683,"x_min":0,"x_max":0,"o":"m 408 869 b 363 874 388 854 378 857 b 360 918 347 890 346 901 b 444 1029 390 951 414 994 b 507 1058 463 1047 479 1063 b 560 1042 528 1060 544 1051 b 567 982 579 1026 581 1001 b 522 946 554 969 539 954 l 496 926 b 439 888 479 911 458 901 b 414 874 431 883 422 879 b 408 869 414 871 411 869 m 226 -200 b 153 -172 199 -196 175 -187 b 78 -68 131 -154 85 -94 b 36 85 61 0 51 13 b 40 201 29 121 36 165 b 85 419 49 279 75 354 b 188 597 96 492 136 546 b 256 633 207 617 229 628 b 283 656 269 636 278 643 b 335 722 294 683 313 704 l 339 725 b 442 750 365 764 404 757 b 518 726 468 744 494 736 b 568 672 542 715 561 699 b 588 600 574 649 586 626 l 588 599 b 615 415 599 538 608 476 b 617 390 618 411 619 392 b 622 281 621 354 622 317 l 622 193 l 647 197 b 688 246 661 200 682 233 b 751 315 714 301 744 315 b 776 275 774 315 783 281 b 774 267 775 271 774 269 b 761 224 781 253 765 232 b 653 117 742 183 688 131 l 600 96 b 578 28 603 121 588 46 b 544 -39 574 4 558 -18 b 461 -132 522 -74 494 -104 b 368 -179 433 -156 401 -167 b 226 -200 321 -196 275 -208 m 419 219 b 443 229 435 211 439 213 b 500 533 460 315 499 446 b 493 583 500 550 500 567 b 489 606 489 590 488 597 b 467 665 490 629 479 647 b 446 667 460 672 453 674 b 428 651 439 663 433 657 b 378 557 400 626 388 590 b 364 457 367 519 364 481 b 368 331 365 401 364 368 b 419 219 375 276 393 233 m 319 -111 b 372 -51 344 -97 363 -78 b 421 132 404 26 394 53 b 411 151 425 142 421 149 b 393 157 406 154 397 154 b 239 346 318 182 272 267 l 232 350 b 229 344 231 349 229 347 b 219 299 225 331 222 314 b 190 118 206 239 189 182 b 226 -21 192 57 197 31 b 276 -103 242 -50 258 -76 b 319 -111 289 -122 300 -124 "},"Ô":{"ha":683,"x_min":0,"x_max":0,"o":"m 517 840 b 496 858 508 844 503 851 b 446 928 475 879 461 903 b 426 953 439 936 432 944 b 410 956 419 963 418 963 b 390 936 403 950 396 943 b 321 874 378 921 324 875 b 314 868 317 874 315 869 b 267 867 303 861 279 860 b 261 886 260 869 258 876 b 271 896 264 889 267 893 b 289 922 275 904 282 914 b 357 994 307 950 333 972 b 393 1032 369 1006 382 1018 b 419 1036 400 1039 410 1040 b 440 1025 426 1033 433 1029 b 510 946 467 1001 489 974 b 549 900 522 929 535 915 b 569 872 557 890 563 882 b 564 849 576 861 574 856 b 551 840 558 846 556 844 b 517 840 542 832 528 832 m 226 -200 b 153 -172 199 -196 175 -187 b 78 -68 131 -154 85 -94 b 36 85 61 0 51 13 b 40 201 29 121 36 165 b 85 419 49 279 75 354 b 188 597 96 492 136 546 b 256 633 207 617 229 628 b 283 656 269 636 278 643 b 335 722 294 683 313 704 l 339 725 b 442 750 365 764 404 757 b 518 726 468 744 494 736 b 568 672 542 715 561 699 b 588 600 574 649 586 626 l 588 599 b 615 415 599 538 608 476 b 617 390 618 411 619 392 b 622 281 621 354 622 317 l 622 193 l 647 197 b 688 246 661 200 682 233 b 751 315 714 301 744 315 b 776 275 774 315 783 281 b 774 267 775 271 774 269 b 761 224 781 253 765 232 b 653 117 742 183 688 131 l 600 96 b 578 28 603 121 588 46 b 544 -39 574 4 558 -18 b 461 -132 522 -74 494 -104 b 368 -179 433 -156 401 -167 b 226 -200 321 -196 275 -208 m 419 219 b 443 229 435 211 439 213 b 500 533 460 315 499 446 b 493 583 500 550 500 567 b 489 606 489 590 488 597 b 467 665 490 629 479 647 b 446 667 460 672 453 674 b 428 651 439 663 433 657 b 378 557 400 626 388 590 b 364 457 367 519 364 481 b 368 331 365 401 364 368 b 419 219 375 276 393 233 m 319 -111 b 372 -51 344 -97 363 -78 b 421 132 404 26 394 53 b 411 151 425 142 421 149 b 393 157 406 154 397 154 b 239 346 318 182 272 267 l 232 350 b 229 344 231 349 229 347 b 219 299 225 331 222 314 b 190 118 206 239 189 182 b 226 -21 192 57 197 31 b 276 -103 242 -50 258 -76 b 319 -111 289 -122 300 -124 "},"Ö":{"ha":683,"x_min":0,"x_max":0,"o":"m 288 850 b 260 869 278 854 268 861 l 235 894 b 238 958 215 914 217 940 b 240 960 239 958 240 960 b 272 979 251 967 258 981 b 319 961 289 976 306 971 b 342 943 328 956 335 949 b 354 915 351 936 356 926 b 317 851 353 888 339 867 b 288 850 307 846 297 846 m 506 842 b 451 867 485 843 464 847 b 438 881 447 872 442 875 b 435 949 417 900 417 928 b 458 968 442 957 450 963 b 478 972 464 972 471 974 b 522 953 494 969 510 964 b 536 929 529 947 535 939 b 539 889 539 917 540 904 b 538 869 538 885 538 876 b 506 842 535 851 524 842 m 226 -200 b 153 -172 199 -196 175 -187 b 78 -68 131 -154 85 -94 b 36 85 61 0 51 13 b 40 201 29 121 36 165 b 85 419 49 279 75 354 b 188 597 96 492 136 546 b 256 633 207 617 229 628 b 283 656 269 636 278 643 b 335 722 294 683 313 704 l 339 725 b 442 750 365 764 404 757 b 518 726 468 744 494 736 b 568 672 542 715 561 699 b 588 600 574 649 586 626 l 588 599 b 615 415 599 538 608 476 b 617 390 618 411 619 392 b 622 281 621 354 622 317 l 622 193 l 647 197 b 688 246 661 200 682 233 b 751 315 714 301 744 315 b 776 275 774 315 783 281 b 774 267 775 271 774 269 b 761 224 781 253 765 232 b 653 117 742 183 688 131 l 600 96 b 578 28 603 121 588 46 b 544 -39 574 4 558 -18 b 461 -132 522 -74 494 -104 b 368 -179 433 -156 401 -167 b 226 -200 321 -196 275 -208 m 419 219 b 443 229 435 211 439 213 b 500 533 460 315 499 446 b 493 583 500 550 500 567 b 489 606 489 590 488 597 b 467 665 490 629 479 647 b 446 667 460 672 453 674 b 428 651 439 663 433 657 b 378 557 400 626 388 590 b 364 457 367 519 364 481 b 368 331 365 401 364 368 b 419 219 375 276 393 233 m 319 -111 b 372 -51 344 -97 363 -78 b 421 132 404 26 394 53 b 411 151 425 142 421 149 b 393 157 406 154 397 154 b 239 346 318 182 272 267 l 232 350 b 229 344 231 349 229 347 b 219 299 225 331 222 314 b 190 118 206 239 189 182 b 226 -21 192 57 197 31 b 276 -103 242 -50 258 -76 b 319 -111 289 -122 300 -124 "},"Ò":{"ha":683,"x_min":0,"x_max":0,"o":"m 429 875 b 367 899 404 876 383 885 b 290 954 340 917 314 935 b 254 996 276 965 265 982 b 250 1011 253 1000 250 1004 b 265 1069 247 1031 254 1051 b 286 1079 271 1078 276 1079 b 350 1039 311 1074 336 1069 b 353 1038 353 1039 353 1038 b 382 996 368 1028 375 1011 b 408 956 389 982 397 969 b 440 903 422 939 431 921 b 444 896 444 900 444 899 b 446 878 447 892 450 885 b 429 875 440 871 433 875 m 226 -200 b 153 -172 199 -196 175 -187 b 78 -68 131 -154 85 -94 b 36 85 61 0 51 13 b 40 201 29 121 36 165 b 85 419 49 279 75 354 b 188 597 96 492 136 546 b 256 633 207 617 229 628 b 283 656 269 636 278 643 b 335 722 294 683 313 704 l 339 725 b 442 750 365 764 404 757 b 518 726 468 744 494 736 b 568 672 542 715 561 699 b 588 600 574 649 586 626 l 588 599 b 615 415 599 538 608 476 b 617 390 618 411 619 392 b 622 281 621 354 622 317 l 622 193 l 647 197 b 688 246 661 200 682 233 b 751 315 714 301 744 315 b 776 275 774 315 783 281 b 774 267 775 271 774 269 b 761 224 781 253 765 232 b 653 117 742 183 688 131 l 600 96 b 578 28 603 121 588 46 b 544 -39 574 4 558 -18 b 461 -132 522 -74 494 -104 b 368 -179 433 -156 401 -167 b 226 -200 321 -196 275 -208 m 419 219 b 443 229 435 211 439 213 b 500 533 460 315 499 446 b 493 583 500 550 500 567 b 489 606 489 590 488 597 b 467 665 490 629 479 647 b 446 667 460 672 453 674 b 428 651 439 663 433 657 b 378 557 400 626 388 590 b 364 457 367 519 364 481 b 368 331 365 401 364 368 b 419 219 375 276 393 233 m 319 -111 b 372 -51 344 -97 363 -78 b 421 132 404 26 394 53 b 411 151 425 142 421 149 b 393 157 406 154 397 154 b 239 346 318 182 272 267 l 232 350 b 229 344 231 349 229 347 b 219 299 225 331 222 314 b 190 118 206 239 189 182 b 226 -21 192 57 197 31 b 276 -103 242 -50 258 -76 b 319 -111 289 -122 300 -124 "},"Ő":{"ha":683,"x_min":0,"x_max":0,"o":"m 336 825 b 328 831 331 824 329 829 b 328 881 321 846 324 863 l 347 953 b 368 996 349 967 360 981 b 379 1006 369 999 375 1003 b 429 1031 394 1018 413 1026 b 444 1024 436 1031 442 1031 b 435 967 447 1006 450 988 b 408 925 429 949 418 936 l 386 888 l 353 838 b 336 825 346 829 343 825 m 453 828 b 443 857 439 828 436 842 b 469 960 453 892 454 925 b 504 1008 474 981 483 996 b 549 1026 518 1022 533 1026 b 571 1001 567 1032 576 1018 b 553 957 567 988 561 974 l 538 935 b 510 885 532 919 519 901 l 496 863 l 494 858 b 453 828 483 842 471 825 m 226 -200 b 153 -172 199 -196 175 -187 b 78 -68 131 -154 85 -94 b 36 85 61 0 51 13 b 40 201 29 121 36 165 b 85 419 49 279 75 354 b 188 597 96 492 136 546 b 256 633 207 617 229 628 b 283 656 269 636 278 643 b 335 722 294 683 313 704 l 339 725 b 442 750 365 764 404 757 b 518 726 468 744 494 736 b 568 672 542 715 561 699 b 588 600 574 649 586 626 l 588 599 b 615 415 599 538 608 476 b 617 390 618 411 619 392 b 622 281 621 354 622 317 l 622 193 l 647 197 b 688 246 661 200 682 233 b 751 315 714 301 744 315 b 776 275 774 315 783 281 b 774 267 775 271 774 269 b 761 224 781 253 765 232 b 653 117 742 183 688 131 l 600 96 b 578 28 603 121 588 46 b 544 -39 574 4 558 -18 b 461 -132 522 -74 494 -104 b 368 -179 433 -156 401 -167 b 226 -200 321 -196 275 -208 m 419 219 b 443 229 435 211 439 213 b 500 533 460 315 499 446 b 493 583 500 550 500 567 b 489 606 489 590 488 597 b 467 665 490 629 479 647 b 446 667 460 672 453 674 b 428 651 439 663 433 657 b 378 557 400 626 388 590 b 364 457 367 519 364 481 b 368 331 365 401 364 368 b 419 219 375 276 393 233 m 319 -111 b 372 -51 344 -97 363 -78 b 421 132 404 26 394 53 b 411 151 425 142 421 149 b 393 157 406 154 397 154 b 239 346 318 182 272 267 l 232 350 b 229 344 231 349 229 347 b 219 299 225 331 222 314 b 190 118 206 239 189 182 b 226 -21 192 57 197 31 b 276 -103 242 -50 258 -76 b 319 -111 289 -122 300 -124 "},"Ō":{"ha":683,"x_min":0,"x_max":0,"o":"m 332 883 b 257 885 307 883 282 886 b 229 888 247 883 239 885 b 196 938 207 896 199 917 l 196 950 b 204 956 196 954 199 958 b 247 953 219 951 235 951 b 374 960 290 956 332 958 l 565 964 b 588 963 572 964 579 964 b 601 944 599 961 603 954 b 599 929 601 939 599 935 b 579 901 597 917 593 906 b 540 889 568 896 553 894 b 515 888 532 886 522 888 b 497 888 510 889 504 889 b 456 886 485 885 469 885 b 428 885 447 888 438 886 b 388 885 414 881 401 885 b 364 883 381 885 372 885 b 332 883 353 883 343 885 m 226 -200 b 153 -172 199 -196 175 -187 b 78 -68 131 -154 85 -94 b 36 85 61 0 51 13 b 40 201 29 121 36 165 b 85 419 49 279 75 354 b 188 597 96 492 136 546 b 256 633 207 617 229 628 b 283 656 269 636 278 643 b 335 722 294 683 313 704 l 339 725 b 442 750 365 764 404 757 b 518 726 468 744 494 736 b 568 672 542 715 561 699 b 588 600 574 649 586 626 l 588 599 b 615 415 599 538 608 476 b 617 390 618 411 619 392 b 622 281 621 354 622 317 l 622 193 l 647 197 b 688 246 661 200 682 233 b 751 315 714 301 744 315 b 776 275 774 315 783 281 b 774 267 775 271 774 269 b 761 224 781 253 765 232 b 653 117 742 183 688 131 l 600 96 b 578 28 603 121 588 46 b 544 -39 574 4 558 -18 b 461 -132 522 -74 494 -104 b 368 -179 433 -156 401 -167 b 226 -200 321 -196 275 -208 m 419 219 b 443 229 435 211 439 213 b 500 533 460 315 499 446 b 493 583 500 550 500 567 b 489 606 489 590 488 597 b 467 665 490 629 479 647 b 446 667 460 672 453 674 b 428 651 439 663 433 657 b 378 557 400 626 388 590 b 364 457 367 519 364 481 b 368 331 365 401 364 368 b 419 219 375 276 393 233 m 319 -111 b 372 -51 344 -97 363 -78 b 421 132 404 26 394 53 b 411 151 425 142 421 149 b 393 157 406 154 397 154 b 239 346 318 182 272 267 l 232 350 b 229 344 231 349 229 347 b 219 299 225 331 222 314 b 190 118 206 239 189 182 b 226 -21 192 57 197 31 b 276 -103 242 -50 258 -76 b 319 -111 289 -122 300 -124 "},"Ø":{"ha":683,"x_min":0,"x_max":0,"o":"m 751 315 b 776 275 774 315 783 281 b 774 267 775 271 774 269 b 761 224 781 253 765 232 b 653 117 742 183 688 131 l 600 96 b 578 28 603 121 588 46 b 544 -39 574 4 558 -18 b 461 -132 522 -74 494 -104 b 368 -179 433 -156 401 -167 b 232 -201 322 -194 279 -207 b 207 -208 226 -210 219 -212 b 161 -208 193 -204 176 -206 b 131 -193 143 -214 133 -207 b 126 -146 126 -175 125 -161 b 78 -68 106 -119 82 -86 b 36 85 61 0 51 13 b 40 201 29 121 36 165 b 85 419 49 279 75 354 b 188 597 96 492 136 546 b 256 633 207 617 229 628 b 283 656 269 636 278 643 b 335 722 294 683 313 704 l 339 725 b 442 750 365 764 404 757 b 472 742 451 747 463 746 b 492 783 479 756 485 769 b 514 831 500 797 506 814 b 531 846 519 836 524 842 b 581 831 547 854 574 846 b 583 803 585 824 586 813 b 574 749 578 785 576 768 b 567 715 574 739 569 728 b 560 693 564 708 561 700 b 568 672 563 686 567 679 b 588 600 574 649 586 626 l 588 599 b 615 415 599 538 608 476 b 617 390 618 411 619 392 b 622 281 621 354 622 317 l 622 193 l 647 197 b 688 246 661 200 682 233 b 751 315 714 301 744 315 m 428 651 b 378 557 400 626 388 590 b 368 517 374 543 371 529 b 392 572 376 535 383 554 l 429 653 b 428 651 429 653 428 651 m 443 229 b 500 532 460 315 499 444 b 494 519 499 528 496 524 b 454 436 481 492 469 463 b 436 386 446 422 440 403 b 401 290 426 356 417 321 b 388 257 397 279 393 268 b 419 219 396 239 407 226 b 443 229 435 211 439 213 m 219 299 b 190 118 206 239 189 182 b 193 74 190 101 192 86 b 232 163 204 104 217 133 b 279 264 247 194 263 229 b 239 346 264 290 250 318 l 232 350 b 229 344 231 349 229 347 b 219 299 225 331 222 314 m 421 132 b 411 151 425 142 421 149 b 393 157 406 154 397 154 b 354 176 379 161 367 168 l 350 167 b 314 78 333 139 318 110 b 300 46 311 64 307 56 b 274 -28 288 24 279 -3 l 261 -81 b 276 -103 267 -87 271 -96 b 319 -111 289 -122 300 -124 b 372 -51 344 -97 363 -78 b 421 132 404 26 394 53 "},"Õ":{"ha":683,"x_min":0,"x_max":0,"o":"m 65 851 b 44 861 58 847 50 853 b 40 888 39 867 38 878 b 42 907 39 893 38 900 b 58 935 47 917 51 928 b 81 958 65 943 72 951 b 110 972 90 964 100 968 b 140 982 119 976 129 979 b 172 983 150 983 161 983 b 204 985 182 983 193 986 b 232 976 214 983 222 978 b 260 969 242 974 251 972 b 288 961 269 968 278 964 l 317 957 b 347 949 326 954 336 949 b 378 954 357 949 368 950 b 404 971 388 957 397 964 b 407 978 406 972 406 976 b 429 974 413 983 424 981 b 432 951 433 968 435 960 b 424 925 431 942 426 932 b 411 899 419 915 417 906 b 389 881 404 892 397 886 b 364 868 381 875 372 871 b 335 865 354 867 344 867 b 307 864 326 865 317 863 b 279 871 297 865 288 868 b 251 881 269 874 260 878 b 222 890 242 885 232 886 b 193 899 213 893 203 897 b 164 901 183 901 174 901 b 135 903 154 903 144 904 b 106 893 125 900 115 899 b 100 889 104 892 101 892 b 83 871 94 885 89 878 b 65 854 78 865 69 861 b 65 851 64 854 65 851 m 226 -200 b 153 -172 199 -196 175 -187 b 78 -68 131 -154 85 -94 b 36 85 61 0 51 13 b 40 201 29 121 36 165 b 85 419 49 279 75 354 b 188 597 96 492 136 546 b 256 633 207 617 229 628 b 283 656 269 636 278 643 b 335 722 294 683 313 704 l 339 725 b 442 750 365 764 404 757 b 518 726 468 744 494 736 b 568 672 542 715 561 699 b 588 600 574 649 586 626 l 588 599 b 615 415 599 538 608 476 b 617 390 618 411 619 392 b 622 281 621 354 622 317 l 622 193 l 647 197 b 688 246 661 200 682 233 b 751 315 714 301 744 315 b 776 275 774 315 783 281 b 774 267 775 271 774 269 b 761 224 781 253 765 232 b 653 117 742 183 688 131 l 600 96 b 578 28 603 121 588 46 b 544 -39 574 4 558 -18 b 461 -132 522 -74 494 -104 b 368 -179 433 -156 401 -167 b 226 -200 321 -196 275 -208 m 419 219 b 443 229 435 211 439 213 b 500 533 460 315 499 446 b 493 583 500 550 500 567 b 489 606 489 590 488 597 b 467 665 490 629 479 647 b 446 667 460 672 453 674 b 428 651 439 663 433 657 b 378 557 400 626 388 590 b 364 457 367 519 364 481 b 368 331 365 401 364 368 b 419 219 375 276 393 233 m 319 -111 b 372 -51 344 -97 363 -78 b 421 132 404 26 394 53 b 411 151 425 142 421 149 b 393 157 406 154 397 154 b 239 346 318 182 272 267 l 232 350 b 229 344 231 349 229 347 b 219 299 225 331 222 314 b 190 118 206 239 189 182 b 226 -21 192 57 197 31 b 276 -103 242 -50 258 -76 b 319 -111 289 -122 300 -124 "},"Œ":{"ha":1200,"x_min":0,"x_max":0,"o":"m 1199 372 b 1197 338 1200 363 1203 350 b 1182 288 1190 324 1189 306 b 1167 249 1174 272 1167 263 b 1161 232 1167 242 1163 235 b 1053 81 1142 200 1128 167 b 838 -50 985 4 925 -47 b 811 -51 829 -51 819 -51 b 696 -26 768 -51 731 -43 b 596 50 660 -7 622 14 b 569 97 586 65 576 79 l 567 96 b 544 28 569 121 554 46 b 511 -39 540 4 525 -18 b 428 -132 489 -74 461 -104 b 335 -179 400 -156 368 -167 b 193 -200 288 -196 242 -208 b 119 -172 165 -196 142 -187 b 44 -68 97 -154 51 -94 b 3 85 28 0 18 13 b 7 201 -4 121 3 165 b 51 419 15 279 42 354 b 154 597 63 492 103 546 b 222 633 174 617 196 628 b 250 656 236 636 244 643 b 301 722 261 683 279 704 l 306 725 b 408 750 332 764 371 757 b 485 726 435 744 461 736 b 535 672 508 715 528 699 b 554 600 540 649 553 626 l 554 599 b 582 415 565 538 575 476 b 583 390 585 411 586 392 l 586 367 b 599 394 589 376 593 385 b 661 464 614 422 635 444 l 717 504 b 740 719 688 575 685 654 b 849 819 771 757 801 807 b 922 871 904 833 911 849 b 954 907 929 889 944 900 b 1008 904 972 921 996 919 b 1006 850 1021 892 1021 864 b 985 824 996 840 990 832 l 1040 785 b 1056 669 1076 764 1083 701 b 983 643 1036 647 1010 638 b 936 719 953 651 949 696 b 931 729 935 722 933 722 l 932 731 l 874 686 b 839 594 844 664 839 629 b 838 536 839 583 839 549 b 974 510 885 542 914 535 b 1014 457 996 501 1010 482 b 1014 411 1015 443 1017 426 b 969 368 1010 388 992 369 b 817 399 907 364 858 374 b 807 388 811 401 811 390 b 764 336 776 363 788 365 b 742 296 754 325 749 311 b 743 275 746 288 746 278 b 740 267 742 271 740 269 b 728 224 747 253 732 232 b 721 211 726 219 724 215 l 717 182 b 731 114 714 158 719 135 b 811 44 756 69 768 51 b 881 51 840 42 847 28 b 969 125 908 71 950 97 b 988 149 975 133 982 142 b 1111 321 1014 179 1089 269 b 1142 374 1119 346 1119 357 b 1179 385 1156 383 1168 385 b 1199 372 1194 385 1196 386 m 968 743 b 974 718 968 735 969 728 l 976 719 b 992 736 985 722 989 726 b 986 754 993 743 990 750 b 975 750 986 753 983 751 l 972 749 l 968 746 m 410 229 b 467 533 426 315 465 446 b 460 583 467 550 467 567 b 456 606 456 590 454 597 b 433 665 457 629 446 647 b 413 667 426 672 419 674 b 394 651 406 663 400 657 b 344 557 367 626 354 590 b 331 457 333 519 331 481 b 335 331 332 401 331 368 b 386 219 342 276 360 233 b 410 229 401 211 406 213 m 863 465 b 858 457 865 467 861 456 b 893 444 868 450 878 446 b 906 449 896 444 900 446 b 921 469 911 454 917 460 l 922 472 b 917 474 919 474 918 474 b 863 465 896 469 883 478 m 388 132 b 378 151 392 142 388 149 b 360 157 372 154 364 154 b 206 346 285 182 239 267 l 199 350 b 196 344 197 349 196 347 b 186 299 192 331 189 314 b 157 118 172 239 156 182 b 193 -21 158 57 164 31 b 243 -103 208 -50 225 -76 b 286 -111 256 -122 267 -124 b 339 -51 311 -97 329 -78 b 388 132 371 26 361 53 "},"P":{"ha":526,"x_min":0,"x_max":0,"o":"m 126 -36 b 76 -15 104 -47 85 -36 b 61 56 65 10 57 36 b 81 292 67 140 71 217 b 53 351 83 317 74 339 b 21 415 31 367 22 389 b 19 426 19 419 19 422 b 68 476 17 458 36 479 b 74 475 69 475 72 475 b 104 497 101 472 101 472 b 133 639 113 546 121 593 b 118 657 136 656 135 657 b 65 660 101 657 83 658 b 50 665 60 660 54 663 b 14 718 32 679 18 696 b 1 739 13 726 7 732 b 1 757 0 746 -1 751 b 17 761 6 763 11 764 b 93 764 43 747 68 763 b 133 771 107 765 119 769 b 167 779 144 772 156 774 b 218 782 183 786 201 786 b 282 778 239 778 260 778 b 411 732 331 778 375 764 b 464 657 436 713 453 688 b 485 531 479 617 485 574 b 481 504 485 522 485 514 b 457 428 474 479 468 451 b 410 381 447 406 435 388 b 376 363 399 375 386 371 b 351 356 368 356 360 353 b 344 357 349 357 346 358 b 306 347 335 346 319 347 b 281 317 289 347 283 331 b 269 258 276 297 276 278 b 242 107 257 210 256 157 b 232 19 235 81 235 49 b 185 -28 229 -4 207 -26 b 126 -36 164 -28 144 -28 m 322 513 b 343 522 329 514 336 517 b 396 603 376 539 393 571 b 367 656 396 632 388 646 b 332 665 356 660 343 664 b 317 653 321 667 317 664 b 304 526 318 610 311 568 b 322 513 301 506 303 504 "},"Þ":{"ha":533,"x_min":0,"x_max":0,"o":"m 493 581 b 504 514 504 560 508 538 b 493 433 500 488 499 460 b 479 378 489 415 485 396 l 471 343 b 458 318 468 335 464 325 b 385 244 439 289 415 263 b 297 218 357 229 328 219 l 244 215 b 178 221 222 215 200 214 b 163 208 167 225 163 221 b 160 151 164 189 161 171 l 158 108 l 157 85 b 163 19 156 64 158 42 b 163 -18 165 7 163 -6 b 140 -43 164 -28 149 -42 b 103 -46 128 -44 115 -46 l 54 -47 b 33 -31 39 -47 33 -44 b 33 61 31 0 32 31 l 33 132 l 32 250 l 32 269 l 31 315 b 28 376 28 336 29 357 b 31 472 28 408 29 440 l 33 590 l 38 663 l 39 671 b 44 764 33 703 40 733 b 94 782 46 779 50 783 b 169 715 135 781 161 758 l 176 665 b 189 658 178 657 181 656 b 346 675 240 678 292 688 b 422 651 372 669 397 663 b 493 581 454 636 478 613 m 375 526 b 371 556 375 536 374 546 b 354 576 369 565 364 574 b 321 582 343 579 333 582 b 242 565 293 583 267 579 b 201 536 226 557 213 549 b 196 521 197 531 194 525 l 196 506 l 193 453 b 193 425 192 443 192 433 b 192 408 194 419 194 414 l 188 386 l 185 363 l 183 314 b 189 307 182 310 185 307 l 207 306 b 285 325 233 306 258 311 b 329 360 283 325 329 360 l 333 365 b 346 386 338 374 340 379 b 358 410 351 392 356 401 b 368 458 361 426 365 442 "},"Q":{"ha":626,"x_min":0,"x_max":0,"o":"m 388 -264 b 361 -257 379 -264 368 -262 b 332 -250 353 -254 343 -251 b 275 -200 304 -246 283 -229 l 263 -154 l 256 -129 l 254 -125 l 250 -118 b 243 -111 250 -111 247 -111 l 240 -111 b 217 -112 232 -112 225 -112 b 150 -100 194 -112 171 -107 l 142 -97 b 97 -79 126 -92 110 -87 b 17 4 60 -64 33 -36 b -14 113 3 31 -12 69 l -14 122 l -10 154 b 11 244 -6 183 -1 214 b 21 300 18 260 19 279 b 38 369 24 325 26 349 b 60 429 46 383 53 406 b 90 501 68 456 76 485 b 135 538 97 513 114 535 l 135 540 b 139 551 136 543 136 549 b 144 571 143 558 144 564 b 153 597 144 581 150 589 b 157 603 154 599 154 600 b 307 769 189 675 239 731 b 338 778 317 776 328 778 b 367 771 346 778 357 776 l 403 758 b 443 742 417 751 431 747 b 469 724 454 738 463 729 b 478 717 472 721 475 718 l 486 707 l 507 693 b 515 683 510 692 514 686 b 557 479 553 610 567 538 l 557 478 b 535 314 550 424 543 369 b 514 231 529 286 522 258 b 499 171 508 213 504 192 l 494 160 b 492 153 493 158 492 154 b 532 182 506 161 519 171 b 546 193 538 186 542 189 b 617 288 579 218 586 238 l 622 297 b 676 383 649 339 646 356 b 707 383 681 385 703 383 b 717 379 710 383 714 383 b 728 369 721 374 724 372 b 732 365 729 367 731 365 b 744 338 744 357 753 350 b 724 297 736 325 731 311 b 683 229 713 274 697 249 b 604 139 658 194 633 168 b 594 131 600 135 597 133 b 469 76 558 101 521 83 b 463 69 465 76 464 75 l 449 47 b 418 4 440 33 431 18 l 411 -4 b 371 -49 397 -21 386 -35 b 368 -62 365 -56 367 -58 b 376 -94 374 -74 375 -85 b 379 -99 379 -96 379 -97 b 404 -160 383 -119 393 -139 b 419 -183 410 -168 415 -175 b 439 -210 426 -192 433 -200 b 431 -251 446 -224 443 -240 b 388 -264 419 -258 404 -264 m 383 165 b 388 172 386 167 388 171 b 432 321 408 221 419 271 b 438 347 433 329 435 339 b 450 414 442 369 447 392 l 453 417 b 461 497 456 443 461 471 l 461 551 b 460 564 461 557 461 561 b 457 578 460 569 460 575 l 439 651 b 401 704 432 674 419 692 b 394 710 399 706 396 707 b 388 714 393 714 389 714 b 382 713 386 714 383 714 b 343 679 367 706 351 694 b 322 640 338 664 329 651 b 292 576 310 621 297 599 b 288 558 292 569 290 563 b 276 496 285 538 282 517 b 279 481 275 489 276 486 b 297 435 288 471 299 454 l 294 425 b 290 392 294 414 293 403 b 286 347 285 376 283 363 b 319 231 292 304 301 265 b 379 168 331 206 350 185 b 383 165 381 168 382 167 m 315 14 b 349 69 331 31 339 50 l 350 72 b 353 82 351 76 354 81 b 342 89 353 83 349 85 b 203 174 292 108 240 132 l 199 176 b 197 174 199 175 197 175 b 167 54 174 135 165 97 l 167 51 b 172 25 164 43 168 35 b 174 29 172 26 174 28 b 188 36 175 33 179 36 l 208 36 b 243 38 219 36 232 36 l 250 38 b 310 14 275 38 293 29 b 314 13 313 13 314 13 m 224 -21 b 213 -4 221 -12 219 -7 b 210 -3 211 -4 210 -4 b 179 15 199 0 188 6 l 176 17 b 182 7 179 14 181 10 b 224 -22 189 -7 204 -19 "},"R":{"ha":544,"x_min":0,"x_max":0,"o":"m 603 -185 b 513 -160 569 -189 539 -185 b 288 136 421 -74 351 29 b 235 224 269 165 251 194 b 228 231 232 226 232 232 b 222 222 222 231 222 225 b 215 179 219 208 217 193 b 196 106 214 154 206 129 b 181 47 189 86 183 67 b 164 3 178 31 172 17 b 146 -35 156 -10 149 -22 b 108 -69 140 -56 128 -65 b 79 -75 99 -72 89 -74 b 61 -61 67 -78 61 -74 l 61 -47 b 82 244 63 50 67 147 b 92 354 89 281 88 318 b 99 447 94 385 96 417 b 85 478 99 460 97 471 b 76 489 82 481 79 485 b 56 508 72 497 65 504 b 53 535 43 514 43 526 b 79 543 61 540 69 542 b 96 560 93 543 96 546 l 96 614 b 96 678 94 635 94 656 b 79 693 97 690 93 694 b 46 690 68 693 57 690 b 28 697 39 690 33 693 b 4 721 19 706 14 714 b 10 743 -3 728 1 743 b 57 760 28 743 42 754 b 93 804 81 767 97 776 b 103 832 92 814 97 824 b 139 853 111 844 124 853 b 158 853 146 851 153 853 b 203 826 178 851 194 846 b 225 818 207 817 214 815 b 469 757 315 836 397 815 b 507 711 485 744 497 728 b 511 626 524 683 522 654 b 382 486 488 563 443 517 b 304 454 357 472 331 464 b 300 440 296 451 294 449 b 368 317 329 403 351 361 b 414 236 379 288 396 261 b 449 182 426 219 440 203 b 467 156 451 172 461 165 b 521 68 485 126 501 96 b 543 43 528 58 536 51 b 606 -42 567 17 585 -12 b 644 -86 618 -57 631 -72 b 647 -132 657 -97 658 -118 b 617 -178 636 -147 624 -160 b 603 -185 614 -183 608 -185 m 250 565 b 296 586 265 571 281 579 b 383 649 329 601 358 621 b 417 703 397 664 408 682 b 413 719 419 708 419 715 b 342 746 392 736 368 747 b 249 731 311 743 279 742 b 219 690 221 719 219 721 b 221 650 218 678 221 664 b 228 578 222 626 225 601 b 250 565 229 561 235 558 "},"Ŕ":{"ha":544,"x_min":0,"x_max":0,"o":"m 213 946 b 167 950 192 931 182 933 b 164 994 151 967 150 978 b 249 1106 194 1028 218 1071 b 311 1135 267 1124 283 1139 b 364 1118 332 1136 349 1128 b 371 1058 383 1103 385 1078 b 326 1022 358 1046 343 1031 l 300 1003 b 243 964 283 988 263 978 b 218 950 235 960 226 956 b 213 946 218 947 215 946 m 603 -185 b 513 -160 569 -189 539 -185 b 288 136 421 -74 351 29 b 235 224 269 165 251 194 b 228 231 232 226 232 232 b 222 222 222 231 222 225 b 215 179 219 208 217 193 b 196 106 214 154 206 129 b 181 47 189 86 183 67 b 164 3 178 31 172 17 b 146 -35 156 -10 149 -22 b 108 -69 140 -56 128 -65 b 79 -75 99 -72 89 -74 b 61 -61 67 -78 61 -74 l 61 -47 b 82 244 63 50 67 147 b 92 354 89 281 88 318 b 99 447 94 385 96 417 b 85 478 99 460 97 471 b 76 489 82 481 79 485 b 56 508 72 497 65 504 b 53 535 43 514 43 526 b 79 543 61 540 69 542 b 96 560 93 543 96 546 l 96 614 b 96 678 94 635 94 656 b 79 693 97 690 93 694 b 46 690 68 693 57 690 b 28 697 39 690 33 693 b 4 721 19 706 14 714 b 10 743 -3 728 1 743 b 57 760 28 743 42 754 b 93 804 81 767 97 776 b 103 832 92 814 97 824 b 139 853 111 844 124 853 b 158 853 146 851 153 853 b 203 826 178 851 194 846 b 225 818 207 817 214 815 b 469 757 315 836 397 815 b 507 711 485 744 497 728 b 511 626 524 683 522 654 b 382 486 488 563 443 517 b 304 454 357 472 331 464 b 300 440 296 451 294 449 b 368 317 329 403 351 361 b 414 236 379 288 396 261 b 449 182 426 219 440 203 b 467 156 451 172 461 165 b 521 68 485 126 501 96 b 543 43 528 58 536 51 b 606 -42 567 17 585 -12 b 644 -86 618 -57 631 -72 b 647 -132 657 -97 658 -118 b 617 -178 636 -147 624 -160 b 603 -185 614 -183 608 -185 m 250 565 b 296 586 265 571 281 579 b 383 649 329 601 358 621 b 417 703 397 664 408 682 b 413 719 419 708 419 715 b 342 746 392 736 368 747 b 249 731 311 743 279 742 b 219 690 221 719 219 721 b 221 650 218 678 221 664 b 228 578 222 626 225 601 b 250 565 229 561 235 558 "},"Ř":{"ha":544,"x_min":0,"x_max":0,"o":"m 339 1096 b 374 1096 350 1104 364 1104 b 386 1088 378 1092 381 1090 b 392 1064 396 1081 399 1075 b 371 1036 385 1054 379 1046 b 332 990 357 1021 344 1007 b 263 911 311 963 289 935 b 242 900 256 907 249 903 b 215 904 232 896 222 897 b 179 942 204 918 192 931 b 111 1014 156 964 129 986 b 93 1040 104 1022 97 1032 b 83 1050 89 1043 86 1047 b 89 1069 81 1060 82 1067 b 136 1068 101 1076 125 1075 b 143 1063 138 1067 139 1063 b 213 1000 146 1061 200 1015 b 232 981 218 993 225 986 b 249 983 240 974 242 974 b 268 1008 254 992 261 1000 b 318 1078 283 1033 297 1057 b 339 1096 325 1085 331 1092 m 603 -185 b 513 -160 569 -189 539 -185 b 288 136 421 -74 351 29 b 235 224 269 165 251 194 b 228 231 232 226 232 232 b 222 222 222 231 222 225 b 215 179 219 208 217 193 b 196 106 214 154 206 129 b 181 47 189 86 183 67 b 164 3 178 31 172 17 b 146 -35 156 -10 149 -22 b 108 -69 140 -56 128 -65 b 79 -75 99 -72 89 -74 b 61 -61 67 -78 61 -74 l 61 -47 b 82 244 63 50 67 147 b 92 354 89 281 88 318 b 99 447 94 385 96 417 b 85 478 99 460 97 471 b 76 489 82 481 79 485 b 56 508 72 497 65 504 b 53 535 43 514 43 526 b 79 543 61 540 69 542 b 96 560 93 543 96 546 l 96 614 b 96 678 94 635 94 656 b 79 693 97 690 93 694 b 46 690 68 693 57 690 b 28 697 39 690 33 693 b 4 721 19 706 14 714 b 10 743 -3 728 1 743 b 57 760 28 743 42 754 b 93 804 81 767 97 776 b 103 832 92 814 97 824 b 139 853 111 844 124 853 b 158 853 146 851 153 853 b 203 826 178 851 194 846 b 225 818 207 817 214 815 b 469 757 315 836 397 815 b 507 711 485 744 497 728 b 511 626 524 683 522 654 b 382 486 488 563 443 517 b 304 454 357 472 331 464 b 300 440 296 451 294 449 b 368 317 329 403 351 361 b 414 236 379 288 396 261 b 449 182 426 219 440 203 b 467 156 451 172 461 165 b 521 68 485 126 501 96 b 543 43 528 58 536 51 b 606 -42 567 17 585 -12 b 644 -86 618 -57 631 -72 b 647 -132 657 -97 658 -118 b 617 -178 636 -147 624 -160 b 603 -185 614 -183 608 -185 m 250 565 b 296 586 265 571 281 579 b 383 649 329 601 358 621 b 417 703 397 664 408 682 b 413 719 419 708 419 715 b 342 746 392 736 368 747 b 249 731 311 743 279 742 b 219 690 221 719 219 721 b 221 650 218 678 221 664 b 228 578 222 626 225 601 b 250 565 229 561 235 558 "},"Ŗ":{"ha":544,"x_min":0,"x_max":0,"o":"m 603 -185 b 513 -160 569 -189 539 -185 b 288 136 421 -74 351 29 b 235 224 269 165 251 194 b 228 231 232 226 232 232 b 222 222 222 231 222 225 b 215 179 219 208 217 193 b 196 106 214 154 206 129 b 181 47 189 86 183 67 b 164 3 178 31 172 17 b 146 -35 156 -10 149 -22 b 108 -69 140 -56 128 -65 b 79 -75 99 -72 89 -74 b 61 -61 67 -78 61 -74 l 61 -47 b 82 244 63 50 67 147 b 92 354 89 281 88 318 b 99 447 94 385 96 417 b 85 478 99 460 97 471 b 76 489 82 481 79 485 b 56 508 72 497 65 504 b 53 535 43 514 43 526 b 79 543 61 540 69 542 b 96 560 93 543 96 546 l 96 614 b 96 678 94 635 94 656 b 79 693 97 690 93 694 b 46 690 68 693 57 690 b 28 697 39 690 33 693 b 4 721 19 706 14 714 b 10 743 -3 728 1 743 b 57 760 28 743 42 754 b 93 804 81 767 97 776 b 103 832 92 814 97 824 b 139 853 111 844 124 853 b 158 853 146 851 153 853 b 203 826 178 851 194 846 b 225 818 207 817 214 815 b 469 757 315 836 397 815 b 507 711 485 744 497 728 b 511 626 524 683 522 654 b 382 486 488 563 443 517 b 304 454 357 472 331 464 b 300 440 296 451 294 449 b 368 317 329 403 351 361 b 414 236 379 288 396 261 b 449 182 426 219 440 203 b 467 156 451 172 461 165 b 521 68 485 126 501 96 b 543 43 528 58 536 51 b 606 -42 567 17 585 -12 b 644 -86 618 -57 631 -72 b 647 -132 657 -97 658 -118 b 617 -178 636 -147 624 -160 b 603 -185 614 -183 608 -185 m 250 565 b 296 586 265 571 281 579 b 383 649 329 601 358 621 b 417 703 397 664 408 682 b 413 719 419 708 419 715 b 342 746 392 736 368 747 b 249 731 311 743 279 742 b 219 690 221 719 219 721 b 221 650 218 678 221 664 b 228 578 222 626 225 601 b 250 565 229 561 235 558 m 282 -244 b 268 -236 278 -246 271 -244 b 268 -221 265 -233 265 -226 b 276 -215 271 -221 272 -219 b 271 -207 279 -212 278 -210 b 239 -164 250 -203 236 -187 b 258 -139 239 -151 247 -140 l 279 -133 b 314 -167 294 -129 310 -156 b 319 -189 315 -172 319 -181 b 299 -236 319 -207 311 -224 b 282 -244 293 -242 289 -244 "},"S":{"ha":511,"x_min":0,"x_max":0,"o":"m 207 -190 b 169 -189 194 -189 182 -189 b 85 -160 139 -190 110 -179 b 28 -108 65 -143 47 -126 b 10 -67 18 -97 14 -83 b 15 32 7 -47 3 -26 b 31 53 22 38 26 44 b 93 133 47 83 68 110 b 140 161 107 144 122 154 b 225 192 168 174 194 185 b 232 207 239 193 239 196 b 164 268 214 233 193 254 b 83 318 135 282 107 294 b 25 411 56 344 35 376 b 60 557 7 465 24 513 b 186 636 93 596 140 617 b 228 629 201 643 215 640 b 257 613 236 624 247 618 b 306 560 281 601 293 582 b 292 535 310 549 306 540 b 250 526 278 529 265 526 b 218 508 235 526 225 519 b 174 435 203 483 192 458 b 199 368 161 418 175 376 b 264 336 219 358 242 349 b 342 278 293 324 319 304 l 368 249 b 406 197 376 240 394 193 b 453 217 415 203 444 207 b 524 311 490 257 494 264 b 557 339 533 326 532 339 b 601 294 564 339 621 339 l 557 192 b 494 122 549 172 521 135 b 440 96 476 114 440 107 b 436 8 440 57 439 46 b 407 -72 436 -10 419 -58 b 333 -146 379 -111 356 -132 b 250 -185 308 -162 281 -175 b 207 -190 236 -189 222 -190 m 165 -62 b 239 -21 192 -57 218 -43 b 267 67 260 4 265 35 b 269 86 267 68 269 82 b 213 101 269 104 257 108 b 113 22 176 96 128 57 b 89 -29 103 0 94 -12 b 94 -46 85 -37 89 -42 b 119 -57 103 -49 111 -54 b 165 -62 135 -60 150 -67 "},"Ś":{"ha":511,"x_min":0,"x_max":0,"o":"m 36 815 b -10 819 15 800 6 803 b -12 864 -25 836 -26 847 b 72 975 18 897 42 940 b 135 1004 90 993 107 1008 b 188 988 156 1006 172 997 b 194 928 207 972 208 947 b 150 892 182 915 167 900 l 124 872 b 67 833 107 857 86 847 b 42 819 58 829 50 825 b 36 815 42 817 39 815 m 207 -190 b 169 -189 194 -189 182 -189 b 85 -160 139 -190 110 -179 b 28 -108 65 -143 47 -126 b 10 -67 18 -97 14 -83 b 15 32 7 -47 3 -26 b 31 53 22 38 26 44 b 93 133 47 83 68 110 b 140 161 107 144 122 154 b 225 192 168 174 194 185 b 232 207 239 193 239 196 b 164 268 214 233 193 254 b 83 318 135 282 107 294 b 25 411 56 344 35 376 b 60 557 7 465 24 513 b 186 636 93 596 140 617 b 228 629 201 643 215 640 b 257 613 236 624 247 618 b 306 560 281 601 293 582 b 292 535 310 549 306 540 b 250 526 278 529 265 526 b 218 508 235 526 225 519 b 174 435 203 483 192 458 b 199 368 161 418 175 376 b 264 336 219 358 242 349 b 342 278 293 324 319 304 l 368 249 b 406 197 376 240 394 193 b 453 217 415 203 444 207 b 524 311 490 257 494 264 b 557 339 533 326 532 339 b 601 294 564 339 621 339 l 557 192 b 494 122 549 172 521 135 b 440 96 476 114 440 107 b 436 8 440 57 439 46 b 407 -72 436 -10 419 -58 b 333 -146 379 -111 356 -132 b 250 -185 308 -162 281 -175 b 207 -190 236 -189 222 -190 m 165 -62 b 239 -21 192 -57 218 -43 b 267 67 260 4 265 35 b 269 86 267 68 269 82 b 213 101 269 104 257 108 b 113 22 176 96 128 57 b 89 -29 103 0 94 -12 b 94 -46 85 -37 89 -42 b 119 -57 103 -49 111 -54 b 165 -62 135 -60 150 -67 "},"Š":{"ha":511,"x_min":0,"x_max":0,"o":"m 257 989 b 292 989 268 997 282 997 b 304 981 296 985 299 983 b 310 957 314 974 317 968 b 289 929 303 947 297 939 b 250 883 275 914 263 900 b 181 804 229 856 207 828 b 160 793 174 800 167 796 b 133 797 150 789 140 790 b 97 835 122 811 110 824 b 29 907 74 857 47 879 b 11 933 22 915 15 925 b 1 943 7 936 4 940 b 7 963 -1 953 0 960 b 54 961 19 969 43 968 b 61 956 56 960 57 956 b 131 893 64 954 118 908 b 150 874 136 886 143 879 b 167 876 158 867 160 867 b 186 901 172 885 179 893 b 236 971 201 926 215 950 b 257 989 243 978 249 985 m 207 -190 b 169 -189 194 -189 182 -189 b 85 -160 139 -190 110 -179 b 28 -108 65 -143 47 -126 b 10 -67 18 -97 14 -83 b 15 32 7 -47 3 -26 b 31 53 22 38 26 44 b 93 133 47 83 68 110 b 140 161 107 144 122 154 b 225 192 168 174 194 185 b 232 207 239 193 239 196 b 164 268 214 233 193 254 b 83 318 135 282 107 294 b 25 411 56 344 35 376 b 60 557 7 465 24 513 b 186 636 93 596 140 617 b 228 629 201 643 215 640 b 257 613 236 624 247 618 b 306 560 281 601 293 582 b 292 535 310 549 306 540 b 250 526 278 529 265 526 b 218 508 235 526 225 519 b 174 435 203 483 192 458 b 199 368 161 418 175 376 b 264 336 219 358 242 349 b 342 278 293 324 319 304 l 368 249 b 406 197 376 240 394 193 b 453 217 415 203 444 207 b 524 311 490 257 494 264 b 557 339 533 326 532 339 b 601 294 564 339 621 339 l 557 192 b 494 122 549 172 521 135 b 440 96 476 114 440 107 b 436 8 440 57 439 46 b 407 -72 436 -10 419 -58 b 333 -146 379 -111 356 -132 b 250 -185 308 -162 281 -175 b 207 -190 236 -189 222 -190 m 165 -62 b 239 -21 192 -57 218 -43 b 267 67 260 4 265 35 b 269 86 267 68 269 82 b 213 101 269 104 257 108 b 113 22 176 96 128 57 b 89 -29 103 0 94 -12 b 94 -46 85 -37 89 -42 b 119 -57 103 -49 111 -54 b 165 -62 135 -60 150 -67 "},"Ş":{"ha":511,"x_min":0,"x_max":0,"o":"m 557 339 b 601 294 564 339 621 339 l 557 192 b 494 122 549 172 521 135 b 440 96 476 114 440 107 b 436 8 440 57 439 46 b 407 -72 436 -10 419 -58 b 333 -146 379 -111 356 -132 b 250 -185 308 -162 281 -175 b 207 -190 236 -189 222 -190 b 199 -189 204 -190 201 -190 b 197 -201 199 -193 199 -197 b 203 -217 196 -207 199 -212 b 228 -243 214 -224 221 -233 b 246 -317 244 -264 250 -289 b 235 -336 244 -324 240 -331 b 222 -347 229 -340 225 -343 b 158 -354 206 -364 176 -365 b 126 -329 146 -349 136 -340 b 118 -300 121 -321 118 -310 b 124 -282 117 -293 121 -286 b 136 -281 126 -278 132 -278 b 151 -297 142 -285 150 -287 b 156 -303 151 -300 154 -301 b 183 -300 163 -307 179 -306 b 200 -254 196 -286 203 -272 b 196 -243 199 -251 199 -246 b 186 -242 193 -242 189 -240 b 157 -233 175 -247 165 -240 b 146 -221 154 -228 150 -224 b 140 -201 140 -215 139 -207 b 143 -187 140 -196 142 -192 b 85 -160 122 -183 103 -174 b 28 -108 65 -143 47 -126 b 10 -67 18 -97 14 -83 b 15 32 7 -47 3 -26 b 31 53 22 38 26 44 b 93 133 47 83 68 110 b 140 161 107 144 122 154 b 225 192 168 174 194 185 b 232 207 239 193 239 196 b 164 268 214 233 193 254 b 83 318 135 282 107 294 b 25 411 56 344 35 376 b 60 557 7 465 24 513 b 186 636 93 596 140 617 b 228 629 201 643 215 640 b 257 613 236 624 247 618 b 306 560 281 601 293 582 b 292 535 310 549 306 540 b 250 526 278 529 265 526 b 218 508 235 526 225 519 b 174 435 203 483 192 458 b 199 368 161 418 175 376 b 264 336 219 358 242 349 b 342 278 293 324 319 304 l 368 249 b 406 197 376 240 394 193 b 453 217 415 203 444 207 b 524 311 490 257 494 264 b 557 339 533 326 532 339 m 267 67 b 269 86 267 68 269 82 b 213 101 269 104 257 108 b 113 22 176 96 128 57 b 89 -29 103 0 94 -12 b 94 -46 85 -37 89 -42 b 119 -57 103 -49 111 -54 b 165 -62 135 -60 150 -67 b 239 -21 192 -57 218 -43 b 267 67 260 4 265 35 "},"Ș":{"ha":511,"x_min":0,"x_max":0,"o":"m 207 -190 b 169 -189 194 -189 182 -189 b 85 -160 139 -190 110 -179 b 28 -108 65 -143 47 -126 b 10 -67 18 -97 14 -83 b 15 32 7 -47 3 -26 b 31 53 22 38 26 44 b 93 133 47 83 68 110 b 140 161 107 144 122 154 b 225 192 168 174 194 185 b 232 207 239 193 239 196 b 164 268 214 233 193 254 b 83 318 135 282 107 294 b 25 411 56 344 35 376 b 60 557 7 465 24 513 b 186 636 93 596 140 617 b 228 629 201 643 215 640 b 257 613 236 624 247 618 b 306 560 281 601 293 582 b 292 535 310 549 306 540 b 250 526 278 529 265 526 b 218 508 235 526 225 519 b 174 435 203 483 192 458 b 199 368 161 418 175 376 b 264 336 219 358 242 349 b 342 278 293 324 319 304 l 368 249 b 406 197 376 240 394 193 b 453 217 415 203 444 207 b 524 311 490 257 494 264 b 557 339 533 326 532 339 b 601 294 564 339 621 339 l 557 192 b 494 122 549 172 521 135 b 440 96 476 114 440 107 b 436 8 440 57 439 46 b 407 -72 436 -10 419 -58 b 333 -146 379 -111 356 -132 b 250 -185 308 -162 281 -175 b 207 -190 236 -189 222 -190 m 165 -62 b 239 -21 192 -57 218 -43 b 267 67 260 4 265 35 b 269 86 267 68 269 82 b 213 101 269 104 257 108 b 113 22 176 96 128 57 b 89 -29 103 0 94 -12 b 94 -46 85 -37 89 -42 b 119 -57 103 -49 111 -54 b 165 -62 135 -60 150 -67 m 190 -332 b 176 -324 186 -333 179 -332 b 176 -308 174 -321 174 -314 b 185 -303 179 -308 181 -307 b 179 -294 188 -300 186 -297 b 147 -251 158 -290 144 -275 b 167 -226 147 -239 156 -228 l 188 -221 b 222 -254 203 -217 218 -243 b 228 -276 224 -260 228 -268 b 207 -324 228 -294 219 -311 b 190 -332 201 -329 197 -332 "},"T":{"ha":358,"x_min":0,"x_max":0,"o":"m 203 1 b 128 7 178 0 151 -7 l 125 7 b 89 47 92 13 90 14 l 89 240 b 96 436 90 306 93 371 b 144 857 103 568 114 728 b 129 875 149 872 147 875 b 21 886 93 875 57 879 b 8 892 17 888 13 889 b 0 907 1 894 -1 900 b 15 915 1 917 8 915 b 140 921 57 911 99 919 b 164 942 154 922 161 928 l 165 951 b 225 981 172 981 197 993 b 269 935 246 972 263 958 b 290 924 272 924 281 924 b 401 925 326 924 364 925 b 465 915 422 925 444 922 l 479 910 b 497 881 490 903 500 896 b 471 861 494 867 483 863 b 310 861 417 860 363 856 b 289 843 290 864 288 863 l 296 754 b 293 676 299 728 296 703 b 278 567 289 639 283 603 b 271 529 275 554 274 542 b 251 331 256 464 251 397 b 247 211 250 292 246 251 b 244 40 250 154 247 97 b 203 1 244 24 222 3 "},"Ŧ":{"ha":358,"x_min":0,"x_max":0,"o":"m 479 910 b 497 881 490 903 500 896 b 471 861 494 867 483 863 b 310 861 417 860 363 856 b 289 843 290 864 288 863 l 296 754 b 293 676 299 728 296 703 b 278 567 289 639 283 603 b 276 558 278 564 276 561 l 413 563 b 440 561 421 563 431 563 b 458 535 456 558 463 549 b 456 517 458 529 457 521 b 429 478 454 499 447 485 b 379 463 414 472 396 468 b 346 461 368 457 356 460 b 322 460 338 463 329 463 b 267 457 303 456 285 456 b 258 458 264 457 261 458 b 251 331 253 415 251 374 b 247 211 250 292 246 251 b 244 40 250 154 247 97 b 203 1 244 24 222 3 b 128 7 178 0 151 -7 l 125 7 b 89 47 92 13 90 14 l 89 240 b 96 436 90 306 93 371 b 97 454 96 442 96 449 b 0 456 65 454 33 457 b -36 460 -11 454 -24 456 b -82 526 -65 472 -76 499 b -81 542 -82 531 -82 538 b -69 550 -81 549 -76 553 b -11 547 -49 544 -29 546 b 103 554 28 550 65 553 b 144 857 111 656 122 764 b 129 875 149 872 147 875 b 21 886 93 875 57 879 b 8 892 17 888 13 889 b 0 907 1 894 -1 900 b 15 915 1 917 8 915 b 140 921 57 911 99 919 b 164 942 154 922 161 928 l 165 951 b 225 981 172 981 197 993 b 269 935 246 972 263 958 b 290 924 272 924 281 924 b 401 925 326 924 364 925 b 465 915 422 925 444 922 l 479 910 "},"Ť":{"ha":358,"x_min":0,"x_max":0,"o":"m 339 1211 b 374 1211 350 1219 364 1219 b 386 1203 378 1207 381 1206 b 392 1179 396 1196 399 1190 b 371 1151 385 1169 379 1161 b 332 1106 357 1136 344 1122 b 263 1026 311 1078 289 1050 b 242 1015 256 1022 249 1018 b 215 1019 232 1011 222 1013 b 179 1057 204 1033 192 1046 b 111 1129 156 1079 129 1101 b 93 1156 104 1138 97 1147 b 83 1165 89 1158 86 1163 b 89 1185 81 1175 82 1182 b 136 1183 101 1192 125 1190 b 143 1178 138 1182 139 1178 b 213 1115 146 1176 200 1131 b 232 1096 218 1108 225 1101 b 249 1099 240 1089 242 1089 b 268 1124 254 1107 261 1115 b 318 1193 283 1149 297 1172 b 339 1211 325 1200 331 1207 m 203 1 b 128 7 178 0 151 -7 l 125 7 b 89 47 92 13 90 14 l 89 240 b 96 436 90 306 93 371 b 144 857 103 568 114 728 b 129 875 149 872 147 875 b 21 886 93 875 57 879 b 8 892 17 888 13 889 b 0 907 1 894 -1 900 b 15 915 1 917 8 915 b 140 921 57 911 99 919 b 164 942 154 922 161 928 l 165 951 b 225 981 172 981 197 993 b 269 935 246 972 263 958 b 290 924 272 924 281 924 b 401 925 326 924 364 925 b 465 915 422 925 444 922 l 479 910 b 497 881 490 903 500 896 b 471 861 494 867 483 863 b 310 861 417 860 363 856 b 289 843 290 864 288 863 l 296 754 b 293 676 299 728 296 703 b 278 567 289 639 283 603 b 271 529 275 554 274 542 b 251 331 256 464 251 397 b 247 211 250 292 246 251 b 244 40 250 154 247 97 b 203 1 244 24 222 3 "},"Ţ":{"ha":358,"x_min":0,"x_max":0,"o":"m 479 910 b 497 881 490 903 500 896 b 471 861 494 867 483 863 b 310 861 417 860 363 856 b 289 843 290 864 288 863 l 296 754 b 293 676 299 728 296 703 b 278 567 289 639 283 603 b 271 529 275 554 274 542 b 251 331 256 464 251 397 b 247 211 250 292 246 251 b 244 40 250 154 247 97 b 203 1 244 24 222 3 l 199 1 l 199 -7 b 197 -19 199 -11 199 -15 b 203 -35 196 -25 199 -31 b 228 -61 214 -42 221 -51 b 246 -135 244 -82 250 -107 b 235 -154 244 -142 240 -149 b 222 -165 229 -158 225 -161 b 158 -172 206 -182 176 -183 b 126 -147 146 -167 136 -158 b 118 -118 121 -139 118 -128 b 124 -100 117 -111 121 -104 b 136 -99 126 -96 132 -96 b 151 -115 142 -103 150 -106 b 156 -121 151 -118 154 -119 b 183 -118 163 -125 179 -124 b 200 -72 196 -104 203 -90 b 196 -61 199 -69 199 -64 b 186 -60 193 -60 189 -58 b 157 -51 175 -65 165 -58 b 146 -39 154 -46 150 -42 b 140 -19 140 -33 139 -25 b 146 0 140 -12 143 -7 b 128 7 140 1 133 4 l 125 7 b 89 47 92 13 90 14 l 89 240 b 96 436 90 306 93 371 b 144 857 103 568 114 728 b 129 875 149 872 147 875 b 21 886 93 875 57 879 b 8 892 17 888 13 889 b 0 907 1 894 -1 900 b 15 915 1 917 8 915 b 140 921 57 911 99 919 b 164 942 154 922 161 928 l 165 951 b 225 981 172 981 197 993 b 269 935 246 972 263 958 b 290 924 272 924 281 924 b 401 925 326 924 364 925 b 465 915 422 925 444 922 l 479 910 "},"Ț":{"ha":358,"x_min":0,"x_max":0,"o":"m 203 1 b 128 7 178 0 151 -7 l 125 7 b 89 47 92 13 90 14 l 89 240 b 96 436 90 306 93 371 b 144 857 103 568 114 728 b 129 875 149 872 147 875 b 21 886 93 875 57 879 b 8 892 17 888 13 889 b 0 907 1 894 -1 900 b 15 915 1 917 8 915 b 140 921 57 911 99 919 b 164 942 154 922 161 928 l 165 951 b 225 981 172 981 197 993 b 269 935 246 972 263 958 b 290 924 272 924 281 924 b 401 925 326 924 364 925 b 465 915 422 925 444 922 l 479 910 b 497 881 490 903 500 896 b 471 861 494 867 483 863 b 310 861 417 860 363 856 b 289 843 290 864 288 863 l 296 754 b 293 676 299 728 296 703 b 278 567 289 639 283 603 b 271 529 275 554 274 542 b 251 331 256 464 251 397 b 247 211 250 292 246 251 b 244 40 250 154 247 97 b 203 1 244 24 222 3 m 160 -154 b 146 -146 156 -156 149 -154 b 146 -131 143 -143 143 -136 b 154 -125 149 -131 150 -129 b 149 -117 157 -122 156 -119 b 117 -74 128 -112 114 -97 b 136 -49 117 -61 125 -50 l 157 -43 b 192 -76 172 -39 188 -65 b 197 -99 193 -82 197 -90 b 176 -146 197 -117 189 -133 b 160 -154 171 -151 167 -154 "},"U":{"ha":613,"x_min":0,"x_max":0,"o":"m 238 -89 b 93 -33 183 -86 133 -71 b 38 65 63 -6 47 28 b 1 340 13 156 1 247 b 0 351 1 344 1 347 b 1 407 -1 369 0 389 b 29 743 8 519 15 632 b 54 864 35 783 44 824 b 75 881 57 876 64 882 b 211 847 122 879 169 874 b 246 801 229 836 239 821 b 264 646 263 750 272 699 b 265 600 261 631 263 615 b 260 528 271 575 264 551 b 238 404 253 486 246 444 b 231 197 225 336 225 267 b 264 53 233 147 246 100 b 296 22 271 38 283 31 b 314 31 306 15 311 24 b 346 124 325 61 338 92 b 406 381 367 210 389 294 b 429 522 415 428 424 475 b 453 660 436 568 443 614 b 474 714 457 678 465 696 b 493 726 476 722 482 728 b 521 726 503 726 513 728 b 560 706 536 724 549 724 b 571 657 571 688 571 674 b 571 560 571 624 565 592 b 563 519 572 544 564 532 b 532 360 557 465 540 413 b 489 174 522 296 504 236 l 476 107 b 453 49 472 86 464 67 b 419 -4 442 31 436 11 b 304 -82 383 -35 349 -64 b 238 -89 282 -90 260 -89 "},"Ú":{"ha":613,"x_min":0,"x_max":0,"o":"m 374 876 b 328 881 353 861 343 864 b 325 925 313 897 311 908 b 410 1036 356 958 379 1001 b 472 1065 428 1054 444 1069 b 525 1049 493 1067 510 1058 b 532 989 544 1033 546 1008 b 488 953 519 976 504 961 l 461 933 b 404 894 444 918 424 908 b 379 881 396 890 388 886 b 374 876 379 878 376 876 m 238 -89 b 93 -33 183 -86 133 -71 b 38 65 63 -6 47 28 b 1 340 13 156 1 247 b 0 351 1 344 1 347 b 1 407 -1 369 0 389 b 29 743 8 519 15 632 b 54 864 35 783 44 824 b 75 881 57 876 64 882 b 211 847 122 879 169 874 b 246 801 229 836 239 821 b 264 646 263 750 272 699 b 265 600 261 631 263 615 b 260 528 271 575 264 551 b 238 404 253 486 246 444 b 231 197 225 336 225 267 b 264 53 233 147 246 100 b 296 22 271 38 283 31 b 314 31 306 15 311 24 b 346 124 325 61 338 92 b 406 381 367 210 389 294 b 429 522 415 428 424 475 b 453 660 436 568 443 614 b 474 714 457 678 465 696 b 493 726 476 722 482 728 b 521 726 503 726 513 728 b 560 706 536 724 549 724 b 571 657 571 688 571 674 b 571 560 571 624 565 592 b 563 519 572 544 564 532 b 532 360 557 465 540 413 b 489 174 522 296 504 236 l 476 107 b 453 49 472 86 464 67 b 419 -4 442 31 436 11 b 304 -82 383 -35 349 -64 b 238 -89 282 -90 260 -89 "},"Û":{"ha":613,"x_min":0,"x_max":0,"o":"m 489 883 b 468 901 481 888 475 894 b 418 971 447 922 433 946 b 399 996 411 979 404 988 b 382 999 392 1006 390 1006 b 363 979 375 993 368 986 b 293 917 350 964 296 918 b 286 911 289 917 288 913 b 239 910 275 904 251 903 b 233 929 232 913 231 919 b 243 939 236 932 239 936 b 261 965 247 947 254 957 b 329 1038 279 993 306 1015 b 365 1075 342 1049 354 1061 b 392 1079 372 1082 382 1083 b 413 1068 399 1076 406 1072 b 482 989 439 1044 461 1017 b 521 943 494 972 507 958 b 542 915 529 933 535 925 b 536 892 549 904 546 899 b 524 883 531 889 528 888 b 489 883 514 875 500 875 m 238 -89 b 93 -33 183 -86 133 -71 b 38 65 63 -6 47 28 b 1 340 13 156 1 247 b 0 351 1 344 1 347 b 1 407 -1 369 0 389 b 29 743 8 519 15 632 b 54 864 35 783 44 824 b 75 881 57 876 64 882 b 211 847 122 879 169 874 b 246 801 229 836 239 821 b 264 646 263 750 272 699 b 265 600 261 631 263 615 b 260 528 271 575 264 551 b 238 404 253 486 246 444 b 231 197 225 336 225 267 b 264 53 233 147 246 100 b 296 22 271 38 283 31 b 314 31 306 15 311 24 b 346 124 325 61 338 92 b 406 381 367 210 389 294 b 429 522 415 428 424 475 b 453 660 436 568 443 614 b 474 714 457 678 465 696 b 493 726 476 722 482 728 b 521 726 503 726 513 728 b 560 706 536 724 549 724 b 571 657 571 688 571 674 b 571 560 571 624 565 592 b 563 519 572 544 564 532 b 532 360 557 465 540 413 b 489 174 522 296 504 236 l 476 107 b 453 49 472 86 464 67 b 419 -4 442 31 436 11 b 304 -82 383 -35 349 -64 b 238 -89 282 -90 260 -89 "},"Ü":{"ha":613,"x_min":0,"x_max":0,"o":"m 282 918 b 254 938 272 922 263 929 l 229 963 b 232 1026 210 982 211 1008 b 235 1028 233 1026 235 1028 b 267 1047 246 1035 253 1049 b 314 1029 283 1044 300 1039 b 336 1011 322 1024 329 1017 b 349 983 346 1004 350 994 b 311 919 347 956 333 935 b 282 918 301 914 292 914 m 500 910 b 446 935 479 911 458 915 b 432 949 442 940 436 943 b 429 1017 411 968 411 996 b 453 1036 436 1025 444 1031 b 472 1040 458 1040 465 1042 b 517 1021 489 1038 504 1032 b 531 997 524 1015 529 1007 b 533 957 533 985 535 972 b 532 938 532 953 532 944 b 500 910 529 919 518 910 m 238 -89 b 93 -33 183 -86 133 -71 b 38 65 63 -6 47 28 b 1 340 13 156 1 247 b 0 351 1 344 1 347 b 1 407 -1 369 0 389 b 29 743 8 519 15 632 b 54 864 35 783 44 824 b 75 881 57 876 64 882 b 211 847 122 879 169 874 b 246 801 229 836 239 821 b 264 646 263 750 272 699 b 265 600 261 631 263 615 b 260 528 271 575 264 551 b 238 404 253 486 246 444 b 231 197 225 336 225 267 b 264 53 233 147 246 100 b 296 22 271 38 283 31 b 314 31 306 15 311 24 b 346 124 325 61 338 92 b 406 381 367 210 389 294 b 429 522 415 428 424 475 b 453 660 436 568 443 614 b 474 714 457 678 465 696 b 493 726 476 722 482 728 b 521 726 503 726 513 728 b 560 706 536 724 549 724 b 571 657 571 688 571 674 b 571 560 571 624 565 592 b 563 519 572 544 564 532 b 532 360 557 465 540 413 b 489 174 522 296 504 236 l 476 107 b 453 49 472 86 464 67 b 419 -4 442 31 436 11 b 304 -82 383 -35 349 -64 b 238 -89 282 -90 260 -89 "},"Ù":{"ha":613,"x_min":0,"x_max":0,"o":"m 415 886 b 353 910 390 888 369 896 b 276 965 326 928 300 946 b 240 1007 263 976 251 993 b 236 1022 239 1011 236 1015 b 251 1081 233 1042 240 1063 b 272 1090 257 1089 263 1090 b 336 1050 297 1085 322 1081 b 339 1049 339 1050 339 1049 b 368 1007 354 1039 361 1022 b 394 967 375 993 383 981 b 426 914 408 950 417 932 b 431 907 431 911 431 910 b 432 889 433 903 436 896 b 415 886 426 882 419 886 m 238 -89 b 93 -33 183 -86 133 -71 b 38 65 63 -6 47 28 b 1 340 13 156 1 247 b 0 351 1 344 1 347 b 1 407 -1 369 0 389 b 29 743 8 519 15 632 b 54 864 35 783 44 824 b 75 881 57 876 64 882 b 211 847 122 879 169 874 b 246 801 229 836 239 821 b 264 646 263 750 272 699 b 265 600 261 631 263 615 b 260 528 271 575 264 551 b 238 404 253 486 246 444 b 231 197 225 336 225 267 b 264 53 233 147 246 100 b 296 22 271 38 283 31 b 314 31 306 15 311 24 b 346 124 325 61 338 92 b 406 381 367 210 389 294 b 429 522 415 428 424 475 b 453 660 436 568 443 614 b 474 714 457 678 465 696 b 493 726 476 722 482 728 b 521 726 503 726 513 728 b 560 706 536 724 549 724 b 571 657 571 688 571 674 b 571 560 571 624 565 592 b 563 519 572 544 564 532 b 532 360 557 465 540 413 b 489 174 522 296 504 236 l 476 107 b 453 49 472 86 464 67 b 419 -4 442 31 436 11 b 304 -82 383 -35 349 -64 b 238 -89 282 -90 260 -89 "},"Ű":{"ha":613,"x_min":0,"x_max":0,"o":"m 268 900 b 260 906 263 899 261 904 b 260 956 253 921 256 938 l 279 1028 b 300 1071 281 1042 292 1056 b 311 1081 301 1074 307 1078 b 361 1106 326 1093 344 1101 b 376 1099 368 1106 374 1106 b 367 1042 379 1081 382 1063 b 340 1000 361 1024 350 1011 l 318 963 l 285 913 b 268 900 278 904 275 900 m 385 903 b 375 932 371 903 368 917 b 401 1035 385 967 386 1000 b 436 1083 406 1056 415 1071 b 481 1101 450 1097 465 1101 b 503 1076 499 1107 508 1093 b 485 1032 499 1063 493 1049 l 469 1010 b 442 960 464 994 451 976 l 428 938 l 426 933 b 385 903 415 917 403 900 m 238 -89 b 93 -33 183 -86 133 -71 b 38 65 63 -6 47 28 b 1 340 13 156 1 247 b 0 351 1 344 1 347 b 1 407 -1 369 0 389 b 29 743 8 519 15 632 b 54 864 35 783 44 824 b 75 881 57 876 64 882 b 211 847 122 879 169 874 b 246 801 229 836 239 821 b 264 646 263 750 272 699 b 265 600 261 631 263 615 b 260 528 271 575 264 551 b 238 404 253 486 246 444 b 231 197 225 336 225 267 b 264 53 233 147 246 100 b 296 22 271 38 283 31 b 314 31 306 15 311 24 b 346 124 325 61 338 92 b 406 381 367 210 389 294 b 429 522 415 428 424 475 b 453 660 436 568 443 614 b 474 714 457 678 465 696 b 493 726 476 722 482 728 b 521 726 503 726 513 728 b 560 706 536 724 549 724 b 571 657 571 688 571 674 b 571 560 571 624 565 592 b 563 519 572 544 564 532 b 532 360 557 465 540 413 b 489 174 522 296 504 236 l 476 107 b 453 49 472 86 464 67 b 419 -4 442 31 436 11 b 304 -82 383 -35 349 -64 b 238 -89 282 -90 260 -89 "},"Ū":{"ha":613,"x_min":0,"x_max":0,"o":"m 339 908 b 264 910 314 908 289 911 b 236 913 254 908 246 910 b 203 963 214 921 206 942 l 203 975 b 211 981 203 979 206 983 b 254 978 226 976 242 976 b 381 985 297 981 339 983 l 572 989 b 594 988 579 989 586 989 b 608 969 606 986 610 979 b 606 954 608 964 606 960 b 586 926 604 942 600 931 b 547 914 575 921 560 919 b 522 913 539 911 529 913 b 504 913 517 914 511 914 b 463 911 492 910 476 910 b 435 910 454 913 444 911 b 394 910 421 906 408 910 b 371 908 388 910 379 910 b 339 908 360 908 350 910 m 238 -89 b 93 -33 183 -86 133 -71 b 38 65 63 -6 47 28 b 1 340 13 156 1 247 b 0 351 1 344 1 347 b 1 407 -1 369 0 389 b 29 743 8 519 15 632 b 54 864 35 783 44 824 b 75 881 57 876 64 882 b 211 847 122 879 169 874 b 246 801 229 836 239 821 b 264 646 263 750 272 699 b 265 600 261 631 263 615 b 260 528 271 575 264 551 b 238 404 253 486 246 444 b 231 197 225 336 225 267 b 264 53 233 147 246 100 b 296 22 271 38 283 31 b 314 31 306 15 311 24 b 346 124 325 61 338 92 b 406 381 367 210 389 294 b 429 522 415 428 424 475 b 453 660 436 568 443 614 b 474 714 457 678 465 696 b 493 726 476 722 482 728 b 521 726 503 726 513 728 b 560 706 536 724 549 724 b 571 657 571 688 571 674 b 571 560 571 624 565 592 b 563 519 572 544 564 532 b 532 360 557 465 540 413 b 489 174 522 296 504 236 l 476 107 b 453 49 472 86 464 67 b 419 -4 442 31 436 11 b 304 -82 383 -35 349 -64 b 238 -89 282 -90 260 -89 "},"Ų":{"ha":613,"x_min":0,"x_max":0,"o":"m 571 560 b 563 519 572 544 564 532 b 532 360 557 465 540 413 b 489 174 522 296 504 236 l 476 107 b 453 49 472 86 464 67 b 419 -4 442 31 436 11 b 304 -82 383 -35 349 -64 b 276 -87 294 -86 286 -87 b 278 -90 276 -89 278 -89 b 283 -110 281 -97 283 -103 b 278 -129 285 -115 283 -124 b 267 -142 274 -132 269 -136 b 238 -150 258 -149 249 -156 b 228 -151 235 -149 231 -150 b 224 -162 225 -154 225 -160 b 240 -208 221 -181 228 -194 b 268 -211 244 -214 261 -215 b 272 -206 269 -210 272 -208 b 288 -189 274 -196 282 -193 b 300 -190 292 -186 297 -186 b 306 -208 303 -194 307 -201 b 297 -237 306 -218 303 -229 b 265 -262 288 -249 278 -257 b 201 -256 247 -274 218 -272 b 189 -244 199 -251 194 -249 b 178 -225 183 -239 179 -232 b 196 -151 174 -197 179 -172 b 221 -125 203 -142 210 -132 b 226 -110 225 -121 228 -115 b 225 -97 225 -106 225 -101 l 225 -89 l 225 -87 b 93 -33 175 -83 131 -68 b 38 65 63 -6 47 28 b 1 340 13 156 1 247 b 0 351 1 344 1 347 b 1 407 -1 369 0 389 b 29 743 8 519 15 632 b 54 864 35 783 44 824 b 75 881 57 876 64 882 b 211 847 122 879 169 874 b 246 801 229 836 239 821 b 264 646 263 750 272 699 b 265 600 261 631 263 615 b 260 528 271 575 264 551 b 238 404 253 486 246 444 b 231 197 225 336 225 267 b 264 53 233 147 246 100 b 296 22 271 38 283 31 b 314 31 306 15 311 24 b 346 124 325 61 338 92 b 406 381 367 210 389 294 b 429 522 415 428 424 475 b 453 660 436 568 443 614 b 474 714 457 678 465 696 b 493 726 476 722 482 728 b 521 726 503 726 513 728 b 560 706 536 724 549 724 b 571 657 571 688 571 674 b 571 560 571 624 565 592 "},"Ů":{"ha":613,"x_min":0,"x_max":0,"o":"m 403 885 b 358 908 386 888 371 894 b 333 944 347 919 338 931 b 343 1015 325 969 328 993 l 371 1044 b 389 1056 376 1050 382 1053 l 396 1058 b 422 1061 404 1064 413 1064 b 461 1036 438 1057 451 1049 b 468 1024 465 1033 468 1029 b 475 997 471 1015 472 1006 b 478 982 478 992 478 988 l 478 968 b 461 914 481 947 474 929 b 458 910 460 913 458 911 b 414 885 449 893 432 888 b 403 885 411 883 407 885 m 410 935 b 426 944 417 936 422 939 b 435 963 432 950 433 956 b 436 967 435 964 436 965 b 435 992 440 975 439 983 b 426 1000 433 994 431 999 b 421 1007 425 1001 422 1004 b 407 1014 417 1010 413 1013 b 399 1011 404 1015 400 1014 b 389 1006 396 1008 393 1007 l 382 999 b 371 979 378 992 374 986 b 375 947 365 969 367 954 l 388 938 b 401 933 392 933 396 932 m 238 -89 b 93 -33 183 -86 133 -71 b 38 65 63 -6 47 28 b 1 340 13 156 1 247 b 0 351 1 344 1 347 b 1 407 -1 369 0 389 b 29 743 8 519 15 632 b 54 864 35 783 44 824 b 75 881 57 876 64 882 b 211 847 122 879 169 874 b 246 801 229 836 239 821 b 264 646 263 750 272 699 b 265 600 261 631 263 615 b 260 528 271 575 264 551 b 238 404 253 486 246 444 b 231 197 225 336 225 267 b 264 53 233 147 246 100 b 296 22 271 38 283 31 b 314 31 306 15 311 24 b 346 124 325 61 338 92 b 406 381 367 210 389 294 b 429 522 415 428 424 475 b 453 660 436 568 443 614 b 474 714 457 678 465 696 b 493 726 476 722 482 728 b 521 726 503 726 513 728 b 560 706 536 724 549 724 b 571 657 571 688 571 674 b 571 560 571 624 565 592 b 563 519 572 544 564 532 b 532 360 557 465 540 413 b 489 174 522 296 504 236 l 476 107 b 453 49 472 86 464 67 b 419 -4 442 31 436 11 b 304 -82 383 -35 349 -64 b 238 -89 282 -90 260 -89 "},"V":{"ha":558,"x_min":0,"x_max":0,"o":"m 451 706 b 517 700 472 714 496 710 l 508 607 b 478 372 497 528 481 451 b 415 99 474 285 439 203 b 378 -87 392 1 379 -26 b 340 -121 376 -114 374 -126 b 288 -126 311 -117 314 -121 b 240 -128 271 -129 256 -128 b 200 -101 222 -125 211 -115 b 172 -31 183 -81 181 -54 b 76 321 135 85 108 204 b 49 519 61 386 57 453 b 22 694 40 578 33 638 b 3 771 18 721 15 747 b 14 794 -3 781 3 790 b 175 761 74 813 126 796 b 192 729 186 754 190 742 l 204 667 b 242 426 219 588 226 507 b 294 119 254 371 281 179 b 324 207 293 135 326 192 b 332 264 325 219 331 253 b 382 558 336 358 371 465 b 408 658 388 592 400 625 b 451 706 415 685 429 697 "},"W":{"ha":731,"x_min":0,"x_max":0,"o":"m 142 -24 b 124 -17 136 -21 131 -18 b 53 57 82 -8 63 19 b 21 247 38 119 28 183 b 4 468 13 321 1 393 b 3 688 0 540 -1 614 b 24 828 7 735 8 782 b 58 851 29 846 39 853 b 110 842 75 849 93 847 b 178 765 146 828 168 807 b 203 575 190 703 193 638 l 203 567 b 208 457 213 531 213 494 b 203 346 204 421 210 383 b 208 297 200 331 207 314 b 213 293 208 294 210 292 b 217 297 214 293 217 296 l 229 328 b 338 568 256 413 293 492 b 382 596 347 586 361 596 b 446 599 403 596 424 600 b 474 579 458 597 468 590 b 489 501 485 554 489 528 b 510 311 489 438 501 375 b 515 303 510 308 511 303 b 522 311 519 301 521 308 b 572 493 546 371 565 431 b 596 596 576 528 586 563 b 615 688 606 626 613 657 b 663 811 621 733 636 775 b 700 897 682 838 690 868 b 761 931 714 935 722 939 l 763 931 b 794 882 804 922 806 922 b 772 811 789 858 783 833 b 738 679 751 769 744 724 b 721 608 733 656 726 632 b 618 296 690 504 653 400 b 581 163 604 253 589 208 b 544 79 575 132 561 104 b 507 71 536 65 522 61 b 449 104 488 83 469 94 b 428 133 438 110 431 121 b 410 250 417 171 413 211 b 400 331 407 278 404 304 b 394 342 400 335 401 342 b 389 333 392 342 390 336 b 331 179 367 283 351 231 b 225 -6 304 113 278 47 b 142 -24 206 -24 167 -33 "},"Ẃ":{"ha":731,"x_min":0,"x_max":0,"o":"m 392 910 b 346 914 371 894 361 897 b 343 958 331 931 329 942 b 428 1069 374 992 397 1035 b 490 1099 446 1088 463 1103 b 543 1082 511 1100 528 1092 b 550 1022 563 1067 564 1042 b 506 986 538 1010 522 994 l 479 967 b 422 928 463 951 442 942 b 397 914 414 924 406 919 b 392 910 397 911 394 910 m 142 -24 b 124 -17 136 -21 131 -18 b 53 57 82 -8 63 19 b 21 247 38 119 28 183 b 4 468 13 321 1 393 b 3 688 0 540 -1 614 b 24 828 7 735 8 782 b 58 851 29 846 39 853 b 110 842 75 849 93 847 b 178 765 146 828 168 807 b 203 575 190 703 193 638 l 203 567 b 208 457 213 531 213 494 b 203 346 204 421 210 383 b 208 297 200 331 207 314 b 213 293 208 294 210 292 b 217 297 214 293 217 296 l 229 328 b 338 568 256 413 293 492 b 382 596 347 586 361 596 b 446 599 403 596 424 600 b 474 579 458 597 468 590 b 489 501 485 554 489 528 b 510 311 489 438 501 375 b 515 303 510 308 511 303 b 522 311 519 301 521 308 b 572 493 546 371 565 431 b 596 596 576 528 586 563 b 615 688 606 626 613 657 b 663 811 621 733 636 775 b 700 897 682 838 690 868 b 761 931 714 935 722 939 l 763 931 b 794 882 804 922 806 922 b 772 811 789 858 783 833 b 738 679 751 769 744 724 b 721 608 733 656 726 632 b 618 296 690 504 653 400 b 581 163 604 253 589 208 b 544 79 575 132 561 104 b 507 71 536 65 522 61 b 449 104 488 83 469 94 b 428 133 438 110 431 121 b 410 250 417 171 413 211 b 400 331 407 278 404 304 b 394 342 400 335 401 342 b 389 333 392 342 390 336 b 331 179 367 283 351 231 b 225 -6 304 113 278 47 b 142 -24 206 -24 167 -33 "},"Ŵ":{"ha":731,"x_min":0,"x_max":0,"o":"m 535 913 b 514 931 526 917 521 924 b 464 1000 493 951 479 975 b 444 1025 457 1008 450 1017 b 428 1028 438 1035 436 1035 b 408 1008 421 1022 414 1015 b 339 946 396 993 342 947 b 332 940 335 946 333 942 b 285 939 321 933 297 932 b 279 958 278 942 276 949 b 289 968 282 961 285 965 b 307 994 293 976 300 986 b 375 1067 325 1022 351 1044 b 411 1104 388 1078 400 1090 b 438 1108 418 1111 428 1113 b 458 1097 444 1106 451 1101 b 528 1018 485 1074 507 1046 b 567 972 540 1001 553 988 b 588 944 575 963 581 954 b 582 921 594 933 592 928 b 569 913 576 918 574 917 b 535 913 560 904 546 904 m 142 -24 b 124 -17 136 -21 131 -18 b 53 57 82 -8 63 19 b 21 247 38 119 28 183 b 4 468 13 321 1 393 b 3 688 0 540 -1 614 b 24 828 7 735 8 782 b 58 851 29 846 39 853 b 110 842 75 849 93 847 b 178 765 146 828 168 807 b 203 575 190 703 193 638 l 203 567 b 208 457 213 531 213 494 b 203 346 204 421 210 383 b 208 297 200 331 207 314 b 213 293 208 294 210 292 b 217 297 214 293 217 296 l 229 328 b 338 568 256 413 293 492 b 382 596 347 586 361 596 b 446 599 403 596 424 600 b 474 579 458 597 468 590 b 489 501 485 554 489 528 b 510 311 489 438 501 375 b 515 303 510 308 511 303 b 522 311 519 301 521 308 b 572 493 546 371 565 431 b 596 596 576 528 586 563 b 615 688 606 626 613 657 b 663 811 621 733 636 775 b 700 897 682 838 690 868 b 761 931 714 935 722 939 l 763 931 b 794 882 804 922 806 922 b 772 811 789 858 783 833 b 738 679 751 769 744 724 b 721 608 733 656 726 632 b 618 296 690 504 653 400 b 581 163 604 253 589 208 b 544 79 575 132 561 104 b 507 71 536 65 522 61 b 449 104 488 83 469 94 b 428 133 438 110 431 121 b 410 250 417 171 413 211 b 400 331 407 278 404 304 b 394 342 400 335 401 342 b 389 333 392 342 390 336 b 331 179 367 283 351 231 b 225 -6 304 113 278 47 b 142 -24 206 -24 167 -33 "},"Ẅ":{"ha":731,"x_min":0,"x_max":0,"o":"m 324 954 b 296 974 314 958 304 965 l 271 999 b 274 1063 251 1018 253 1044 b 276 1064 275 1063 276 1064 b 308 1083 288 1071 294 1085 b 356 1065 325 1081 342 1075 b 378 1047 364 1060 371 1053 b 390 1019 388 1040 392 1031 b 353 956 389 992 375 971 b 324 954 343 950 333 950 m 542 946 b 488 971 521 947 500 951 b 474 985 483 976 478 979 b 471 1053 453 1004 453 1032 b 494 1072 478 1061 486 1067 b 514 1076 500 1076 507 1078 b 558 1057 531 1074 546 1068 b 572 1033 565 1051 571 1043 b 575 993 575 1021 576 1008 b 574 974 574 989 574 981 b 542 946 571 956 560 946 m 142 -24 b 124 -17 136 -21 131 -18 b 53 57 82 -8 63 19 b 21 247 38 119 28 183 b 4 468 13 321 1 393 b 3 688 0 540 -1 614 b 24 828 7 735 8 782 b 58 851 29 846 39 853 b 110 842 75 849 93 847 b 178 765 146 828 168 807 b 203 575 190 703 193 638 l 203 567 b 208 457 213 531 213 494 b 203 346 204 421 210 383 b 208 297 200 331 207 314 b 213 293 208 294 210 292 b 217 297 214 293 217 296 l 229 328 b 338 568 256 413 293 492 b 382 596 347 586 361 596 b 446 599 403 596 424 600 b 474 579 458 597 468 590 b 489 501 485 554 489 528 b 510 311 489 438 501 375 b 515 303 510 308 511 303 b 522 311 519 301 521 308 b 572 493 546 371 565 431 b 596 596 576 528 586 563 b 615 688 606 626 613 657 b 663 811 621 733 636 775 b 700 897 682 838 690 868 b 761 931 714 935 722 939 l 763 931 b 794 882 804 922 806 922 b 772 811 789 858 783 833 b 738 679 751 769 744 724 b 721 608 733 656 726 632 b 618 296 690 504 653 400 b 581 163 604 253 589 208 b 544 79 575 132 561 104 b 507 71 536 65 522 61 b 449 104 488 83 469 94 b 428 133 438 110 431 121 b 410 250 417 171 413 211 b 400 331 407 278 404 304 b 394 342 400 335 401 342 b 389 333 392 342 390 336 b 331 179 367 283 351 231 b 225 -6 304 113 278 47 b 142 -24 206 -24 167 -33 "},"Ẁ":{"ha":731,"x_min":0,"x_max":0,"o":"m 465 893 b 403 917 440 894 419 903 b 326 972 376 935 350 953 b 290 1014 313 983 301 1000 b 286 1029 289 1018 286 1022 b 301 1088 283 1049 290 1069 b 322 1097 307 1096 313 1097 b 386 1057 347 1092 372 1088 b 389 1056 389 1057 389 1056 b 418 1014 404 1046 411 1029 b 444 974 425 1000 433 988 b 476 921 458 957 467 939 b 481 914 481 918 481 917 b 482 896 483 910 486 903 b 465 893 476 889 469 893 m 142 -24 b 124 -17 136 -21 131 -18 b 53 57 82 -8 63 19 b 21 247 38 119 28 183 b 4 468 13 321 1 393 b 3 688 0 540 -1 614 b 24 828 7 735 8 782 b 58 851 29 846 39 853 b 110 842 75 849 93 847 b 178 765 146 828 168 807 b 203 575 190 703 193 638 l 203 567 b 208 457 213 531 213 494 b 203 346 204 421 210 383 b 208 297 200 331 207 314 b 213 293 208 294 210 292 b 217 297 214 293 217 296 l 229 328 b 338 568 256 413 293 492 b 382 596 347 586 361 596 b 446 599 403 596 424 600 b 474 579 458 597 468 590 b 489 501 485 554 489 528 b 510 311 489 438 501 375 b 515 303 510 308 511 303 b 522 311 519 301 521 308 b 572 493 546 371 565 431 b 596 596 576 528 586 563 b 615 688 606 626 613 657 b 663 811 621 733 636 775 b 700 897 682 838 690 868 b 761 931 714 935 722 939 l 763 931 b 794 882 804 922 806 922 b 772 811 789 858 783 833 b 738 679 751 769 744 724 b 721 608 733 656 726 632 b 618 296 690 504 653 400 b 581 163 604 253 589 208 b 544 79 575 132 561 104 b 507 71 536 65 522 61 b 449 104 488 83 469 94 b 428 133 438 110 431 121 b 410 250 417 171 413 211 b 400 331 407 278 404 304 b 394 342 400 335 401 342 b 389 333 392 342 390 336 b 331 179 367 283 351 231 b 225 -6 304 113 278 47 b 142 -24 206 -24 167 -33 "},"X":{"ha":496,"x_min":0,"x_max":0,"o":"m 439 -90 b 358 -57 407 -90 381 -79 b 261 82 318 -15 286 31 b 210 178 244 114 228 146 b 203 186 208 182 207 186 b 196 178 199 186 197 182 b 165 90 181 150 168 122 b 149 31 163 71 158 50 b 71 7 133 0 104 -10 b 57 10 67 8 63 10 b 32 38 43 13 35 24 b 47 118 26 67 38 92 b 133 297 71 181 104 238 b 133 308 136 301 136 306 b 50 510 89 369 72 440 b 0 715 31 576 11 644 b 21 743 -3 733 1 742 b 40 743 26 744 32 743 b 61 742 46 743 53 743 b 92 722 74 742 85 735 b 119 685 100 710 110 697 b 178 569 147 650 163 610 l 211 482 b 215 476 213 479 213 476 b 219 482 218 476 219 481 b 303 676 244 547 278 610 b 418 849 328 743 365 800 b 511 871 444 874 476 882 b 549 844 526 865 536 853 b 550 835 553 843 553 838 b 543 831 549 832 546 829 b 485 803 515 838 500 819 b 410 686 451 768 431 728 b 336 513 381 629 360 571 b 278 354 315 461 301 406 b 281 336 275 347 276 342 b 399 149 329 281 360 211 b 418 100 408 135 410 117 b 472 13 435 71 450 39 b 478 -11 479 6 479 -3 b 482 -46 475 -24 476 -35 b 476 -65 486 -54 485 -60 b 469 -74 474 -67 471 -69 b 439 -90 463 -87 453 -90 "},"Y":{"ha":618,"x_min":0,"x_max":0,"o":"m 303 -217 b 203 -128 261 -225 201 -183 b 210 -89 203 -114 204 -101 b 288 83 235 -31 251 31 b 292 106 292 90 292 97 b 286 226 292 146 289 186 b 282 235 285 229 286 235 b 272 229 278 236 275 232 b 171 179 246 200 210 185 b 42 250 119 171 65 203 b 15 336 29 278 21 307 b 3 413 10 361 7 386 b 13 542 -4 456 0 499 l 42 663 b 63 726 47 685 54 706 b 93 742 69 743 76 747 b 164 718 117 735 142 729 b 222 617 204 699 226 663 b 208 489 218 575 214 532 b 211 388 206 456 210 421 b 215 319 211 365 210 342 b 221 306 215 314 215 307 b 232 317 228 306 229 313 b 258 401 242 344 250 372 b 282 467 265 422 272 446 b 325 614 303 514 311 565 b 325 632 326 621 325 626 b 339 651 324 644 328 649 b 368 654 349 653 358 654 l 397 654 b 440 643 414 657 428 650 b 449 629 446 640 449 635 b 458 604 450 619 453 611 b 463 585 461 597 463 592 b 461 544 464 571 464 558 b 460 486 461 525 461 506 b 432 342 457 467 431 361 b 449 267 435 325 444 282 l 460 200 b 506 183 461 172 501 182 b 572 218 542 189 564 201 b 628 313 599 258 600 274 b 651 340 638 322 642 333 b 729 318 675 357 699 353 b 736 293 738 308 744 303 b 710 256 721 275 710 254 b 629 151 668 213 642 176 b 535 81 606 103 575 88 b 474 61 519 78 471 76 b 454 -62 479 21 457 -21 b 450 -56 451 -97 457 -21 b 438 -122 447 -78 444 -100 b 404 -171 431 -143 419 -158 b 331 -207 382 -187 358 -201 b 303 -217 321 -210 313 -214 m 290 -100 b 297 -93 293 -100 297 -97 b 311 -32 308 -75 311 -53 b 308 -14 311 -25 315 -18 b 301 -28 301 -14 301 -21 b 286 -93 297 -50 293 -71 b 290 -100 286 -93 286 -100 "},"Ý":{"ha":618,"x_min":0,"x_max":0,"o":"m 286 822 b 240 826 265 807 256 810 b 238 871 225 843 224 854 b 322 982 268 904 292 947 b 385 1011 340 1000 357 1015 b 438 994 406 1013 422 1004 b 444 935 457 979 458 954 b 400 899 432 922 417 907 l 374 879 b 317 840 357 864 336 854 b 292 826 308 836 300 832 b 286 822 292 824 289 822 m 303 -217 b 203 -128 261 -225 201 -183 b 210 -89 203 -114 204 -101 b 288 83 235 -31 251 31 b 292 106 292 90 292 97 b 286 226 292 146 289 186 b 282 235 285 229 286 235 b 272 229 278 236 275 232 b 171 179 246 200 210 185 b 42 250 119 171 65 203 b 15 336 29 278 21 307 b 3 413 10 361 7 386 b 13 542 -4 456 0 499 l 42 663 b 63 726 47 685 54 706 b 93 742 69 743 76 747 b 164 718 117 735 142 729 b 222 617 204 699 226 663 b 208 489 218 575 214 532 b 211 388 206 456 210 421 b 215 319 211 365 210 342 b 221 306 215 314 215 307 b 232 317 228 306 229 313 b 258 401 242 344 250 372 b 282 467 265 422 272 446 b 325 614 303 514 311 565 b 325 632 326 621 325 626 b 339 651 324 644 328 649 b 368 654 349 653 358 654 l 397 654 b 440 643 414 657 428 650 b 449 629 446 640 449 635 b 458 604 450 619 453 611 b 463 585 461 597 463 592 b 461 544 464 571 464 558 b 460 486 461 525 461 506 b 432 342 457 467 431 361 b 449 267 435 325 444 282 l 460 200 b 506 183 461 172 501 182 b 572 218 542 189 564 201 b 628 313 599 258 600 274 b 651 340 638 322 642 333 b 729 318 675 357 699 353 b 736 293 738 308 744 303 b 710 256 721 275 710 254 b 629 151 668 213 642 176 b 535 81 606 103 575 88 b 474 61 519 78 471 76 b 454 -62 479 21 457 -21 b 450 -56 451 -97 457 -21 b 438 -122 447 -78 444 -100 b 404 -171 431 -143 419 -158 b 331 -207 382 -187 358 -201 b 303 -217 321 -210 313 -214 m 290 -100 b 297 -93 293 -100 297 -97 b 311 -32 308 -75 311 -53 b 308 -14 311 -25 315 -18 b 301 -28 301 -14 301 -21 b 286 -93 297 -50 293 -71 b 290 -100 286 -93 286 -100 "},"Ŷ":{"ha":618,"x_min":0,"x_max":0,"o":"m 410 922 b 389 940 401 926 396 933 b 339 1010 368 961 354 985 b 319 1035 332 1018 325 1026 b 303 1038 313 1044 311 1044 b 283 1018 296 1032 289 1025 b 214 956 271 1003 217 957 b 207 950 210 956 208 951 b 160 949 196 943 172 942 b 154 968 153 951 151 958 b 164 978 157 971 160 975 b 182 1004 168 986 175 996 b 250 1076 200 1032 226 1054 b 286 1114 263 1088 275 1100 b 313 1118 293 1121 303 1122 b 333 1107 319 1115 326 1111 b 403 1028 360 1083 382 1056 b 442 982 415 1011 428 997 b 463 954 450 972 456 964 b 457 931 469 943 467 938 b 444 922 451 928 449 926 b 410 922 435 914 421 914 m 303 -217 b 203 -128 261 -225 201 -183 b 210 -89 203 -114 204 -101 b 288 83 235 -31 251 31 b 292 106 292 90 292 97 b 286 226 292 146 289 186 b 282 235 285 229 286 235 b 272 229 278 236 275 232 b 171 179 246 200 210 185 b 42 250 119 171 65 203 b 15 336 29 278 21 307 b 3 413 10 361 7 386 b 13 542 -4 456 0 499 l 42 663 b 63 726 47 685 54 706 b 93 742 69 743 76 747 b 164 718 117 735 142 729 b 222 617 204 699 226 663 b 208 489 218 575 214 532 b 211 388 206 456 210 421 b 215 319 211 365 210 342 b 221 306 215 314 215 307 b 232 317 228 306 229 313 b 258 401 242 344 250 372 b 282 467 265 422 272 446 b 325 614 303 514 311 565 b 325 632 326 621 325 626 b 339 651 324 644 328 649 b 368 654 349 653 358 654 l 397 654 b 440 643 414 657 428 650 b 449 629 446 640 449 635 b 458 604 450 619 453 611 b 463 585 461 597 463 592 b 461 544 464 571 464 558 b 460 486 461 525 461 506 b 432 342 457 467 431 361 b 449 267 435 325 444 282 l 460 200 b 506 183 461 172 501 182 b 572 218 542 189 564 201 b 628 313 599 258 600 274 b 651 340 638 322 642 333 b 729 318 675 357 699 353 b 736 293 738 308 744 303 b 710 256 721 275 710 254 b 629 151 668 213 642 176 b 535 81 606 103 575 88 b 474 61 519 78 471 76 b 454 -62 479 21 457 -21 b 450 -56 451 -97 457 -21 b 438 -122 447 -78 444 -100 b 404 -171 431 -143 419 -158 b 331 -207 382 -187 358 -201 b 303 -217 321 -210 313 -214 m 290 -100 b 297 -93 293 -100 297 -97 b 311 -32 308 -75 311 -53 b 308 -14 311 -25 315 -18 b 301 -28 301 -14 301 -21 b 286 -93 297 -50 293 -71 b 290 -100 286 -93 286 -100 "},"Ÿ":{"ha":618,"x_min":0,"x_max":0,"o":"m 200 961 b 172 981 190 965 181 972 l 147 1006 b 150 1069 128 1025 129 1051 b 153 1071 151 1069 153 1071 b 185 1090 164 1078 171 1092 b 232 1072 201 1088 218 1082 b 254 1054 240 1067 247 1060 b 267 1026 264 1047 268 1038 b 229 963 265 999 251 978 b 200 961 219 957 210 957 m 418 953 b 364 978 397 954 376 958 b 350 992 360 983 354 986 b 347 1060 329 1011 329 1039 b 371 1079 354 1068 363 1074 b 390 1083 376 1083 383 1085 b 435 1064 407 1081 422 1075 b 449 1040 442 1058 447 1050 b 451 1000 451 1028 453 1015 b 450 981 450 996 450 988 b 418 953 447 963 436 953 m 303 -217 b 203 -128 261 -225 201 -183 b 210 -89 203 -114 204 -101 b 288 83 235 -31 251 31 b 292 106 292 90 292 97 b 286 226 292 146 289 186 b 282 235 285 229 286 235 b 272 229 278 236 275 232 b 171 179 246 200 210 185 b 42 250 119 171 65 203 b 15 336 29 278 21 307 b 3 413 10 361 7 386 b 13 542 -4 456 0 499 l 42 663 b 63 726 47 685 54 706 b 93 742 69 743 76 747 b 164 718 117 735 142 729 b 222 617 204 699 226 663 b 208 489 218 575 214 532 b 211 388 206 456 210 421 b 215 319 211 365 210 342 b 221 306 215 314 215 307 b 232 317 228 306 229 313 b 258 401 242 344 250 372 b 282 467 265 422 272 446 b 325 614 303 514 311 565 b 325 632 326 621 325 626 b 339 651 324 644 328 649 b 368 654 349 653 358 654 l 397 654 b 440 643 414 657 428 650 b 449 629 446 640 449 635 b 458 604 450 619 453 611 b 463 585 461 597 463 592 b 461 544 464 571 464 558 b 460 486 461 525 461 506 b 432 342 457 467 431 361 b 449 267 435 325 444 282 l 460 200 b 506 183 461 172 501 182 b 572 218 542 189 564 201 b 628 313 599 258 600 274 b 651 340 638 322 642 333 b 729 318 675 357 699 353 b 736 293 738 308 744 303 b 710 256 721 275 710 254 b 629 151 668 213 642 176 b 535 81 606 103 575 88 b 474 61 519 78 471 76 b 454 -62 479 21 457 -21 b 450 -56 451 -97 457 -21 b 438 -122 447 -78 444 -100 b 404 -171 431 -143 419 -158 b 331 -207 382 -187 358 -201 b 303 -217 321 -210 313 -214 m 290 -100 b 297 -93 293 -100 297 -97 b 311 -32 308 -75 311 -53 b 308 -14 311 -25 315 -18 b 301 -28 301 -14 301 -21 b 286 -93 297 -50 293 -71 b 290 -100 286 -93 286 -100 "},"Ỳ":{"ha":618,"x_min":0,"x_max":0,"o":"m 378 922 b 315 946 353 924 332 932 b 239 1001 289 964 263 982 b 203 1043 225 1013 214 1029 b 199 1058 201 1047 199 1051 b 214 1117 196 1078 203 1099 b 235 1126 219 1125 225 1126 b 299 1086 260 1121 285 1117 b 301 1085 301 1086 301 1085 b 331 1043 317 1075 324 1058 b 357 1003 338 1029 346 1017 b 389 950 371 986 379 968 b 393 943 393 947 393 946 b 394 925 396 939 399 932 b 378 922 389 918 382 922 m 303 -217 b 203 -128 261 -225 201 -183 b 210 -89 203 -114 204 -101 b 288 83 235 -31 251 31 b 292 106 292 90 292 97 b 286 226 292 146 289 186 b 282 235 285 229 286 235 b 272 229 278 236 275 232 b 171 179 246 200 210 185 b 42 250 119 171 65 203 b 15 336 29 278 21 307 b 3 413 10 361 7 386 b 13 542 -4 456 0 499 l 42 663 b 63 726 47 685 54 706 b 93 742 69 743 76 747 b 164 718 117 735 142 729 b 222 617 204 699 226 663 b 208 489 218 575 214 532 b 211 388 206 456 210 421 b 215 319 211 365 210 342 b 221 306 215 314 215 307 b 232 317 228 306 229 313 b 258 401 242 344 250 372 b 282 467 265 422 272 446 b 325 614 303 514 311 565 b 325 632 326 621 325 626 b 339 651 324 644 328 649 b 368 654 349 653 358 654 l 397 654 b 440 643 414 657 428 650 b 449 629 446 640 449 635 b 458 604 450 619 453 611 b 463 585 461 597 463 592 b 461 544 464 571 464 558 b 460 486 461 525 461 506 b 432 342 457 467 431 361 b 449 267 435 325 444 282 l 460 200 b 506 183 461 172 501 182 b 572 218 542 189 564 201 b 628 313 599 258 600 274 b 651 340 638 322 642 333 b 729 318 675 357 699 353 b 736 293 738 308 744 303 b 710 256 721 275 710 254 b 629 151 668 213 642 176 b 535 81 606 103 575 88 b 474 61 519 78 471 76 b 454 -62 479 21 457 -21 b 450 -56 451 -97 457 -21 b 438 -122 447 -78 444 -100 b 404 -171 431 -143 419 -158 b 331 -207 382 -187 358 -201 b 303 -217 321 -210 313 -214 m 290 -100 b 297 -93 293 -100 297 -97 b 311 -32 308 -75 311 -53 b 308 -14 311 -25 315 -18 b 301 -28 301 -14 301 -21 b 286 -93 297 -50 293 -71 b 290 -100 286 -93 286 -100 "},"Z":{"ha":514,"x_min":0,"x_max":0,"o":"m 126 -112 b 8 -40 76 -107 38 -82 b 15 28 -6 -18 -3 11 b 28 53 21 36 24 44 b 85 169 46 93 57 135 b 114 240 101 190 106 217 b 207 454 146 311 169 385 b 218 479 211 460 214 469 b 261 604 231 521 244 564 b 264 615 263 608 265 613 b 253 615 260 619 256 617 b 136 604 214 608 175 600 b 49 664 97 610 67 628 b 33 689 46 674 39 682 b 40 715 25 703 29 706 b 88 719 56 728 72 718 b 210 729 129 724 168 726 b 317 733 246 732 282 735 b 364 744 329 733 361 736 b 403 781 369 764 383 765 b 431 772 413 788 424 776 b 450 733 447 764 456 751 b 475 714 447 725 469 718 b 488 697 481 708 485 704 b 486 669 496 688 494 674 b 444 639 468 663 461 644 b 431 622 438 636 433 628 b 365 418 408 554 382 488 b 299 203 346 346 324 275 b 253 46 282 151 264 100 b 267 32 251 33 253 31 b 418 33 317 36 368 35 b 451 31 428 33 439 32 b 489 -8 475 28 486 17 b 497 -31 490 -15 492 -22 b 485 -64 506 -44 500 -58 b 454 -68 474 -68 464 -68 b 397 -71 433 -68 415 -69 b 260 -104 350 -78 304 -90 b 214 -112 246 -110 231 -114 b 126 -112 186 -114 157 -115 "},"Ź":{"ha":514,"x_min":0,"x_max":0,"o":"m 313 865 b 267 869 292 850 282 853 b 264 914 251 886 250 897 b 349 1025 294 947 318 990 b 411 1054 367 1043 383 1058 b 464 1038 432 1056 449 1047 b 471 978 483 1022 485 997 b 426 942 458 965 443 950 l 400 922 b 343 883 383 907 363 897 b 318 869 335 879 326 875 b 313 865 318 867 315 865 m 126 -112 b 8 -40 76 -107 38 -82 b 15 28 -6 -18 -3 11 b 28 53 21 36 24 44 b 85 169 46 93 57 135 b 114 240 101 190 106 217 b 207 454 146 311 169 385 b 218 479 211 460 214 469 b 261 604 231 521 244 564 b 264 615 263 608 265 613 b 253 615 260 619 256 617 b 136 604 214 608 175 600 b 49 664 97 610 67 628 b 33 689 46 674 39 682 b 40 715 25 703 29 706 b 88 719 56 728 72 718 b 210 729 129 724 168 726 b 317 733 246 732 282 735 b 364 744 329 733 361 736 b 403 781 369 764 383 765 b 431 772 413 788 424 776 b 450 733 447 764 456 751 b 475 714 447 725 469 718 b 488 697 481 708 485 704 b 486 669 496 688 494 674 b 444 639 468 663 461 644 b 431 622 438 636 433 628 b 365 418 408 554 382 488 b 299 203 346 346 324 275 b 253 46 282 151 264 100 b 267 32 251 33 253 31 b 418 33 317 36 368 35 b 451 31 428 33 439 32 b 489 -8 475 28 486 17 b 497 -31 490 -15 492 -22 b 485 -64 506 -44 500 -58 b 454 -68 474 -68 464 -68 b 397 -71 433 -68 415 -69 b 260 -104 350 -78 304 -90 b 214 -112 246 -110 231 -114 b 126 -112 186 -114 157 -115 "},"Ž":{"ha":514,"x_min":0,"x_max":0,"o":"m 429 989 b 464 989 440 997 454 997 b 476 981 468 985 471 983 b 482 957 486 974 489 968 b 461 929 475 947 469 939 b 422 883 447 914 435 900 b 353 804 401 856 379 828 b 332 793 346 800 339 796 b 306 797 322 789 313 790 b 269 835 294 811 282 824 b 201 907 246 857 219 879 b 183 933 194 915 188 925 b 174 943 179 936 176 940 b 179 963 171 953 172 960 b 226 961 192 969 215 968 b 233 956 228 960 229 956 b 303 893 236 954 290 908 b 322 874 308 886 315 879 b 339 876 331 867 332 867 b 358 901 344 885 351 893 b 408 971 374 926 388 950 b 429 989 415 978 421 985 m 126 -112 b 8 -40 76 -107 38 -82 b 15 28 -6 -18 -3 11 b 28 53 21 36 24 44 b 85 169 46 93 57 135 b 114 240 101 190 106 217 b 207 454 146 311 169 385 b 218 479 211 460 214 469 b 261 604 231 521 244 564 b 264 615 263 608 265 613 b 253 615 260 619 256 617 b 136 604 214 608 175 600 b 49 664 97 610 67 628 b 33 689 46 674 39 682 b 40 715 25 703 29 706 b 88 719 56 728 72 718 b 210 729 129 724 168 726 b 317 733 246 732 282 735 b 364 744 329 733 361 736 b 403 781 369 764 383 765 b 431 772 413 788 424 776 b 450 733 447 764 456 751 b 475 714 447 725 469 718 b 488 697 481 708 485 704 b 486 669 496 688 494 674 b 444 639 468 663 461 644 b 431 622 438 636 433 628 b 365 418 408 554 382 488 b 299 203 346 346 324 275 b 253 46 282 151 264 100 b 267 32 251 33 253 31 b 418 33 317 36 368 35 b 451 31 428 33 439 32 b 489 -8 475 28 486 17 b 497 -31 490 -15 492 -22 b 485 -64 506 -44 500 -58 b 454 -68 474 -68 464 -68 b 397 -71 433 -68 415 -69 b 260 -104 350 -78 304 -90 b 214 -112 246 -110 231 -114 b 126 -112 186 -114 157 -115 "},"Ż":{"ha":514,"x_min":0,"x_max":0,"o":"m 332 842 b 278 867 311 843 290 847 b 264 881 274 872 268 875 b 261 949 243 900 243 928 b 285 968 268 957 276 963 b 304 972 290 972 297 974 b 349 953 321 969 336 964 b 363 929 356 947 361 939 b 365 889 365 917 367 904 b 364 869 364 885 364 876 b 332 842 361 851 350 842 m 126 -112 b 8 -40 76 -107 38 -82 b 15 28 -6 -18 -3 11 b 28 53 21 36 24 44 b 85 169 46 93 57 135 b 114 240 101 190 106 217 b 207 454 146 311 169 385 b 218 479 211 460 214 469 b 261 604 231 521 244 564 b 264 615 263 608 265 613 b 253 615 260 619 256 617 b 136 604 214 608 175 600 b 49 664 97 610 67 628 b 33 689 46 674 39 682 b 40 715 25 703 29 706 b 88 719 56 728 72 718 b 210 729 129 724 168 726 b 317 733 246 732 282 735 b 364 744 329 733 361 736 b 403 781 369 764 383 765 b 431 772 413 788 424 776 b 450 733 447 764 456 751 b 475 714 447 725 469 718 b 488 697 481 708 485 704 b 486 669 496 688 494 674 b 444 639 468 663 461 644 b 431 622 438 636 433 628 b 365 418 408 554 382 488 b 299 203 346 346 324 275 b 253 46 282 151 264 100 b 267 32 251 33 253 31 b 418 33 317 36 368 35 b 451 31 428 33 439 32 b 489 -8 475 28 486 17 b 497 -31 490 -15 492 -22 b 485 -64 506 -44 500 -58 b 454 -68 474 -68 464 -68 b 397 -71 433 -68 415 -69 b 260 -104 350 -78 304 -90 b 214 -112 246 -110 231 -114 b 126 -112 186 -114 157 -115 "},"a":{"ha":419,"x_min":0,"x_max":0,"o":"m 333 1 b 267 18 311 6 289 11 b 217 86 235 29 221 54 b 211 153 213 108 211 131 b 207 163 211 157 211 161 b 201 156 204 163 203 158 l 197 143 b 122 104 185 106 167 97 b 63 118 103 107 82 114 b 0 188 26 128 7 151 b 76 511 -3 200 42 458 b 172 607 101 549 138 578 b 219 617 185 618 201 621 b 306 585 250 611 278 596 b 314 576 310 583 313 581 b 342 560 319 564 329 561 b 361 536 358 558 361 553 b 340 206 360 425 354 315 b 339 128 338 181 336 154 b 342 121 339 125 338 121 b 347 126 344 121 346 125 l 393 197 b 472 343 436 263 444 292 b 532 307 510 388 525 351 b 419 57 539 267 436 83 l 401 28 b 333 1 385 4 361 -4 m 111 238 b 129 249 118 242 129 244 b 200 376 154 292 179 333 b 236 457 214 403 225 431 b 218 469 239 471 236 472 b 204 457 214 465 207 461 b 104 247 147 389 136 318 b 111 238 100 244 108 242 "},"á":{"ha":419,"x_min":0,"x_max":0,"o":"m 199 693 b 153 697 178 678 168 681 b 150 742 138 714 136 725 b 235 853 181 775 204 818 b 297 882 253 871 269 886 b 350 865 318 883 335 875 b 357 806 369 850 371 825 b 313 769 344 793 329 778 l 286 750 b 229 711 269 735 249 725 b 204 697 221 707 213 703 b 199 693 204 694 201 693 m 333 1 b 267 18 311 6 289 11 b 217 86 235 29 221 54 b 211 153 213 108 211 131 b 207 163 211 157 211 161 b 201 156 204 163 203 158 l 197 143 b 122 104 185 106 167 97 b 63 118 103 107 82 114 b 0 188 26 128 7 151 b 76 511 -3 200 42 458 b 172 607 101 549 138 578 b 219 617 185 618 201 621 b 306 585 250 611 278 596 b 314 576 310 583 313 581 b 342 560 319 564 329 561 b 361 536 358 558 361 553 b 340 206 360 425 354 315 b 339 128 338 181 336 154 b 342 121 339 125 338 121 b 347 126 344 121 346 125 l 393 197 b 472 343 436 263 444 292 b 532 307 510 388 525 351 b 419 57 539 267 436 83 l 401 28 b 333 1 385 4 361 -4 m 111 238 b 129 249 118 242 129 244 b 200 376 154 292 179 333 b 236 457 214 403 225 431 b 218 469 239 471 236 472 b 204 457 214 465 207 461 b 104 247 147 389 136 318 b 111 238 100 244 108 242 "},"ă":{"ha":419,"x_min":0,"x_max":0,"o":"m 261 700 b 174 729 231 706 199 714 b 106 800 147 750 124 772 l 99 813 b 104 844 94 824 94 835 l 114 856 b 140 854 124 863 132 863 b 142 853 140 854 142 854 b 171 804 149 836 163 822 b 207 776 178 786 190 778 b 269 794 228 776 250 782 b 311 836 288 804 303 818 b 333 874 317 849 328 860 b 347 878 335 881 340 881 b 367 865 353 872 360 871 b 376 847 375 861 378 856 b 372 825 376 840 376 832 b 353 769 367 807 364 788 b 321 735 346 754 336 742 b 300 717 313 732 306 722 b 261 700 288 706 275 703 m 333 1 b 267 18 311 6 289 11 b 217 86 235 29 221 54 b 211 153 213 108 211 131 b 207 163 211 157 211 161 b 201 156 204 163 203 158 l 197 143 b 122 104 185 106 167 97 b 63 118 103 107 82 114 b 0 188 26 128 7 151 b 76 511 -3 200 42 458 b 172 607 101 549 138 578 b 219 617 185 618 201 621 b 306 585 250 611 278 596 b 314 576 310 583 313 581 b 342 560 319 564 329 561 b 361 536 358 558 361 553 b 340 206 360 425 354 315 b 339 128 338 181 336 154 b 342 121 339 125 338 121 b 347 126 344 121 346 125 l 393 197 b 472 343 436 263 444 292 b 532 307 510 388 525 351 b 419 57 539 267 436 83 l 401 28 b 333 1 385 4 361 -4 m 111 238 b 129 249 118 242 129 244 b 200 376 154 292 179 333 b 236 457 214 403 225 431 b 218 469 239 471 236 472 b 204 457 214 465 207 461 b 104 247 147 389 136 318 b 111 238 100 244 108 242 "},"â":{"ha":419,"x_min":0,"x_max":0,"o":"m 381 668 b 360 686 372 672 367 679 b 310 756 339 707 325 731 b 290 781 303 764 296 772 b 274 783 283 790 282 790 b 254 764 267 778 260 771 b 185 701 242 749 188 703 b 178 696 181 701 179 697 b 131 694 167 689 143 688 b 125 714 124 697 122 704 b 135 724 128 717 131 721 b 153 750 139 732 146 742 b 221 822 171 778 197 800 b 257 860 233 833 246 846 b 283 864 264 867 274 868 b 304 853 290 861 297 857 b 374 774 331 829 353 801 b 413 728 386 757 399 743 b 433 700 421 718 426 710 b 428 676 440 689 438 683 b 415 668 422 674 419 672 b 381 668 406 660 392 660 m 333 1 b 267 18 311 6 289 11 b 217 86 235 29 221 54 b 211 153 213 108 211 131 b 207 163 211 157 211 161 b 201 156 204 163 203 158 l 197 143 b 122 104 185 106 167 97 b 63 118 103 107 82 114 b 0 188 26 128 7 151 b 76 511 -3 200 42 458 b 172 607 101 549 138 578 b 219 617 185 618 201 621 b 306 585 250 611 278 596 b 314 576 310 583 313 581 b 342 560 319 564 329 561 b 361 536 358 558 361 553 b 340 206 360 425 354 315 b 339 128 338 181 336 154 b 342 121 339 125 338 121 b 347 126 344 121 346 125 l 393 197 b 472 343 436 263 444 292 b 532 307 510 388 525 351 b 419 57 539 267 436 83 l 401 28 b 333 1 385 4 361 -4 m 111 238 b 129 249 118 242 129 244 b 200 376 154 292 179 333 b 236 457 214 403 225 431 b 218 469 239 471 236 472 b 204 457 214 465 207 461 b 104 247 147 389 136 318 b 111 238 100 244 108 242 "}}}
